<svg width="456" height="300" viewBox="0 0 456 300" fill="none" xmlns="http://www.w3.org/2000/svg">
<mask id="mask0_5798_88106" style="mask-type:alpha" maskUnits="userSpaceOnUse" x="0" y="0" width="456" height="300">
<path d="M0.5 0L455.5 0V300H0.5L0.5 0Z" fill="#D9D9D9"/>
</mask>
<g mask="url(#mask0_5798_88106)">
<path d="M115.606 295.607H326.291C328.57 281.315 312.23 271.884 300.93 262.871C286.966 251.734 277.207 232.324 284.27 215.908C286.966 209.599 291.846 204.481 297.175 200.168C318.137 183.204 346.804 177.121 365.873 158.065C379.997 143.966 387.156 124.235 390.848 104.6C393.127 92.4324 394.219 79.7501 391.233 67.7115C388.248 55.7052 380.639 44.3426 369.372 39.289C353.802 32.3041 335.729 38.4521 320.031 45.1795C304.333 51.9069 287.191 59.3425 270.787 54.6429C252.617 49.4284 202.442 -33.3285 155.702 22.5509C141.545 39.4821 127.677 40.1903 99.6195 40.1903C79.4916 40.1903 68.1917 70.8016 70.9525 87.2822C73.7132 103.763 85.1094 118.859 94.098 132.926C100.679 143.194 108.191 154.138 107.484 166.337C106.521 183.236 90.7915 194.728 80.5188 208.183C68.7696 223.569 63.6975 244.652 69.9894 262.968C76.2814 281.283 96.3772 297.474 115.606 295.607Z" fill="#D8E0E6"/>
<path d="M246.201 116.609C246.201 116.609 248.408 92.3403 244.622 77.5026C240.874 62.6767 236.239 58.4763 233.955 58.7265C231.672 58.9767 231.964 68.7985 231.964 68.7985C231.964 68.7985 228.047 54.9706 223.071 55.5898C218.096 56.209 220.189 68.7618 220.189 68.7618C220.189 68.7618 215.342 59.465 212.035 62.382C208.741 65.3237 214.514 88.0015 214.514 88.0015C214.514 88.0015 207.985 77.8252 205.388 80.0585C202.79 82.2918 205.829 99.2443 209.862 104.574C213.919 109.892 221.785 115.418 221.785 115.418L246.214 116.633L246.201 116.609Z" fill="#F8AFB8"/>
<path d="M25.9291 124.452C25.9291 124.452 15.5497 105.27 14.0193 91.9534C12.4888 78.637 13.6019 76.8577 17.6367 73.2715C19.3342 71.7703 20.0577 66.6272 24.9552 65.5986C29.8527 64.5699 34.0267 77.2191 34.0267 77.2191C34.0267 77.2191 35.3902 68.1006 39.5085 69.4906C43.6269 70.8806 45.4635 87.5609 45.4635 87.5609C45.4635 87.5609 49.6931 76.0515 52.8932 77.0801C56.0933 78.1087 57.9576 97.7358 55.9819 103.352C54.0063 108.967 48.4687 115.917 48.4687 115.917L25.9291 124.48V124.452Z" fill="#F8AFB8"/>
<path d="M37.954 111.526C38.3436 111.526 38.6497 111.221 38.6497 110.831C38.6497 92.9835 47.8325 88.591 47.916 88.5354C48.2777 88.3686 48.4169 87.9516 48.2777 87.5902C48.1108 87.2288 47.6934 87.0898 47.3316 87.2288C46.9142 87.4234 37.2027 91.9827 37.2305 110.804C37.2305 111.193 37.5366 111.499 37.9262 111.499L37.954 111.526Z" fill="black"/>
<path d="M152.737 187.614C152.737 187.614 173.913 174.604 171.298 167.07C168.682 159.536 152.681 150.445 136.236 150.445C119.79 150.445 101.619 158.646 101.202 166.875C100.757 175.076 152.737 187.614 152.737 187.614Z" fill="#0072C8"/>
<path d="M189.524 277.938C189.524 277.938 216.822 348.829 224.251 397.34C231.681 445.852 206.053 524.666 206.053 524.666L127.164 523.638C127.164 523.638 141.996 445.518 144.695 421.777C146.726 395.617 132.562 282.413 132.562 282.413L189.552 277.938H189.524Z" fill="#0072C8"/>
<path d="M97.8102 276.551C97.8102 276.551 82.9786 339.88 53.3153 392.868C23.6521 445.855 9.48828 461.007 9.48828 461.007L71.4305 514.3C71.4305 514.3 142.333 435.541 151.098 381.859C159.864 328.176 159.196 279.998 159.196 279.998L97.8381 276.551H97.8102Z" fill="#0072C8"/>
<path d="M103.02 307.462C115.236 307.462 120.857 295.035 120.912 294.896C121.079 294.535 120.912 294.118 120.551 293.979C120.189 293.812 119.771 293.979 119.632 294.34C119.354 294.952 112.787 309.436 97.9831 305.349C97.5935 305.266 97.2039 305.461 97.1204 305.85C97.0091 306.239 97.2318 306.628 97.6213 306.712C99.5692 307.24 101.378 307.49 103.048 307.49L103.02 307.462Z" fill="white"/>
<path d="M206.952 109.97C206.952 109.97 216.886 144.109 200.774 158.009C184.635 171.909 160.565 165.765 155.25 165.32C149.935 164.876 134.936 163.541 124.529 165.543C114.15 167.517 89.6346 166.933 73.9403 145.916C58.2461 124.926 57.5782 109.358 57.5782 109.358L11.8311 109.97C11.8311 109.97 8.07451 165.376 33.9255 193.788C52.1242 213.804 87.8259 221.171 87.8259 221.171C87.8259 221.171 89.1615 242.8 90.0242 254.059C90.9146 265.319 95.8121 280.025 95.8121 280.025C95.8121 280.025 121.524 285.418 148.627 284.973C175.758 284.529 192.232 281.304 192.232 281.304C192.232 281.304 193.623 274.632 193.846 258.841C194.068 243.05 191.647 221.839 191.647 221.839C191.647 221.839 243.349 219.642 256.15 185.198C268.978 150.753 251.057 108.246 251.057 108.246L206.869 109.97H206.952Z" fill="#005491"/>
<path d="M125.387 144.219L127.251 170.018C127.251 170.018 131.23 176.968 142.472 176.717C150.848 176.523 153.575 173.604 153.575 173.604L151.46 160.704L149.401 148.111L128.837 144.775L125.387 144.219Z" fill="#F8AFB8"/>
<path d="M128.844 148.808C128.955 149.336 129.205 149.92 129.567 150.588C134.771 159.678 146.625 160.596 151.467 160.568L149.408 148.113L128.844 148.836V148.808Z" fill="black"/>
<path d="M147.763 108.772C147.763 108.772 158.782 130.818 156.417 143.968C154.052 157.117 143.032 156.061 136.354 154.143C129.675 152.224 126.308 148.193 126.308 148.193C126.308 148.193 120.409 150.946 115.873 145.219C111.338 139.492 113.313 132.291 116.653 130.373C119.992 128.455 124.333 130.79 124.333 130.79L120.604 124.424C120.604 124.424 131.623 89.4232 147.763 108.717V108.772Z" fill="#F8AFB8"/>
<path d="M124.551 140.768C124.774 140.768 125.024 140.657 125.163 140.434C125.358 140.101 125.275 139.656 124.941 139.461L116.732 134.318C116.398 134.124 115.953 134.207 115.758 134.541C115.563 134.874 115.646 135.319 115.98 135.514L124.189 140.657C124.189 140.657 124.44 140.768 124.551 140.768Z" fill="black"/>
<path d="M117.568 141.408C117.568 141.408 117.735 141.408 117.819 141.352L122.744 139.406C123.106 139.267 123.3 138.85 123.133 138.489C122.994 138.127 122.577 137.933 122.215 138.099L117.29 140.045C116.928 140.184 116.733 140.601 116.9 140.963C117.012 141.241 117.262 141.408 117.568 141.408Z" fill="black"/>
<path d="M134.326 119.921C134.576 119.921 134.799 119.782 134.938 119.56C136.774 116.391 139.418 117.447 139.724 117.558C140.086 117.725 140.503 117.558 140.642 117.197C140.809 116.836 140.642 116.419 140.281 116.252C138.889 115.612 135.717 115.334 133.686 118.837C133.491 119.171 133.602 119.616 133.936 119.81C134.047 119.866 134.159 119.894 134.298 119.894L134.326 119.921Z" fill="black"/>
<path d="M150.766 117.336C150.989 117.336 151.211 117.225 151.35 117.058C151.573 116.752 151.517 116.308 151.184 116.057C148.957 114.445 146.648 115.362 145.757 116.057C145.451 116.308 145.396 116.752 145.646 117.058C145.896 117.364 146.342 117.42 146.648 117.169C146.731 117.114 148.456 115.807 150.377 117.169C150.488 117.253 150.655 117.308 150.794 117.308L150.766 117.336Z" fill="black"/>
<path d="M135.653 127.867C135.904 127.867 136.126 127.756 136.266 127.534C136.266 127.534 137.184 126.088 138.686 125.643C139.939 125.282 140.69 126.755 140.718 126.811C140.885 127.145 141.302 127.311 141.664 127.117C141.998 126.95 142.165 126.533 141.97 126.172C141.525 125.282 140.161 123.725 138.297 124.281C136.21 124.865 135.069 126.728 135.041 126.811C134.846 127.145 134.958 127.589 135.292 127.784C135.403 127.84 135.542 127.895 135.653 127.895V127.867Z" fill="black"/>
<path d="M149.625 126.178C149.903 126.178 150.182 126.011 150.293 125.706C150.432 125.344 150.961 124.288 151.74 124.038C152.324 123.843 153.215 124.816 153.549 125.289C153.771 125.594 154.216 125.678 154.523 125.455C154.829 125.233 154.912 124.788 154.69 124.482C154.523 124.232 152.992 122.147 151.267 122.703C149.736 123.204 149.013 125.011 148.957 125.205C148.818 125.567 149.013 125.984 149.375 126.123C149.458 126.15 149.542 126.178 149.625 126.178Z" fill="black"/>
<path d="M140.445 144.384C139.165 143.661 138.414 142.216 138.219 140.131C138.219 139.853 138.33 139.603 138.553 139.464C138.775 139.325 139.081 139.325 139.304 139.464L145.036 143.161C145.259 143.3 145.37 143.55 145.37 143.8C145.37 144.051 145.175 144.273 144.953 144.384C144.897 144.412 143.84 144.885 142.56 144.885C141.892 144.885 141.141 144.746 140.445 144.357V144.384ZM139.944 141.576C140.222 142.327 140.612 142.855 141.141 143.161C141.697 143.495 142.337 143.55 142.894 143.495L139.944 141.576Z" fill="black"/>
<path d="M148.483 138.215C148.817 138.215 149.123 137.965 149.179 137.631C150.542 130.07 146.535 125.205 146.34 125.01C146.09 124.704 145.645 124.676 145.338 124.927C145.032 125.177 145.005 125.622 145.255 125.928C145.283 125.983 149.012 130.515 147.759 137.381C147.676 137.77 147.954 138.132 148.316 138.215C148.344 138.215 148.399 138.215 148.427 138.215H148.483Z" fill="black"/>
<path d="M171.334 167.046C171.334 167.046 172.948 174.136 163.682 179.557C154.443 185.006 142.701 187.591 142.701 187.591C142.701 187.591 123.222 182.809 110.755 176.693C101.211 172.023 98.5952 166.963 102.714 162.96C106.804 158.984 121.107 158.984 121.107 158.984C121.107 158.984 130.512 162.015 135.132 164.85C139.751 167.686 142.701 168.993 142.701 168.993C142.701 168.993 150.52 163.238 156.503 161.959C162.485 160.652 163.682 162.515 163.682 162.515L171.334 167.019V167.046Z" fill="#0072C8"/>
<path d="M156.222 203.852C156.222 203.852 156.361 203.852 156.444 203.824C156.806 203.713 157.029 203.296 156.889 202.934L152.381 189.062C152.27 188.701 151.853 188.506 151.491 188.617C151.129 188.728 150.907 189.145 151.046 189.507L155.554 203.379C155.665 203.685 155.915 203.88 156.222 203.88V203.852Z" fill="white"/>
<path d="M125.393 204.74C125.727 204.74 126.005 204.518 126.088 204.184L129.539 189.422C129.622 189.033 129.4 188.672 129.01 188.56C128.621 188.477 128.259 188.699 128.148 189.089L124.697 203.851C124.614 204.24 124.836 204.601 125.226 204.712C125.282 204.712 125.337 204.712 125.393 204.712V204.74Z" fill="white"/>
<path d="M206.674 148.92C206.507 148.642 206.535 148.309 206.757 148.086C206.952 147.864 207.314 147.781 207.592 147.92C208.065 148.142 219.196 153.452 220.615 157.983C220.893 158.873 220.81 159.679 220.364 160.43C219.836 161.347 219.084 161.542 218.528 161.542C214.716 161.542 208.009 151.033 206.702 148.92H206.674ZM218.5 160.124C218.5 160.124 218.917 160.068 219.14 159.707C219.363 159.318 219.391 158.901 219.251 158.4C218.444 155.787 213.018 152.368 209.317 150.394C212.295 154.814 216.524 160.152 218.528 160.152L218.5 160.124Z" fill="white"/>
<path d="M67.2281 163.6C66.1985 163.044 66.0037 162.322 66.0594 161.793C66.282 158.568 77.4405 154.232 80.8354 152.981C81.1415 152.869 81.4476 152.981 81.6423 153.231C81.8371 153.481 81.8371 153.815 81.6423 154.065C80.8075 155.205 74.2126 164.045 69.0925 164.045C68.4525 164.045 67.8125 163.906 67.2281 163.6ZM67.4507 161.905C67.4507 162.071 67.6733 162.238 67.8959 162.349C70.8177 163.906 75.9379 158.819 78.9431 155.232C73.1274 157.568 67.562 160.487 67.4507 161.905Z" fill="white"/>
<path d="M28.5797 79.8897C28.5797 79.8897 15.1116 70.0761 18.3395 81.6411C20.7882 90.426 32.3363 102.13 35.7034 99.7114C39.0704 97.2928 36.1486 88.7858 36.1486 88.7858C36.1486 88.7858 41.2409 93.1227 44.4966 88.9526C47.4462 85.1718 43.5783 78.5275 43.5783 78.5275C43.5783 78.5275 48.4758 84.5602 51.7037 80.1121C56.4343 73.579 40.3782 59.7344 35.6199 59.7344C29.2754 59.7344 34.9242 68.0189 34.9242 68.0189C34.9242 68.0189 24.9623 61.6526 23.3761 67.9077C21.79 74.1628 28.5519 79.9175 28.5519 79.9175L28.5797 79.8897Z" fill="#F8AFB8"/>
<path d="M33.9794 100.599C34.8421 100.599 35.7882 100.349 36.7621 99.6263C38.3204 98.4865 38.8491 96.4293 38.3761 93.5381C37.9308 90.9248 36.7064 88.395 34.8421 86.1987L29.1098 79.471C28.8593 79.1652 28.4141 79.1374 28.108 79.3876C27.8019 79.6378 27.7741 80.0826 28.0245 80.3885L33.7568 87.1162C35.4542 89.1178 36.5673 91.4252 36.9569 93.7883C37.3465 96.1235 36.9847 97.7081 35.8995 98.5143C33.8403 100.043 32.1707 98.6533 32.0037 98.5143C31.7255 98.2641 31.2802 98.2641 31.002 98.5699C30.7515 98.8479 30.7515 99.2927 31.0298 99.5707C31.5863 100.071 32.6437 100.655 33.9516 100.655L33.9794 100.599Z" fill="black"/>
<path d="M40.658 91.18C42.0494 91.18 43.552 90.7352 44.9433 89.4842C49.34 85.5643 44.3312 78.4474 44.1085 78.1416L35.4544 67.5774C35.204 67.2716 34.7588 67.2438 34.4527 67.4662C34.1466 67.7164 34.1188 68.1612 34.3414 68.467L42.9676 79.0034C42.9676 79.0034 47.4199 85.3697 43.9694 88.4555C40.5189 91.5414 36.7066 88.4 36.5397 88.2609C36.2336 88.0107 35.7884 88.0385 35.5379 88.3443C35.2875 88.6502 35.3153 89.095 35.6214 89.3452C36.6232 90.207 38.5154 91.2078 40.6024 91.2078L40.658 91.18Z" fill="black"/>
<path d="M124.353 130.818L127.887 133.542L124.548 125.453C124.548 125.453 133.647 120.309 136.124 115.834C138.6 111.358 139.992 109.718 139.992 109.718L147.755 108.745C147.755 108.745 156.799 91.8419 146.169 91.0078C135.539 90.1738 119.539 106.242 116.339 112.275C113.139 118.308 116.339 123.284 116.339 123.284C116.339 123.284 112.388 123.562 111.692 126.565C110.996 129.567 114.085 133.542 114.085 133.542C114.085 133.542 117.73 128.399 124.353 130.818Z" fill="black"/>
<path d="M229.941 106.174C229.496 106.343 229.082 106.151 228.951 105.78C223.452 91.0837 214.409 88.7119 214.334 88.6883C213.948 88.6078 213.717 88.2261 213.822 87.8263C213.903 87.4393 214.284 87.209 214.671 87.2895C215.071 87.3946 224.499 89.7848 230.273 105.248C230.391 105.594 230.26 105.945 229.939 106.112L229.941 106.174Z" fill="black"/>
<path d="M239.146 84.4338C239.146 84.4338 238.949 84.5366 238.812 84.514L215.511 84.5608C215.139 84.5671 214.81 84.2368 214.803 83.8638C214.797 83.4907 215.127 83.1617 215.5 83.1554L238.8 83.1086C239.173 83.1023 239.502 83.4326 239.508 83.8057C239.525 84.079 239.368 84.318 239.121 84.4466L239.146 84.4338Z" fill="black"/>
<path d="M273.027 255.372C273.027 255.372 264.465 327.933 261.852 397.963C259.212 467.993 257.488 518.583 257.488 518.583L331.207 521.197L334.32 382.11L332.624 255.344H273.027V255.372Z" fill="#005491"/>
<path d="M362.149 255.37C362.149 255.37 369.71 281.874 374.102 304.569C378.494 327.263 385.054 357.689 385.054 357.689C385.054 357.689 409.544 426.635 364.901 436.536C309.529 448.773 307.027 382.136 307.027 382.136L312.642 241.77L362.149 255.37Z" fill="#005491"/>
<path d="M331.758 433.476C331.619 433.476 331.453 433.421 331.341 433.337C331.147 433.198 312.245 418.819 302.266 382.302C292.815 347.76 297.818 296.002 298.402 290.301L278.582 281.29C278.221 281.123 278.082 280.706 278.221 280.344C278.388 279.983 278.805 279.844 279.166 279.983L299.458 289.188C299.736 289.328 299.903 289.606 299.875 289.912C299.819 290.468 293.732 345.758 303.628 381.885C313.496 417.874 332.009 432.002 332.203 432.141C332.509 432.364 332.592 432.809 332.342 433.142C332.203 433.337 331.981 433.421 331.786 433.421L331.758 433.476Z" fill="white"/>
<path d="M360.333 293.747C360.111 293.747 344.572 292.356 340.403 271.804C340.319 271.414 340.57 271.053 340.959 270.969C341.348 270.886 341.709 271.136 341.793 271.525C345.74 290.994 359.805 292.301 360.389 292.356C360.778 292.384 361.056 292.718 361.028 293.107C361.028 293.469 360.695 293.747 360.333 293.747Z" fill="white"/>
<path d="M410.027 68.2328C410.027 68.2328 423.203 47.7355 426.705 32.8284C430.235 17.9491 428.067 12.0808 425.927 11.2464C423.786 10.4121 419.506 19.2562 419.506 19.2562C419.506 19.2562 422.424 5.18343 417.727 3.43129C413.029 1.67914 409.082 13.7773 409.082 13.7773C409.082 13.7773 409.082 3.29223 404.801 4.34908C400.52 5.43374 395.155 28.2116 395.155 28.2116C395.155 28.2116 394.071 16.1691 390.736 16.9478C387.4 17.7266 382.257 34.1633 383.369 40.7547C384.509 47.3461 388.929 55.8844 388.929 55.8844L410.027 68.2606V68.2328Z" fill="#C5887B"/>
<path d="M339.068 111.01C339.068 111.01 368.255 119.91 368.783 149.335C369.311 178.76 314.662 181.68 314.662 181.68C314.662 181.68 282.945 184.823 274.328 164.048C265.711 143.272 294.009 130.507 294.009 130.507C294.009 130.507 328.394 103.446 339.068 111.01Z" fill="black"/>
<path d="M321.941 154.815C321.941 154.815 346.236 123.86 355.659 102.862C365.082 81.8641 380.009 46.7656 380.009 46.7656L427.626 65.0102C427.626 65.0102 414.978 107.089 397.799 140.046C380.621 173.003 369.28 189.941 369.28 189.941C369.28 189.941 368.64 260.527 367.667 261.834C366.694 263.142 340.231 269.01 310.516 267.369C280.801 265.728 274.324 261.501 272.712 260.527C271.1 259.554 285.026 167.052 285.026 167.052C285.026 167.052 298.647 155.12 321.969 154.815H321.941Z" fill="#00B5FF"/>
<path d="M325.491 138.082L324.824 155.826C324.824 155.826 321.433 160.804 311.037 161.277C303.281 161.611 300.641 159.775 300.641 159.775L302.058 150.82L303.448 142.087L322.35 138.666L325.519 138.082H325.491Z" fill="#C5887B"/>
<path d="M325.504 137.25C325.448 137.723 325.226 138.307 324.92 138.947C320.612 147.652 306.518 150.6 302.043 150.822L303.433 142.089L325.504 137.25Z" fill="black"/>
<path d="M300.984 101.494C300.984 101.494 290.838 123.41 294.063 135.898C297.259 148.385 308.628 146.689 315.439 144.436C322.249 142.183 325.501 138.095 325.501 138.095C325.501 138.095 331.783 140.375 336.148 134.59C340.512 128.806 338.038 121.992 334.48 120.351C330.922 118.71 326.558 121.241 326.558 121.241L330.06 114.9C330.06 114.9 316.606 81.9427 301.012 101.494H300.984Z" fill="#C5887B"/>
<path d="M299.929 116.848C299.624 116.848 299.346 116.654 299.235 116.32C299.235 116.32 299.012 115.513 298.289 115.152C297.789 114.901 297.15 114.874 296.399 115.152C296.01 115.263 295.621 115.068 295.51 114.707C295.399 114.345 295.593 113.928 295.954 113.817C297.094 113.455 298.123 113.483 298.957 113.956C300.18 114.623 300.569 115.93 300.569 115.986C300.68 116.348 300.458 116.737 300.068 116.848C300.013 116.848 299.957 116.848 299.874 116.848H299.929Z" fill="black"/>
<path d="M313.049 118.238C312.854 118.238 312.632 118.155 312.493 117.988C310.603 115.679 308.601 117.126 308.379 117.292C308.073 117.515 307.628 117.459 307.378 117.153C307.128 116.847 307.184 116.402 307.489 116.152C308.601 115.29 311.298 114.344 313.577 117.07C313.827 117.376 313.772 117.821 313.494 118.071C313.355 118.182 313.216 118.238 313.049 118.238Z" fill="black"/>
<path d="M297.71 110.452C297.376 110.452 297.071 110.202 297.015 109.84C296.959 109.451 297.237 109.089 297.599 109.033L301.935 108.394C302.352 108.338 302.686 108.616 302.741 108.978C302.797 109.367 302.519 109.729 302.157 109.784L297.821 110.424C297.821 110.424 297.738 110.424 297.71 110.424V110.452Z" fill="black"/>
<path d="M313.849 112.26C313.849 112.26 313.654 112.26 313.571 112.204L308.54 110.09C308.178 109.951 308.011 109.534 308.15 109.173C308.289 108.811 308.706 108.644 309.068 108.783L314.099 110.897C314.46 111.036 314.627 111.453 314.488 111.815C314.377 112.093 314.127 112.26 313.849 112.26Z" fill="black"/>
<path d="M301.124 128.417C300.763 128.417 300.457 128.139 300.429 127.778C299.651 120.241 302.82 116.458 302.959 116.291C303.209 115.986 303.654 115.958 303.96 116.208C304.266 116.458 304.293 116.903 304.043 117.209C304.015 117.237 301.152 120.714 301.847 127.639C301.875 128.028 301.597 128.362 301.208 128.417H301.124Z" fill="black"/>
<path d="M308.013 135.803C305.817 135.803 304.288 133.8 304.205 133.717C304.066 133.522 304.01 133.272 304.094 133.05C304.177 132.827 304.344 132.66 304.594 132.605L311.154 130.908C311.377 130.852 311.599 130.908 311.794 131.047C311.96 131.186 312.072 131.409 312.044 131.659C312.044 131.798 311.738 134.913 309.014 135.692C308.68 135.803 308.319 135.831 308.013 135.831V135.803ZM306.151 133.661C306.762 134.134 307.652 134.579 308.625 134.301C309.598 134.023 310.098 133.216 310.376 132.549L306.179 133.634L306.151 133.661Z" fill="black"/>
<path d="M326.497 130.254C326.219 130.254 325.969 130.115 325.858 129.837C325.691 129.475 325.858 129.058 326.219 128.891L335.142 124.831C335.504 124.664 335.92 124.831 336.087 125.192C336.254 125.554 336.087 125.971 335.726 126.138L326.803 130.198C326.803 130.198 326.608 130.254 326.497 130.254Z" fill="black"/>
<path d="M334.425 132.314C334.258 132.314 334.064 132.258 333.925 132.119L330.005 128.225C329.727 127.947 329.727 127.502 330.005 127.224C330.283 126.946 330.728 126.946 331.006 127.224L334.925 131.118C335.203 131.396 335.203 131.841 334.925 132.119C334.786 132.258 334.592 132.342 334.425 132.342V132.314Z" fill="black"/>
<path d="M313.856 102.808C313.856 102.808 308.769 102.029 303.488 105.227C298.178 108.426 297.094 111.541 297.094 111.541C297.094 111.541 293.814 103.281 300.986 95.966C308.158 88.6793 321.945 86.6491 329.867 95.2707C337.817 103.892 337.317 111.513 337.317 111.513L326.504 121.219C326.504 121.219 309.77 117.993 313.828 102.752L313.856 102.808Z" fill="black"/>
<path d="M400.435 51.4602C399.963 51.4046 399.685 51.0431 399.741 50.6537C401.659 35.0791 394.737 28.7936 394.681 28.738C394.376 28.4877 394.348 28.0427 394.626 27.7368C394.876 27.4308 395.321 27.403 395.627 27.6533C395.932 27.9315 403.187 34.4116 401.158 50.7928C401.103 51.1543 400.825 51.4046 400.463 51.4046L400.435 51.4602Z" fill="black"/>
<path d="M418.653 36.4457C418.653 36.4457 418.43 36.4457 418.319 36.3623L397.638 25.6269C397.305 25.4601 397.166 25.0151 397.332 24.6813C397.499 24.3476 397.944 24.2085 398.277 24.3754L418.959 35.1108C419.292 35.2776 419.431 35.7226 419.264 36.0564C419.153 36.3067 418.903 36.4457 418.625 36.4457H418.653Z" fill="black"/>
<path d="M238.19 122.077C238.19 122.077 242.776 100.05 250.087 87.9793C257.398 75.909 262.596 73.4337 264.542 74.2681C266.487 75.1025 263.597 83.6963 263.597 83.6963C263.597 83.6963 270.768 72.5438 274.993 74.435C279.219 76.3262 273.993 86.839 273.993 86.839C273.993 86.839 280.775 79.9139 282.888 83.4182C285.028 86.8947 273.826 105.362 273.826 105.362C273.826 105.362 282.332 98.1306 284 100.801C285.695 103.471 278.468 117.627 273.465 121.242C268.461 124.858 260.039 127.611 260.039 127.611L238.162 122.104L238.19 122.077Z" fill="#C5887B"/>
<path d="M255.34 117.241C255.701 117.519 256.091 117.463 256.313 117.157C265.125 105.643 273.714 106.005 273.797 106.005C274.159 106.005 274.465 105.754 274.492 105.393C274.492 105.031 274.242 104.725 273.881 104.697C273.492 104.697 264.541 104.252 255.284 116.351C255.09 116.601 255.118 116.99 255.34 117.213V117.241Z" fill="black"/>
<path d="M253.059 95.6042C253.059 95.6042 253.226 95.7432 253.337 95.771L273.879 102.057C274.213 102.168 274.574 101.973 274.685 101.612C274.796 101.278 274.602 100.888 274.24 100.805L253.698 94.5195C253.365 94.4083 253.003 94.6029 252.892 94.9645C252.809 95.2148 252.892 95.4651 253.059 95.632V95.6042Z" fill="black"/>
<path d="M297.703 158.817C297.703 158.817 279.051 167.522 272.546 156.37C266.07 145.245 272.546 129.448 272.546 129.448L233.797 115.125C233.797 115.125 202.664 184.07 231.851 201.898C268.238 224.12 307.96 210.52 307.96 210.52L297.703 158.79V158.817Z" fill="#00B5FF"/>
<path d="M325.111 150.242C325.111 150.242 316.049 165.845 299.871 158.892C283.721 151.911 345.626 253.09 345.626 253.09L337.342 164.537L325.084 150.242H325.111Z" fill="#00B5FF"/>
<path d="M260.543 171.956C260.071 171.956 259.57 171.873 259.07 171.706C257.68 171.233 257.291 170.399 257.235 169.759C256.763 165.587 269.605 157.355 272.19 155.77C272.44 155.603 272.774 155.631 273.024 155.825C273.247 156.02 273.33 156.354 273.247 156.632C272.996 157.299 267.215 171.956 260.571 171.956H260.543ZM271.023 158.189C265.213 162.027 258.375 167.423 258.625 169.592C258.625 169.703 258.681 170.093 259.515 170.371C263.879 171.845 268.688 163.39 271.023 158.189Z" fill="white"/>
<path d="M269.793 142.325C269.793 142.325 269.626 142.325 269.543 142.298L228.931 127.474C228.569 127.335 228.375 126.945 228.514 126.556C228.653 126.194 229.07 126 229.431 126.139L270.043 140.963C270.404 141.102 270.599 141.491 270.46 141.88C270.349 142.158 270.071 142.353 269.793 142.353V142.325Z" fill="white"/>
<path d="M423.596 78.1633C423.596 78.1633 423.457 78.1633 423.373 78.1355L374.533 61.6709C374.172 61.5596 373.95 61.1425 374.089 60.7809C374.2 60.4194 374.617 60.2247 374.978 60.3359L423.818 76.8005C424.179 76.9118 424.402 77.3289 424.263 77.6905C424.152 77.9964 423.901 78.1633 423.596 78.1633Z" fill="white"/>
<path d="M278.468 216.846C278.134 216.846 277.856 216.624 277.773 216.29C273.158 195.515 281.581 183.834 281.942 183.333C282.165 183.027 282.609 182.944 282.943 183.194C283.249 183.417 283.332 183.862 283.082 184.195C282.998 184.307 274.687 195.876 279.162 216.012C279.246 216.401 278.996 216.763 278.634 216.846C278.579 216.846 278.523 216.846 278.495 216.846H278.468Z" fill="white"/>
<path d="M308.215 161.365C305.63 161.365 302.767 160.836 299.625 159.529C299.264 159.39 299.097 158.973 299.236 158.611C299.375 158.25 299.792 158.083 300.154 158.222C316.165 164.869 324.17 150.518 324.504 149.906C324.699 149.572 325.115 149.433 325.449 149.628C325.783 149.823 325.922 150.24 325.727 150.574C325.644 150.713 319.751 161.365 308.187 161.365H308.215Z" fill="white"/>
<path d="M174.867 21.0416C173.17 22.1215 171.801 23.7275 170.617 25.3216C169.12 27.339 167.868 29.5423 166.897 31.8523C165.989 34.0081 165.327 36.3301 165.395 38.6837C165.428 39.6845 165.628 40.7169 166.062 41.6267C166.567 42.6868 167.286 43.8695 168.313 44.7318C170.011 46.1558 172.194 46.3338 174.298 45.8829C176.22 45.4715 178.054 44.6527 180.013 44.4114C180.539 44.3481 180.635 44.3363 181.149 44.3916C181.245 44.4035 181.341 44.4193 181.438 44.4352C181.558 44.4549 181.373 44.4233 181.365 44.4193C181.418 44.4312 181.474 44.4431 181.526 44.4589C181.618 44.4866 181.707 44.5182 181.799 44.5459C181.951 44.5934 181.598 44.447 181.743 44.5222C181.803 44.5538 181.867 44.5815 181.927 44.6132C182.076 44.6883 182.08 44.7318 181.935 44.6132C182.02 44.6844 182.124 44.7516 182.216 44.8188C181.951 44.625 182.276 44.8782 182.361 44.9494C182.413 44.9968 182.638 45.1946 182.361 44.9494C182.409 44.9929 182.457 45.0364 182.501 45.0839C182.561 45.1432 182.618 45.2184 182.678 45.2737C182.441 45.0641 182.626 45.2223 182.694 45.3133C182.714 45.341 182.726 45.3726 182.746 45.3964C182.83 45.5071 182.658 45.1986 182.706 45.3252C182.734 45.4003 182.77 45.4834 182.806 45.5546C182.903 45.7524 182.794 45.432 182.818 45.5823C182.83 45.6614 182.85 45.7405 182.858 45.8196C182.866 45.8908 182.866 45.962 182.87 46.0293C182.874 46.1242 182.87 45.9699 182.874 45.966C182.874 46.0174 182.87 46.0688 182.862 46.1202C182.818 46.4486 182.73 46.765 182.598 47.0696C182.561 47.1527 182.606 47.0577 182.61 47.0459C182.59 47.0894 182.569 47.1329 182.545 47.1764C182.505 47.2555 182.465 47.3307 182.421 47.4058C182.321 47.5878 182.208 47.7658 182.092 47.9398C181.851 48.2958 181.586 48.636 181.309 48.9683C180.033 50.4912 178.544 51.8242 177.163 53.2522C175.903 54.5536 174.57 55.9895 173.988 57.73C173.435 59.3834 174.025 61.2782 175.313 62.4411C176.77 63.7583 178.712 64.1499 180.639 64.055C182.345 63.968 184.107 63.4894 185.6 62.6745C186.683 62.0851 187.992 61.112 187.907 59.7434C187.839 58.6358 186.88 57.9119 185.953 57.4491C184.953 56.9507 183.85 56.7292 182.738 56.8281C180.735 57.0061 178.953 58.3273 177.825 59.9135C176.505 61.7766 175.935 64.1302 176.3 66.377C176.73 69.0193 178.395 71.5825 180.607 73.1292C182.385 74.3712 184.476 74.9211 186.539 75.5144C186.996 75.645 187.454 75.7834 187.903 75.9416C188.004 75.9772 188.108 76.0128 188.208 76.0524C188.309 76.0919 188.522 76.1829 188.305 76.088C188.522 76.1829 188.738 76.2779 188.947 76.3886C189.035 76.4361 189.124 76.4875 189.212 76.535C189.469 76.6774 189.075 76.4282 189.256 76.5627C189.336 76.622 189.421 76.6734 189.497 76.7327C189.593 76.804 189.818 77.069 189.601 76.8079C189.661 76.8831 189.746 76.9424 189.81 77.0136C189.89 77.0967 190.011 77.2509 189.866 77.0611C189.926 77.1402 189.986 77.2193 190.043 77.3024C190.075 77.3498 190.271 77.6861 190.159 77.4725C190.621 78.3308 190.721 79.2564 190.673 80.2928C190.645 80.8782 191.082 81.3608 191.592 81.6179C191.885 81.7643 192.824 81.9898 192.852 81.3964C192.92 79.9764 192.76 78.5998 192.045 77.3459C191.447 76.2976 190.488 75.5026 189.433 74.9171C187.438 73.8096 185.09 73.505 182.975 72.6941C182.762 72.611 182.943 72.6782 182.983 72.6941C182.923 72.6664 182.858 72.6427 182.798 72.615C182.662 72.5517 182.525 72.4923 182.389 72.4251C182.268 72.3658 182.152 72.3064 182.036 72.2431C181.963 72.2036 181.891 72.164 181.819 72.1205C181.787 72.1007 181.546 71.9504 181.703 72.0533C181.839 72.1403 181.51 71.9188 181.47 71.8911C181.345 71.8041 181.229 71.7091 181.108 71.6181C181.06 71.5825 180.92 71.4599 181.129 71.6379C181.076 71.5944 181.028 71.5469 180.976 71.4995C180.811 71.3452 180.659 71.187 180.506 71.0208C179.583 70.028 178.861 68.7938 178.568 67.441C178.042 65.0123 178.765 62.4569 180.446 60.6136C181.229 59.7552 182.329 59.0274 183.388 58.7901C184.022 58.6477 184.295 58.6398 184.933 58.7426C184.705 58.707 185.118 58.7901 185.194 58.8138C185.254 58.8336 185.311 58.8573 185.371 58.8731C185.652 58.9483 185.174 58.7663 185.435 58.8969C185.58 58.972 185.724 59.0432 185.869 59.1184C185.6 58.972 186.021 59.2252 186.093 59.2806L185.648 58.8257C185.676 58.8692 185.704 58.9167 185.732 58.9562C185.732 58.9562 185.592 58.7031 185.668 58.8455C185.684 58.8771 185.704 58.9206 185.712 58.9562C185.732 59.063 185.712 58.7189 185.688 58.8771C185.68 58.9364 185.704 59.0393 185.712 59.1026C185.692 58.9048 185.724 59.0353 185.692 59.154C185.672 59.2292 185.648 59.3043 185.628 59.3795C185.58 59.5654 185.7 59.2964 185.588 59.4625C185.483 59.6129 185.391 59.7632 185.271 59.9016C185.206 59.9768 185.134 60.044 185.066 60.1152C185.03 60.1508 184.99 60.1864 184.953 60.222C184.857 60.309 185.102 60.1033 184.937 60.2339C184.757 60.3763 184.572 60.5108 184.38 60.6334C183.946 60.9103 183.485 61.1397 183.011 61.3415C182.425 61.5867 182.112 61.6895 181.494 61.8399C180.932 61.9783 180.362 62.0772 179.784 62.1286C179.656 62.1405 179.527 62.1484 179.399 62.1563C179.314 62.1603 179.23 62.1642 179.142 62.1682C179.178 62.1682 179.322 62.1682 179.138 62.1682C178.849 62.1682 178.56 62.1563 178.271 62.1247C178.151 62.1128 178.03 62.097 177.914 62.0772C177.837 62.0653 177.757 62.0495 177.681 62.0376C177.713 62.0456 177.91 62.097 177.725 62.0456C177.605 62.01 177.476 61.9823 177.356 61.9467C177.308 61.9308 177.26 61.915 177.211 61.8992C176.938 61.8161 177.231 61.915 177.183 61.8992C177.083 61.8517 176.983 61.8082 176.886 61.7607C176.822 61.7291 176.762 61.6895 176.698 61.6539C176.718 61.6658 176.958 61.8399 176.802 61.7133C176.714 61.6421 176.613 61.563 176.517 61.4997C176.846 61.7172 176.537 61.4997 176.437 61.4008C176.256 61.2267 176.545 61.5867 176.389 61.3296C176.344 61.2584 176.176 60.9261 176.296 61.1991C176.244 61.0843 176.188 60.9696 176.144 60.851C176.124 60.8035 176.108 60.7521 176.092 60.7046C176.035 60.5385 176.108 60.8233 176.063 60.5899C176.019 60.3565 175.983 60.1152 175.967 59.87C175.951 59.6445 175.943 59.8977 175.975 59.6722C175.991 59.5416 176.007 59.4151 176.035 59.2885C176.152 58.7387 176.308 58.4064 176.553 57.9752C177.841 55.7047 179.973 53.9445 181.783 52.0972C183.192 50.6613 185.287 48.6835 185.046 46.4802C184.986 45.9383 184.757 45.4043 184.444 44.9573C184.267 44.7081 184.062 44.4708 183.842 44.2571C183.737 44.1583 183.252 43.7311 183.565 44.0079C183.372 43.8379 183.179 43.6599 182.971 43.5056C181.807 42.6512 180.414 42.3703 178.989 42.4929C176.389 42.7184 174.025 44.0871 171.404 44.2136C171.211 44.2215 171.336 44.2136 171.376 44.2136C171.283 44.2136 171.195 44.2136 171.103 44.2097C170.966 44.2057 170.834 44.1939 170.701 44.178C170.629 44.1701 170.553 44.1583 170.481 44.1503C170.2 44.1147 170.621 44.1859 170.453 44.1503C170.292 44.1147 170.143 44.0554 169.983 44.0159C169.706 43.9447 170.139 44.091 169.979 44.0159C169.911 43.9842 169.842 43.9526 169.774 43.9209C169.722 43.8932 169.67 43.8616 169.614 43.8339C169.345 43.7073 169.814 44.0079 169.582 43.8141C169.521 43.7627 169.212 43.5293 169.329 43.6282C169.485 43.7627 169.24 43.5412 169.232 43.5333C169.156 43.4581 169.088 43.383 169.016 43.3078C168.787 43.0586 169.096 43.4186 168.968 43.2524C168.911 43.1773 168.851 43.1021 168.799 43.023C168.683 42.8569 168.574 42.6907 168.474 42.5127C168.394 42.3703 168.329 42.2319 168.233 42.0539C168.024 41.6623 168.313 42.224 168.169 41.9352C168.129 41.8521 168.089 41.7691 168.048 41.686C167.78 41.0847 167.691 40.6971 167.615 39.997C167.294 37.0263 168.518 33.8618 169.855 31.2353C171.191 28.6087 173.025 25.8161 175.305 23.7315C175.67 23.3992 176.076 23.0748 176.545 22.7742C177.5 22.169 175.666 20.5076 174.847 21.0298L174.867 21.0416Z" fill="#7FC5FA"/>
<path d="M283.952 -0.491799C280.78 -0.865215 277.349 0.446424 274.647 1.97654C271.944 3.50666 268.957 5.97342 268.282 9.26933C267.948 10.9058 268.259 12.7934 268.721 14.3775C269.237 16.1472 270.054 17.8234 271.177 19.2898C272.896 21.5416 275.308 23.2533 278.111 23.8257C280.251 24.2646 282.755 23.9752 284.452 22.5082C285.33 21.7499 285.943 20.7892 286.27 19.6777C286.466 19.0224 286.578 18.3609 286.6 17.6772C286.643 16.2904 285.964 15.1289 284.907 14.2555C282.026 11.8932 278.381 11.3417 275.061 13.1125C271.951 14.7733 269.581 17.8633 268.302 21.095C266.884 24.6815 266.755 28.7507 268.715 32.1842C269.775 34.0344 271.279 35.5963 273.231 36.5022C275.4 37.5126 277.831 37.7818 280.193 37.7011C281.595 37.6546 283.141 37.5979 284.5 37.2185C285.08 37.0558 285.617 36.6982 285.836 36.1181C286.215 35.1123 285.76 33.9002 285.296 33.0008C284.811 32.0537 284.106 31.1789 283.273 30.5115C281.77 29.3057 279.805 28.5859 277.866 28.7526C275.296 28.9763 273.275 30.5416 271.836 32.6036C269.61 35.8021 268.793 39.8009 269.625 43.6121C270.458 47.4234 272.982 51.2089 276.813 52.4917C278.752 53.1421 280.775 53.0478 282.749 52.6047C283.584 52.4162 282.17 48.9251 280.956 49.2031C278.602 49.7356 275.922 49.6463 273.882 48.2047C273.46 47.9087 273.171 47.6312 272.883 47.3011C272.799 47.2093 272.724 47.114 272.648 47.0187C272.696 47.0834 272.805 47.2446 272.6 46.9403C272.526 46.8392 272.461 46.7347 272.396 46.6302C272.603 46.9482 272.296 46.446 272.285 46.4221C271.988 45.8582 271.714 44.9998 271.601 43.9473C271.343 41.5333 271.978 39.138 273.121 37.0199C273.975 35.4413 275.108 33.9782 276.689 33.0655C277.826 32.4081 279.098 32.1 280.414 32.2242C281.623 32.3331 282.424 32.639 283.439 33.2982C283.126 33.0973 283.48 33.3276 283.55 33.3876C283.646 33.4645 283.745 33.5493 283.839 33.632C283.964 33.7338 284.127 33.9951 283.843 33.6205C283.918 33.7159 284.009 33.8236 284.097 33.904C284.295 34.0932 283.806 33.4941 284.028 33.8246C284.161 34.028 283.75 33.3142 283.934 33.6758C284.07 33.9396 283.732 33.2082 283.812 33.4108C283.845 33.4961 283.931 33.6154 283.791 33.3299C283.664 33.0763 283.735 33.15 283.761 33.2525C283.835 33.5384 283.704 32.9072 283.725 33.0736C283.762 33.3518 283.732 33.004 283.732 33.004C283.719 33.1239 283.638 33.2968 283.751 33.0244C283.693 33.1731 283.624 33.298 283.52 33.4288C283.649 33.2682 283.331 33.5591 283.222 33.6158C283.022 33.7222 282.81 33.7911 282.59 33.844C280.858 34.2626 278.89 34.2994 277.113 34.2196C275.748 34.1551 274.141 33.911 273.003 33.4672C272.451 33.252 271.915 32.9967 271.411 32.6751C271.346 32.6368 270.958 32.3599 271.258 32.5758C271.16 32.5046 271.058 32.4254 270.962 32.3485C270.866 32.2716 270.77 32.1947 270.683 32.1143C270.54 31.9863 270.314 31.7335 270.581 32.0351C270.423 31.8616 270.271 31.6242 270.091 31.4749C270.175 31.5473 270.309 31.7974 270.095 31.4634C270.066 31.4191 270.033 31.3669 269.999 31.3203C269.778 31.0035 270.132 31.4381 270.081 31.4647L269.92 31.1645C269.682 30.7223 269.974 31.2315 269.948 31.2476C269.892 31.272 269.587 30.0988 269.795 30.8916C269.733 30.6432 269.657 30.3961 269.597 30.1421C269.504 29.7696 269.608 30.3177 269.594 30.1147C269.584 29.9721 269.548 29.8263 269.531 29.6815C269.504 29.4466 269.49 29.2105 269.476 28.9744C269.463 28.7189 269.467 28.7074 269.47 28.8204C269.469 28.6686 269.475 28.5191 269.48 28.3695C269.504 27.8319 269.567 27.2962 269.661 26.7661C269.711 26.5021 269.761 26.2381 269.828 25.9809C269.914 25.606 269.905 25.6483 270.009 25.3132C270.685 23.1185 271.847 21.0538 273.362 19.3245C274.7 17.7961 276.525 16.4251 278.551 15.7979C280.577 15.1707 282.627 15.4825 284.356 16.5189C284.491 16.5978 284.617 16.6802 284.742 16.7683C284.789 16.8 284.944 16.913 284.721 16.7537C284.778 16.7955 284.834 16.8373 284.891 16.8791C285.154 17.0872 285.412 17.2931 285.657 17.5139L284.382 14.7693C284.376 17.1464 283.279 19.1969 280.998 20.0872C278.835 20.9311 276.302 20.5166 274.292 19.4365C273.657 19.0964 273.358 18.8943 272.825 18.4428C272.696 18.333 272.574 18.2197 272.447 18.1042C272.393 18.0567 272.341 18.0034 272.289 17.9502C272.307 17.9706 272.445 18.11 272.319 17.9751C272.202 17.8504 272.085 17.7257 271.972 17.5895C271.895 17.4999 271.572 17.0709 271.792 17.374C271.689 17.2287 271.587 17.0833 271.49 16.9402C271.449 16.8777 271.409 16.8096 271.367 16.7471C271.374 16.763 271.54 17.0517 271.43 16.8573C271.34 16.6971 271.258 16.5333 271.168 16.3731C271.149 16.339 271.035 16.1036 271.136 16.3208C271.256 16.5721 271.071 16.1638 271.05 16.116C270.989 15.9669 270.93 15.8122 270.877 15.6596C270.754 15.3284 270.843 15.5606 270.869 15.63C270.847 15.5491 270.82 15.466 270.799 15.3852C270.679 14.9432 270.614 14.6869 270.564 14.3381C270.331 12.7775 270.467 11.4266 271.268 10.0515C272.128 8.57439 273.408 7.39902 274.796 6.41802C276.45 5.25026 278.291 4.33336 280.21 3.69093C281.847 3.14294 283.608 2.75497 285.341 2.96288C286.108 3.051 285.672 1.65504 285.551 1.33752C285.316 0.732089 284.737 -0.416365 283.973 -0.510206L283.952 -0.491799Z" fill="#7FC5FA"/>
<path d="M308.349 83.379L305.719 78.1082C306.592 77.6763 307.544 74.82 308.172 72.9453L313.755 74.8102C312.598 78.275 311.41 81.8576 308.358 83.3888L308.349 83.379Z" fill="#7FC5FA"/>
<path d="M231.806 47.0587L229.176 41.7879C230.049 41.356 231.001 38.4997 231.629 36.625L237.212 38.4899C236.055 41.9547 234.867 45.5373 231.815 47.0685L231.806 47.0587Z" fill="#7FC5FA"/>
<path d="M184.702 100.066L182.072 94.7957C182.946 94.3638 183.897 91.5075 184.525 89.6328L190.109 91.4977C188.951 94.9625 187.764 98.5451 184.712 100.076L184.702 100.066Z" fill="#7FC5FA"/>
<path d="M330.788 40.5568L327.303 37.0879C328.393 36.0093 329.6 35.0103 330.776 34.042C333.116 32.1176 335.32 30.2974 336.761 27.7969L341.041 30.23C339.156 33.5088 336.373 35.8009 333.916 37.8234C332.783 38.7549 331.712 39.6375 330.788 40.5568Z" fill="#7FC5FA"/>
<path d="M200.278 61.1701L196.793 57.7012C197.883 56.6226 199.09 55.6236 200.266 54.6553C202.606 52.7309 204.81 50.9107 206.251 48.4102L210.531 50.8432C208.647 54.1221 205.863 56.4142 203.406 58.4367C202.273 59.3682 201.202 60.2508 200.278 61.1701Z" fill="#7FC5FA"/>
<path d="M265.477 57.2163L270.148 58.7517C269.658 60.2049 269.028 61.6394 268.411 63.0327C267.183 65.8028 266.03 68.4189 265.864 71.3003L260.948 71.047C261.161 67.2711 262.62 63.9733 263.908 61.0631C264.503 59.722 265.064 58.4524 265.477 57.2163Z" fill="#7FC5FA"/>
<path d="M347.752 85.8913C343.076 84.4895 340.98 91.6668 345.558 93.3139C350.787 95.0661 353.234 87.0478 347.752 85.8913Z" fill="#7FC5FA"/>
<path d="M207.424 20.1257C202.748 18.7239 200.652 25.9011 205.229 27.5482C210.459 29.3005 212.906 21.2822 207.424 20.1257Z" fill="#7FC5FA"/>
<path d="M157.383 73.1257C152.707 71.7239 150.611 78.9011 155.188 80.5482C160.418 82.3005 162.865 74.2822 157.383 73.1257Z" fill="#7FC5FA"/>
<path d="M140.578 56.2649L135.953 53.5495C137.922 50.3399 139.958 46.3658 141.92 42.5234L146.747 44.8829C144.738 48.8175 142.655 52.8839 140.578 56.2649Z" fill="#7FC5FA"/>
<path d="M307.262 42.7808C306.021 45.503 305.188 48.5991 306.113 51.5457C307.112 54.7167 309.519 57.2777 312.173 59.1768C314.448 60.8055 317.044 61.968 319.571 63.142C320.835 63.729 322.105 64.3218 323.34 64.9663C323.409 65.0009 323.477 65.0412 323.546 65.0757C323.885 65.2541 323.357 64.9721 323.569 65.0872C323.724 65.1735 323.88 65.2541 324.029 65.3404C324.333 65.5131 324.632 65.6857 324.931 65.8641C325.189 66.0195 325.448 66.1864 325.706 66.3533C325.85 66.4454 325.988 66.5432 326.125 66.6353C326.2 66.6871 326.688 67.0324 326.436 66.8482C326.183 66.6641 326.66 67.0209 326.729 67.0727C326.855 67.1763 326.987 67.2799 327.108 67.3834C327.2 67.4583 327.401 67.7115 327.516 67.7402C327.257 67.6712 327.165 67.4007 327.383 67.6251C327.447 67.6885 327.51 67.7518 327.573 67.8093C327.625 67.8611 327.671 67.9129 327.722 67.9589C328.021 68.2582 327.694 67.9589 327.602 67.8208C327.694 67.9647 327.837 68.0913 327.946 68.2179C328.32 68.6553 327.63 67.7633 327.958 68.2352C327.998 68.2927 328.038 68.3503 328.078 68.4078C328.262 68.661 328.09 68.6323 328.01 68.2927C328.044 68.4366 328.205 68.615 328.279 68.7416C328.314 68.8049 328.343 68.8682 328.383 68.9258C328.572 69.2538 328.211 68.5229 328.354 68.874C328.423 69.0351 328.504 69.1963 328.567 69.3632C328.607 69.4552 328.785 69.9847 328.664 69.6049C328.894 70.33 329.038 71.0724 329.101 71.832C329.181 72.7816 330.25 73.8348 330.939 74.3988C331.347 74.7326 332.289 75.3656 332.208 74.4045C331.651 67.8841 325.672 63.6082 320.307 60.9494C319.054 60.3278 317.779 59.7466 316.516 59.1538C315.889 58.8603 315.269 58.5668 314.649 58.2618C314.356 58.1179 314.057 57.9683 313.77 57.8186C313.615 57.7381 313.465 57.6575 313.31 57.5769C313.632 57.7496 313.138 57.4791 313.052 57.4331C312.506 57.128 311.966 56.8058 311.444 56.4605C311.311 56.3741 311.174 56.2821 311.041 56.19C310.938 56.1152 310.473 55.7641 310.955 56.1324C310.708 55.9425 310.461 55.7526 310.226 55.5512C310.128 55.4706 310.03 55.3497 309.921 55.2807C310.427 55.5915 310.14 55.4821 309.967 55.3095C309.864 55.2059 309.76 55.0965 309.657 54.9872C309.835 55.1656 310.007 55.3728 309.68 54.9987C309.335 54.6016 309.783 55.1426 309.755 55.1023C309.692 55.0045 309.594 54.826 309.502 54.7455C309.502 54.7455 309.801 55.2404 309.646 54.9699C309.617 54.9124 309.577 54.8606 309.548 54.803C309.462 54.6534 309.266 54.1642 309.491 54.7225C309.433 54.5728 309.353 54.429 309.289 54.2851C309.249 54.1872 309.083 53.6808 309.209 54.1009C309.117 53.7959 309.031 53.4966 308.974 53.1801C308.836 52.4607 308.818 52.0579 308.876 51.258C309.002 49.3933 309.628 47.5978 310.398 45.9058C310.513 45.6526 310.134 44.9908 310.036 44.8239C309.749 44.3174 309.358 43.834 308.945 43.4254C308.646 43.1261 307.572 42.0557 307.25 42.7578L307.262 42.7808Z" fill="#7FC5FA"/>
</g>
</svg>
