<svg width="402" height="300" viewBox="0 0 402 300" fill="none" xmlns="http://www.w3.org/2000/svg">
<path d="M309.284 299.849H92.1778C89.8291 285.191 106.667 275.518 118.311 266.274C132.701 254.851 142.758 234.943 135.48 218.106C132.701 211.635 127.673 206.385 122.182 201.961C100.58 184.563 71.0395 178.323 51.3898 158.779C36.8345 144.318 29.4576 124.081 25.6533 103.942C23.3046 91.4623 22.1799 78.4546 25.2564 66.1072C28.3328 53.7929 36.1729 42.1388 47.7841 36.9555C63.828 29.7914 82.4522 36.0972 98.6285 42.9972C114.805 49.8972 132.47 57.5235 149.374 52.7034C168.097 47.3551 219.802 -37.5249 267.967 19.7881C282.555 37.1536 296.846 37.8799 325.758 37.8799C346.499 37.8799 358.143 69.2766 355.298 86.18C352.454 103.083 340.71 118.567 331.448 132.994C324.666 143.526 316.925 154.751 317.653 167.263C318.646 184.596 334.855 196.382 345.441 210.182C357.548 225.963 362.775 247.587 356.291 266.373C349.807 285.158 329.099 301.764 309.284 299.849Z" fill="#E5F0F9"/>
<path d="M259.119 85.0898L240.029 121.468L285.354 90.9092L259.119 85.0898Z" fill="#ED2B41"/>
<path d="M282.701 102.849C313.325 102.849 338.15 85.8693 338.15 64.9243C338.15 43.9793 313.325 27 282.701 27C252.077 27 227.252 43.9793 227.252 64.9243C227.252 85.8693 252.077 102.849 282.701 102.849Z" fill="#ED2B41"/>
<ellipse cx="282.386" cy="65.1342" rx="20.1342" ry="20.1342" fill="white"/>
<rect x="279.869" y="55.0664" width="4.5302" height="15.8557" rx="2.2651" fill="#ED2B41"/>
<circle cx="282.134" cy="75.4526" r="2.2651" fill="#ED2B41"/>
<path d="M148.55 140.307C148.55 140.307 188.393 143.265 203.338 159.316C218.283 175.392 198.521 276.138 197.476 277.52C196.403 278.926 182.676 284.333 134.33 283.436C85.9547 282.539 70.6615 280.696 69.0654 278.514C67.4693 276.356 54.4106 161.159 66.1635 151.533C77.9163 141.907 119.414 137.349 148.55 140.307Z" fill="#0072C8"/>
<path d="M124.807 119.625L125.387 145.604C125.387 145.604 130.233 152.964 145.41 153.866C156.728 154.535 160.646 151.888 160.646 151.888L158.788 138.767L156.96 125.967L129.45 120.527L124.807 119.625Z" fill="#F8AFB8"/>
<path d="M129.424 120.527C129.511 121.226 129.801 122.069 130.236 123.029C136.33 135.888 152.233 138.332 158.762 138.768L156.934 125.968L129.424 120.527Z" fill="black"/>
<path d="M161.39 66.6219C161.39 66.6219 175.697 98.8847 170.764 117.096C165.801 135.308 149.26 132.573 139.365 129.111C129.469 125.649 124.826 119.627 124.826 119.627C124.826 119.627 115.627 122.827 109.388 114.274C103.148 105.721 106.892 95.801 112.144 93.5027C117.397 91.2045 123.694 94.9864 123.694 94.9864L118.703 85.6188C118.703 85.5898 139.045 37.6465 161.39 66.6219Z" fill="#F8AFB8"/>
<path d="M160.181 107.695C160.094 107.695 159.977 107.695 159.89 107.636C159.368 107.491 159.078 106.938 159.252 106.414C161.109 100.422 156.64 93.9632 156.582 93.905C156.263 93.4686 156.379 92.8577 156.814 92.5377C157.25 92.2177 157.859 92.334 158.178 92.7704C158.381 93.0613 163.228 100.072 161.109 106.967C160.993 107.433 160.616 107.695 160.181 107.695Z" fill="black"/>
<path d="M122.313 110.084C122.052 110.084 121.791 109.968 121.617 109.764L112.853 100.455C112.476 100.048 112.505 99.4368 112.882 99.0586C113.259 98.6804 113.898 98.7095 114.275 99.0877L123.039 108.397C123.416 108.804 123.387 109.415 123.01 109.793C122.806 109.997 122.545 110.084 122.313 110.084Z" fill="black"/>
<path d="M113.025 107.584C112.561 107.584 112.125 107.235 112.067 106.74C111.98 106.217 112.357 105.722 112.88 105.635L118.945 104.704C119.496 104.617 119.99 104.995 120.048 105.519C120.135 106.042 119.757 106.537 119.235 106.624L113.17 107.555C113.112 107.584 113.083 107.584 113.025 107.584Z" fill="black"/>
<path d="M318.189 209.341L319.118 203.552C319.118 203.552 341.318 186.621 354.957 181.035C360.703 178.679 368.741 180.657 361.951 188.279C358.294 192.381 356.466 197.297 356.466 197.297C356.466 197.297 367.435 193.836 374.951 188.832C379.769 185.632 386.82 172.773 390.941 175.566C397.5 179.988 389.954 192.555 389.954 192.555C389.954 192.555 393.379 176.642 399.85 182.868C406.321 189.064 388.678 220.28 380.262 227.757C371.846 235.204 327.534 243.903 327.534 243.903L318.189 209.341Z" fill="#F8AFB8"/>
<path d="M364.914 204.079C364.421 204.079 363.986 203.701 363.957 203.206C363.899 202.654 364.305 202.188 364.827 202.13C374.462 201.17 383.69 192.588 383.777 192.5C384.183 192.151 384.793 192.151 385.17 192.53C385.547 192.908 385.518 193.548 385.141 193.926C384.735 194.304 375.361 203.061 365.059 204.079C364.972 204.079 364.943 204.079 364.914 204.079Z" fill="black"/>
<path d="M376.409 211.288C376.235 211.288 376.061 211.23 375.916 211.143L356.473 199.332C356.009 199.041 355.863 198.459 356.154 197.994C356.444 197.528 357.024 197.383 357.489 197.674L376.351 209.165L385.086 202.59C385.521 202.27 386.131 202.357 386.45 202.794C386.769 203.23 386.682 203.841 386.247 204.161L376.99 211.114C376.815 211.23 376.612 211.288 376.409 211.288Z" fill="black"/>
<path d="M339.034 210.94C338.628 210.94 338.221 210.678 338.105 210.242C337.931 209.718 338.221 209.165 338.744 209.02C349.307 205.674 356.184 197.936 356.242 197.848C356.591 197.441 357.229 197.412 357.606 197.761C358.013 198.11 358.042 198.721 357.693 199.129C357.403 199.478 350.41 207.362 339.295 210.882C339.208 210.911 339.121 210.94 339.034 210.94Z" fill="black"/>
<path d="M198.369 158.141C198.369 158.141 243.523 198.142 279.972 200.498C297.558 201.633 321.121 193.225 321.121 193.225L342.073 248.18C342.073 248.18 268.422 318.146 193.378 263.017C171.816 247.132 198.369 158.141 198.369 158.141Z" fill="#0072C8"/>
<path d="M149.157 152.117L164.363 253.095H152.233L141.438 153.746L149.157 152.117Z" fill="#D8E0E6"/>
<path d="M330.5 257.807L341.15 254.228C342.543 253.763 343.297 252.25 342.833 250.883L323.448 192.641C322.984 191.245 321.475 190.488 320.111 190.954L309.461 194.532C308.068 194.997 307.313 196.51 307.778 197.878L327.163 256.119C327.598 257.516 329.107 258.272 330.5 257.807Z" fill="#D8E0E6"/>
<path d="M132.387 287.566C132.387 287.566 156.328 297.254 161.058 296.613C165.788 295.973 182.851 294.053 183.548 290.446L177.135 279.42C177.135 279.42 186.682 283.435 193.124 280.06C199.596 276.715 207.344 269.965 208.911 264.787C210.478 259.638 203.049 260.656 203.049 260.656C203.049 260.656 211.465 255.39 200.785 250.91C190.077 246.401 143.849 239.739 124.609 251.841C105.311 264.002 132.387 287.566 132.387 287.566Z" fill="#F8AFB8"/>
<path d="M203.046 261.679C202.93 261.679 202.842 261.65 202.726 261.621C191.612 257.839 179.743 259.468 179.627 259.468C179.105 259.526 178.611 259.177 178.524 258.624C178.437 258.101 178.814 257.606 179.366 257.519C179.859 257.431 191.815 255.802 203.365 259.759C203.887 259.933 204.148 260.486 203.974 261.01C203.829 261.446 203.452 261.679 203.046 261.679Z" fill="black"/>
<path d="M71.2679 150.285C71.2679 150.285 -13.5849 209.952 2.86915 266.187C16.9726 314.421 148.198 295.773 148.198 295.773L146.718 238.491L75.94 227.378L71.2679 150.285Z" fill="#0072C8"/>
<path d="M135.838 299.524H147.069C148.52 299.524 149.709 298.331 149.709 296.877V235.464C149.709 234.009 148.52 232.816 147.069 232.816H135.838C134.387 232.816 133.197 234.009 133.197 235.464V296.877C133.197 298.331 134.358 299.524 135.838 299.524Z" fill="#D8E0E6"/>
<path d="M159.253 142.086C159.253 142.086 167.495 169.839 164.738 169.286C161.952 168.734 145.44 153.868 145.44 153.868C145.44 153.868 132.41 170.043 128.464 170.13C124.517 170.247 124.836 139.555 124.836 139.555C124.836 139.555 128.203 148.893 142.799 150.988C157.396 153.082 159.253 142.086 159.253 142.086Z" fill="#E6F4FF"/>
<path d="M142.744 82.6484C142.28 82.6484 141.874 82.3284 141.787 81.8629C141.7 81.3393 142.048 80.8156 142.57 80.7283L149.825 79.361C150.347 79.2737 150.87 79.6228 150.957 80.1465C151.044 80.6702 150.696 81.1938 150.173 81.2811L142.919 82.6484C142.86 82.6484 142.802 82.6484 142.744 82.6484Z" fill="black"/>
<path d="M165.29 81.277C165.203 81.277 165.087 81.277 165 81.2188L160.357 79.7642C159.835 79.5896 159.544 79.066 159.719 78.5423C159.864 78.0187 160.415 77.7278 160.937 77.9023L165.581 79.3569C166.103 79.5315 166.393 80.0551 166.219 80.5788C166.074 81.0151 165.697 81.277 165.29 81.277Z" fill="black"/>
<path d="M183.836 289.089H307.197L342.427 209.203H223.912C220.952 209.203 218.282 210.949 217.092 213.654L183.836 289.089Z" fill="white"/>
<path d="M194.545 289.089H317.906L349.335 217.785C351.105 213.741 348.174 209.203 343.763 209.203H229.774L194.545 289.089Z" fill="#0091CD"/>
<path d="M142.484 299.183H316.629C319.415 299.183 321.649 296.914 321.649 294.15C321.649 291.357 319.386 289.117 316.629 289.117H142.484C139.698 289.117 137.463 291.386 137.463 294.15C137.434 296.914 139.698 299.183 142.484 299.183Z" fill="black"/>
<path d="M272.197 259.641C277.982 259.641 282.673 254.939 282.673 249.139C282.673 243.339 277.982 238.637 272.197 238.637C266.411 238.637 261.721 243.339 261.721 249.139C261.721 254.939 266.411 259.641 272.197 259.641Z" fill="white"/>
<path d="M163.404 94.1935C162.939 94.1935 162.504 93.8444 162.446 93.3499L161.575 87.3279C161.546 87.066 161.605 86.7751 161.779 86.5715L163.926 83.9823C164.274 83.575 164.884 83.5168 165.29 83.8659C165.696 84.215 165.754 84.826 165.406 85.2333L163.549 87.5024L164.361 93.088C164.448 93.6117 164.071 94.1063 163.549 94.1935C163.52 94.1935 163.462 94.1935 163.404 94.1935Z" fill="black"/>
<path d="M146.915 95.4475C146.451 95.4475 146.016 95.0984 145.958 94.6038L145.087 88.5818C145.058 88.32 145.116 88.029 145.29 87.8254L147.438 85.2362C147.786 84.8289 148.395 84.7707 148.802 85.1199C149.208 85.469 149.266 86.0799 148.918 86.4872L147.061 88.7563L147.873 94.342C147.96 94.8656 147.583 95.3602 147.061 95.4475C147.031 95.4475 146.973 95.4475 146.915 95.4475Z" fill="black"/>
<path d="M198.14 252.807C197.646 252.807 197.211 252.429 197.182 251.905C196.108 239.105 193.961 215.046 193.961 215.046L195.905 214.871C195.905 214.871 198.053 238.959 199.126 251.76C199.184 252.312 198.778 252.778 198.227 252.807C198.198 252.807 198.169 252.807 198.14 252.807Z" fill="white"/>
<path d="M119.088 231.251C118.653 231.193 86.4704 227.091 73.8179 228.488C73.2665 228.517 72.8022 228.167 72.7442 227.615C72.6861 227.091 73.0634 226.597 73.6148 226.538C86.4994 225.142 117.898 229.128 119.233 229.302C119.756 229.36 120.133 229.855 120.075 230.408C119.988 230.902 119.582 231.251 119.088 231.251Z" fill="#E6F4FF"/>
<path d="M125.938 98.0085C125.938 98.0085 134.527 91.841 133.773 82.8807C133.018 73.8914 130.987 71.6513 130.987 71.6513C130.987 71.6513 140.273 71.5058 150.749 69.4403C156.437 68.3348 161.37 66.6184 161.37 66.6184L164.33 74.0659C166.913 73.8914 170.802 54.458 163.866 47.9415C158.991 43.3741 139.316 53.0325 139.316 53.0325C139.316 53.0325 117.29 48.436 104.898 64.3492C92.5072 80.2625 107.307 98.2994 107.307 98.2994C107.307 98.2994 110.935 90.1828 125.938 98.0085Z" fill="black"/>
<path d="M150 57.3092C150 57.3092 155.426 41.5414 144.109 39.0395C132.791 36.5376 123.708 50.6471 123.708 50.6471C123.708 50.6471 123.36 42.8505 114.973 45.527C106.558 48.2034 99.1577 73.106 103.307 74.9679C107.486 76.8007 150 57.3092 150 57.3092Z" fill="black"/>
<path d="M155.103 112.47C155.306 112.354 155.538 112.238 155.77 112.15C159.775 110.55 163.373 113.401 163.518 113.518C163.779 113.721 163.896 114.041 163.867 114.361C163.838 114.681 163.663 114.972 163.373 115.147L153.652 120.82C153.361 120.994 153.013 120.994 152.723 120.849C152.433 120.703 152.23 120.412 152.201 120.063C152.172 119.801 151.678 114.478 155.103 112.47ZM160.965 114.274C159.862 113.75 158.179 113.285 156.496 113.983C154.783 114.681 154.29 116.747 154.174 118.26L160.965 114.274Z" fill="black"/>
</svg>
