<svg width="342" height="300" viewBox="0 0 342 300" fill="none" xmlns="http://www.w3.org/2000/svg">
<path d="M44.0173 265.41H231.756C233.787 252.435 219.226 243.873 209.157 235.691C196.714 225.58 188.018 207.959 194.311 193.055C196.714 187.328 201.062 182.681 205.81 178.765C224.49 163.365 250.035 157.842 267.026 140.542C279.613 127.743 285.992 109.829 289.281 92.0036C291.312 80.9575 292.285 69.4438 289.625 58.5146C286.964 47.6145 280.185 37.299 270.144 32.711C256.271 26.3698 240.166 31.9513 226.178 38.0588C212.189 44.1663 196.914 50.9167 182.297 46.6502C166.106 41.9162 121.395 -33.2151 79.7456 17.5153C67.1306 32.8864 54.773 33.5293 29.7717 33.5293C11.836 33.5293 1.76685 61.3199 4.22693 76.2819C6.687 91.2438 16.842 104.949 24.8515 117.719C30.7157 127.041 37.4094 136.977 36.7801 148.053C35.9219 163.394 21.9052 173.827 12.7514 186.042C2.28175 200.01 -2.23793 219.151 3.36876 235.779C8.97545 252.406 26.8825 267.105 44.0173 265.41Z" fill="#D8E0E6"/>
<path d="M89.4729 299.045H264.453C266.346 286.952 252.775 278.972 243.39 271.346C231.792 261.922 223.687 245.498 229.553 231.607C231.792 226.269 235.845 221.938 240.271 218.289C257.681 203.935 281.49 198.787 297.327 182.663C309.058 170.734 315.003 154.037 318.069 137.423C319.962 127.128 320.869 116.396 318.389 106.21C315.91 96.0506 309.591 86.4361 300.233 82.1599C287.302 76.2496 272.291 81.4518 259.254 87.1443C246.216 92.8367 231.979 99.1284 218.355 95.1518C203.265 90.7395 161.592 20.7141 122.773 67.9969C111.015 82.3234 99.4976 82.9226 76.1954 82.9226C59.4786 82.9226 50.0937 108.825 52.3866 122.77C54.6795 136.715 64.1444 149.489 71.6096 161.391C77.0752 170.08 83.314 179.34 82.7275 189.663C81.9276 203.962 68.8635 213.686 60.3317 225.071C50.5736 238.09 46.3611 255.93 51.5867 271.427C56.8124 286.925 73.5026 300.625 89.4729 299.045Z" fill="#D8E0E6"/>
<mask id="mask0_5519_52796" style="mask-type:alpha" maskUnits="userSpaceOnUse" x="29" y="51" width="284" height="249">
<path d="M29.7676 51.668H312.394V299.996H29.7676V51.668Z" fill="#D9D9D9"/>
</mask>
<g mask="url(#mask0_5519_52796)">
<path d="M249.295 78.3242C250.293 80.1221 255.914 95.1852 249.125 110.37C242.336 125.554 225.521 114.986 225.521 114.986V86.9491L249.295 78.3242Z" fill="#F48462"/>
<path d="M190.313 204.321C190.313 204.321 213.795 209.083 232.945 196.911C252.096 184.739 246.913 110.371 246.913 110.371H217.396L200.047 151.187L190.289 204.346L190.313 204.321Z" fill="#F8AFB8"/>
<path d="M176.349 247.395C176.349 247.395 208.688 298.561 227.862 380.461C245.358 455.169 249.13 516.952 249.13 516.952H173.477C173.477 516.952 165.058 456.044 162.819 431.943C160.581 407.842 153.11 375.578 153.11 375.578C153.11 375.578 142.72 514.596 140.262 516.952C137.805 519.309 65.3643 517.463 66.143 514.28C66.9216 511.097 81.3999 291.88 83.3709 276.671C89.4056 229.951 176.349 247.395 176.349 247.395V247.395Z" fill="#00A1E4"/>
<path d="M119.651 131.145C119.651 131.145 97.3372 131.072 85.2922 142.782C73.2472 154.493 83.3699 269.167 83.3699 269.167C83.3699 269.167 125.004 274.05 147.78 269.167C170.556 264.284 184.67 254.347 184.67 254.347C184.67 254.347 177.321 147.982 171.043 136.709C164.789 125.436 119.651 131.145 119.651 131.145V131.145Z" fill="#005491"/>
<path d="M115.246 122.957L115.368 137.364C115.368 137.364 120.867 141.907 127.851 141.907C137.268 141.907 140.455 134.643 140.455 134.643L140.09 117.758L115.246 122.957Z" fill="#F8AFB8"/>
<path d="M115.245 122.562C115.245 122.562 120.939 134.224 131.573 132.45C140.162 131.017 140.065 118.918 140.065 118.918L115.221 122.562H115.245Z" fill="black"/>
<path d="M143.691 81.0406C143.691 81.0406 149.117 106.745 140.917 119.209C132.741 131.696 121.766 128.246 116.802 124.578C110.111 119.622 108.651 112.625 108.651 112.625C108.651 112.625 99.623 114.568 96.4597 107.255C93.1504 99.5536 98.6984 93.2125 103.224 92.7509C107.75 92.3136 108.286 93.1154 108.286 93.1154L106.826 84.8549C106.826 84.8549 133.884 53.8054 143.691 81.0406V81.0406Z" fill="#F8AFB8"/>
<path d="M139.533 93.1882C139.533 93.1882 153.184 87.0901 154.425 97.7072C155.861 110.001 141.139 110.365 141.139 110.365L139.533 93.1882Z" fill="#F8AFB8"/>
<path d="M146.563 104.196C146.417 104.196 146.295 104.171 146.149 104.098C145.736 103.88 145.59 103.37 145.833 102.957L150.286 95.0362C150.505 94.6232 151.016 94.5017 151.43 94.7204C151.843 94.939 151.989 95.4492 151.746 95.8623L147.293 103.783C147.147 104.05 146.855 104.22 146.563 104.22V104.196Z" fill="black"/>
<path d="M107.022 105.122C106.827 105.122 106.633 105.049 106.487 104.927L99.3813 99.0479C99.0163 98.7563 98.9676 98.2218 99.284 97.8574C99.576 97.493 100.111 97.4444 100.476 97.7602L107.582 103.64C107.947 103.931 107.995 104.466 107.679 104.83C107.509 105.025 107.265 105.122 107.022 105.122Z" fill="black"/>
<path d="M100.572 106.337C100.328 106.337 100.085 106.215 99.9146 106.021C99.6226 105.657 99.6956 105.122 100.061 104.855L104.149 101.672C104.514 101.381 105.049 101.453 105.317 101.818C105.609 102.182 105.536 102.717 105.171 102.984L101.083 106.167C100.937 106.288 100.742 106.337 100.572 106.337Z" fill="black"/>
<path d="M151.84 101.744H147.922C147.46 101.744 147.07 101.379 147.07 100.893C147.07 100.407 147.435 100.043 147.922 100.043H151.84C152.302 100.043 152.691 100.407 152.691 100.893C152.691 101.379 152.326 101.744 151.84 101.744Z" fill="black"/>
<path d="M121.79 98.4621C121.377 98.4621 121.012 98.1463 120.963 97.709L120.501 93.2872C120.452 92.8256 120.793 92.4126 121.255 92.364C121.717 92.3154 122.131 92.6555 122.18 93.1172L122.642 97.5389C122.691 98.0005 122.35 98.4135 121.888 98.4621C121.863 98.4621 121.839 98.4621 121.79 98.4621Z" fill="black"/>
<path d="M138.751 96.7127C138.338 96.7127 137.973 96.3969 137.924 95.9596L137.462 91.5378C137.413 91.0762 137.754 90.6632 138.216 90.6146C138.678 90.5903 139.092 90.9061 139.141 91.3677L139.603 95.7895C139.652 96.2511 139.311 96.6641 138.849 96.7127C138.824 96.7127 138.8 96.7127 138.751 96.7127Z" fill="black"/>
<path d="M131.528 108.668C130.944 108.596 130.628 108.158 130.701 107.697C131.674 101.113 129.29 95.8162 129.265 95.7676C129.071 95.3546 129.265 94.8444 129.679 94.65C130.093 94.4556 130.604 94.65 130.798 95.063C130.896 95.306 133.402 100.87 132.356 107.94C132.283 108.353 131.942 108.644 131.528 108.644V108.668Z" fill="black"/>
<path d="M112.349 95.4261C112.349 95.4261 118.919 90.9801 118.529 84.2503C118.14 77.5204 116.656 75.7955 116.656 75.7955C116.656 75.7955 123.42 79.3912 131.815 76.8645C141.33 73.9976 146.561 60.951 141.378 57.3796C135.587 53.4194 121.547 59.0074 121.547 59.0074C121.547 59.0074 106.825 58.2056 97.2133 69.8674C87.6017 81.5535 98.3813 95.3047 98.3813 95.3047C98.3813 95.3047 101.228 89.2794 112.349 95.4261V95.4261Z" fill="black"/>
<path d="M125.54 111.191C129.263 111.191 132.28 114.253 132.426 114.398C132.742 114.739 132.742 115.273 132.426 115.589C132.085 115.905 131.55 115.905 131.234 115.589C131.209 115.565 127.705 111.993 124.104 113.111C123.666 113.257 123.179 112.989 123.058 112.552C122.912 112.115 123.179 111.629 123.617 111.507C124.274 111.313 124.931 111.216 125.54 111.216V111.191Z" fill="black"/>
<path d="M138.754 65.6914C138.754 65.6914 145.081 71.4737 146.565 78.4951C148.05 85.5407 146.565 91.4931 146.565 91.4931H145.13C145.13 91.4931 141.723 74.4134 136.199 72.8585C130.676 71.3036 138.73 65.6914 138.73 65.6914H138.754Z" fill="black"/>
<path d="M104.247 133.375C104.247 133.375 66.5063 136.485 50.13 162.724C33.7536 188.963 32.4883 212.529 32.4883 212.529L91.3263 204.318L104.272 133.375H104.247Z" fill="#005491"/>
<path d="M167.271 204.317L198.028 205.629L200.072 151.183C200.072 151.183 169.875 132.136 157.635 130.654C145.395 129.196 167.271 204.317 167.271 204.317V204.317Z" fill="#005491"/>
<path d="M230.553 64.6055L225.898 136.512L243.814 136.762L280.154 148.473L283.961 64.6055L248.202 67.4085L230.553 64.6055Z" fill="#B0C2CD"/>
<path d="M283.834 64.9633L289.337 64.6055L285.615 149.548L279.66 148.144L283.834 64.9633Z" fill="#B0C2CD"/>
<path d="M251.498 69.5127L248.477 134.831L279.889 145.256L283.959 63.5395C283.959 63.5395 258.736 63.3736 251.498 69.5127V69.5127Z" fill="#F3F4F6"/>
<path d="M249.552 68.9631C249.552 68.9631 248.089 67.829 241.151 65.9203C234.188 63.9839 232.573 64.7585 232.573 64.7585L226.973 134.495H244.961L249.552 68.9631V68.9631Z" fill="#F3F4F6"/>
<path d="M217.4 112.941C217.4 112.941 212.704 96.1532 215.965 90.6867C219.225 85.2202 227.158 79.6323 234.02 81.1629C240.882 82.6935 229.324 92.1444 229.324 92.1444C229.324 92.1444 236.551 108.058 231.854 115.589C227.158 123.121 217.4 112.966 217.4 112.966V112.941Z" fill="#F8AFB8"/>
<path d="M39.6666 211.53C39.6666 211.53 36.2113 254.995 68.38 250.476C104.904 245.35 123.86 170.107 123.86 170.107L134.761 163.426C134.761 163.426 132.669 172.002 141.404 167.386C150.14 162.77 148.388 154.096 148.388 154.096L138.168 136.652C138.168 136.652 153.23 122.682 148.777 121.978C141.891 120.884 120.453 135.17 120.453 135.17C120.453 135.17 121.621 126.569 116.657 127.979C111.28 129.509 109.382 145.398 109.382 145.398L52.1253 208.566L39.6666 211.53V211.53Z" fill="#F8AFB8"/>
<path d="M134.764 164.254C134.521 164.254 134.277 164.157 134.107 163.963C133.864 163.671 133.839 163.258 134.058 162.942L138.049 157.33C138.317 156.941 138.828 156.868 139.217 157.136C139.606 157.403 139.679 157.937 139.412 158.302L137.27 161.314L140.361 159.857C140.774 159.662 141.285 159.857 141.48 160.27C141.675 160.683 141.48 161.193 141.066 161.387L135.08 164.206C135.08 164.206 134.837 164.278 134.715 164.278L134.764 164.254Z" fill="black"/>
<path d="M112.278 142.73C112.035 142.73 111.792 142.633 111.621 142.414C111.329 142.05 111.378 141.539 111.743 141.224L122.231 132.623C122.596 132.331 123.107 132.38 123.423 132.744C123.715 133.109 123.666 133.619 123.301 133.935L112.814 142.535C112.668 142.657 112.473 142.73 112.278 142.73V142.73Z" fill="black"/>
<path d="M134.273 140.1C134.005 140.1 133.737 139.978 133.567 139.735C133.299 139.347 133.397 138.836 133.786 138.569L137.679 135.945C138.069 135.678 138.58 135.799 138.847 136.164C139.115 136.553 139.018 137.063 138.628 137.33L134.735 139.954C134.589 140.051 134.419 140.1 134.273 140.1V140.1Z" fill="black"/>
<path d="M229.247 118.77C228.907 118.77 228.59 118.551 228.469 118.211C228.298 117.773 228.542 117.288 228.98 117.142C233.384 115.514 232.557 106.014 231.851 102.492C231.754 102.03 232.07 101.593 232.508 101.496C232.97 101.423 233.408 101.714 233.506 102.152C233.627 102.735 236.207 116.267 229.564 118.697C229.466 118.721 229.369 118.745 229.272 118.745L229.247 118.77Z" fill="black"/>
<path d="M87.2406 301.911C86.9729 301.911 86.7052 301.789 86.5592 301.546C86.2916 301.157 86.3889 300.647 86.7782 300.38C99.3586 291.609 102.644 278.854 102.692 278.733C102.814 278.295 103.252 278.004 103.714 278.125C104.152 278.247 104.444 278.684 104.323 279.146C104.177 279.68 100.867 292.63 87.7516 301.765C87.6056 301.862 87.4352 301.911 87.2649 301.911H87.2406Z" fill="white"/>
<path d="M247.831 67.8398L243.105 136.979L249.163 138.805L254.933 67.8398H247.831Z" fill="#B0C2CD"/>
<path d="M140.48 101.594C136.952 101.448 134.202 98.0952 134.373 94.1107C134.446 92.1914 135.176 90.4178 136.417 89.1059C137.682 87.7696 139.337 87.0651 141.064 87.138C142.792 87.2108 144.374 88.0369 145.542 89.4703C146.685 90.8794 147.269 92.7016 147.196 94.6209C147.123 96.5403 146.393 98.3138 145.152 99.6258C143.936 100.913 142.378 101.618 140.748 101.618C140.675 101.618 140.602 101.618 140.529 101.618L140.48 101.594ZM137.366 90.0291C136.344 91.1224 135.76 92.5801 135.687 94.1836C135.565 97.4392 137.731 100.16 140.529 100.282C141.867 100.33 143.157 99.7716 144.13 98.7269C145.152 97.6579 145.736 96.1758 145.809 94.5723C145.882 92.9688 145.396 91.4625 144.471 90.3206C143.571 89.2031 142.33 88.5471 140.991 88.4985C140.943 88.4985 140.87 88.4985 140.821 88.4985C139.556 88.4985 138.339 89.0573 137.39 90.0534L137.366 90.0291Z" fill="white"/>
<path d="M121.306 102.057C117.315 101.911 114.176 98.534 114.346 94.5496C114.492 90.5652 117.802 87.4796 121.865 87.6011C125.856 87.7469 128.971 91.124 128.825 95.1084C128.679 98.9957 125.467 102.057 121.598 102.057C121.5 102.057 121.403 102.057 121.306 102.057V102.057ZM115.685 94.5982C115.612 96.1774 116.171 97.6837 117.242 98.8256C118.313 99.9918 119.773 100.648 121.354 100.721C124.591 100.842 127.365 98.2911 127.486 95.0598C127.608 91.8042 125.053 89.0588 121.817 88.9374C121.744 88.9374 121.671 88.9374 121.598 88.9374C118.434 88.9374 115.806 91.4398 115.685 94.6225V94.5982Z" fill="white"/>
<path d="M134.054 95.0864C134.346 95.0864 134.638 94.965 134.832 94.6977C135.149 94.2847 135.051 93.6773 134.638 93.3615C132.521 91.7823 128.773 92.8756 128.36 92.997C127.849 93.1428 127.581 93.6773 127.727 94.1875C127.873 94.6977 128.433 94.965 128.919 94.8192C129.747 94.5762 132.35 94.0417 133.494 94.8921C133.664 95.0136 133.859 95.0864 134.054 95.0864V95.0864Z" fill="white"/>
<path d="M115.006 95.2275C115.152 95.2275 115.273 95.1789 115.395 95.1061C115.687 94.8874 115.76 94.4744 115.541 94.1828C113.059 90.8301 103.447 91.0001 102.352 91.0244C101.987 91.0244 101.695 91.3403 101.695 91.7047C101.695 92.0691 102.012 92.3607 102.352 92.3607C105.126 92.3121 112.694 92.6036 114.446 94.9846C114.568 95.1546 114.787 95.2518 114.981 95.2518L115.006 95.2275Z" fill="white"/>
<path d="M161.19 133.47C155.034 140.589 148.878 147.707 142.721 154.826C141.578 156.138 139.85 156.332 138.609 155.263C137.368 154.194 137.319 152.445 138.439 151.133C140.385 148.898 142.308 146.638 144.254 144.403C148.513 139.471 152.771 134.563 157.029 129.656C157.321 129.316 157.151 129.17 156.981 128.927C154.815 125.987 153.744 122.707 153.817 119.063C153.939 111.337 159.974 104.68 167.663 103.805C177.421 102.688 185.621 110.219 185.353 120.035C185.086 129.413 176.35 136.556 167.055 135.001C165.132 134.685 163.307 134.029 161.604 133.057C161.458 133.227 161.312 133.349 161.19 133.494V133.47ZM158.197 120.229C158.635 126.424 164.086 131.235 170.218 130.822C176.545 130.409 181.363 124.967 180.925 118.723C180.487 112.357 175.06 107.644 168.709 108.081C162.48 108.519 157.735 113.961 158.173 120.205L158.197 120.229Z" fill="#00B5FF"/>
<path d="M168.732 108.08C162.503 108.517 157.758 113.959 158.196 120.203C158.634 126.398 164.085 131.209 170.217 130.796C176.543 130.383 181.361 124.941 180.923 118.697C180.485 112.331 175.059 107.618 168.708 108.055L168.732 108.08Z" fill="#E5F0F9"/>
<path d="M146.514 127.984C146.514 127.984 173.159 141.784 145.443 165.569L143.424 156.969L134.737 158.086L127.461 151.308L127.826 135.807L146.514 127.984V127.984Z" fill="#F8AFB8"/>
<path d="M145.709 137.168C145.709 137.168 158.029 142.356 150.214 159.695" stroke="black" stroke-miterlimit="10"/>
</g>
<path d="M270.968 97.0078L253.992 128.752L294.298 102.086L270.968 97.0078Z" fill="#B45309"/>
<path d="M291.746 112.878C318.979 112.878 341.055 98.0617 341.055 79.7847C341.055 61.5078 318.979 46.6914 291.746 46.6914C264.514 46.6914 242.438 61.5078 242.438 79.7847C242.438 98.0617 264.514 112.878 291.746 112.878Z" fill="#B45309"/>
<path d="M297.159 92.4252C291.652 92.4252 286.124 92.4252 280.617 92.4252C278.861 92.4252 277.365 91.895 276.432 90.2379C275.652 88.8459 275.63 87.4319 276.411 86.0178C280.335 78.9034 284.259 71.7668 288.205 64.6524C289.788 61.8022 293.322 61.7359 295.035 64.5198C299.284 71.4575 303.512 78.3952 307.718 85.355C309.604 88.4703 307.566 92.2264 303.989 92.2927C301.712 92.3369 299.436 92.2927 297.159 92.2927V92.3811V92.4252Z" fill="white"/>
<path d="M291.956 88.0097C293.201 88.0097 294.211 86.981 294.211 85.7119C294.211 84.4428 293.201 83.4141 291.956 83.4141C290.711 83.4141 289.701 84.4428 289.701 85.7119C289.701 86.981 290.711 88.0097 291.956 88.0097Z" fill="#B45309"/>
<path d="M291.478 70.1803C291.478 70.1803 289.83 69.7826 289.939 71.6386L290.481 80.388C290.481 80.388 290.654 81.8021 291.955 81.8021C291.955 81.8021 293.473 81.8021 293.473 80.2554L294.318 72.3456C294.318 72.3456 294.535 70.1582 293.017 70.1582L291.5 70.2024L291.478 70.1803Z" fill="#B45309"/>
<path d="M267.482 99.1484L249.783 132.243L291.804 104.443L267.482 99.1484Z" fill="#ED2B41"/>
<path d="M289.143 115.694C317.535 115.694 340.55 100.248 340.55 81.1929C340.55 62.1383 317.535 46.6914 289.143 46.6914C260.752 46.6914 237.736 62.1383 237.736 81.1929C237.736 100.248 260.752 115.694 289.143 115.694Z" fill="#ED2B41"/>
<ellipse cx="289.006" cy="81.4922" rx="17.4336" ry="17.4336" fill="white"/>
<rect x="286.826" y="72.7773" width="3.92257" height="13.729" rx="1.96128" fill="#ED2B41"/>
<ellipse cx="288.787" cy="90.43" rx="1.96128" ry="1.96128" fill="#ED2B41"/>
</svg>
