<svg width="352" height="300" viewBox="0 0 352 300" fill="none" xmlns="http://www.w3.org/2000/svg">
  <path
    d="M72.8781 298.839H284.262C286.549 284.23 270.155 274.59 258.818 265.377C244.807 253.992 235.016 234.152 242.102 217.371C244.807 210.922 249.703 205.69 255.049 201.281C276.082 183.941 304.844 177.723 323.976 158.244C338.147 143.832 345.33 123.663 349.034 103.592C351.321 91.1543 352.416 78.1904 349.42 65.8846C346.425 53.6117 338.791 41.9969 327.486 36.8311C311.865 29.6911 293.732 35.9756 277.982 42.8524C262.232 49.7291 245.033 57.3298 228.574 52.5259C210.344 47.1956 160.002 -37.3986 113.107 19.7214C98.9026 37.0285 84.9885 37.7524 56.8382 37.7524C36.6435 37.7524 25.3061 69.0433 28.076 85.8898C30.846 102.736 42.28 118.168 51.2984 132.547C57.9011 143.043 65.4379 154.23 64.7293 166.7C63.7631 183.974 47.9809 195.721 37.6742 209.474C25.8859 225.202 20.7969 246.754 27.1098 265.475C33.4227 284.197 53.5852 300.748 72.8781 298.839Z"
    fill="#D8E0E6" />
  <mask id="mask0_5519_52531" style="mask-type:alpha" maskUnits="userSpaceOnUse" x="0" y="0" width="343" height="300">
    <path d="M0.751953 0.0078125H342.179V300.001H0.751953V0.0078125Z" fill="#D9D9D9" />
  </mask>
  <g mask="url(#mask0_5519_52531)">
    <path
      d="M265.946 32.1992C267.152 34.3711 273.942 52.5681 265.741 70.9119C257.539 89.2556 237.227 76.4884 237.227 76.4884V42.6185L265.946 32.1992Z"
      fill="#F48462" />
    <path
      d="M194.693 184.407C194.693 184.407 223.06 190.159 246.195 175.455C269.33 160.751 263.068 70.9102 263.068 70.9102H227.411L206.452 120.218L194.664 184.436L194.693 184.407Z"
      fill="#F8AFB8" />
    <path
      d="M177.819 236.441C177.819 236.441 216.886 298.252 240.05 397.191C261.186 487.442 265.742 562.08 265.742 562.08H174.35C174.35 562.08 164.179 488.499 161.475 459.384C158.771 430.269 149.746 391.292 149.746 391.292C149.746 391.292 137.194 559.233 134.225 562.08C131.256 564.927 43.7446 562.696 44.6853 558.851C45.6259 555.006 63.1165 290.181 65.4975 271.808C72.7877 215.368 177.819 236.441 177.819 236.441V236.441Z"
      fill="#00A1E4" />
    <path
      d="M109.328 96.0122C109.328 96.0122 82.3717 95.9241 67.8208 110.071C53.2698 124.218 65.4985 262.75 65.4985 262.75C65.4985 262.75 115.795 268.649 143.309 262.75C170.824 256.85 187.873 244.846 187.873 244.846C187.873 244.846 178.996 116.352 171.412 102.733C163.857 89.1149 109.328 96.0122 109.328 96.0122V96.0122Z"
      fill="#005491" />
    <path
      d="M104.006 86.1207L104.153 103.525C104.153 103.525 110.796 109.014 119.233 109.014C130.609 109.014 134.46 100.238 134.46 100.238L134.019 79.8398L104.006 86.1207Z"
      fill="#F8AFB8" />
    <path
      d="M104.006 85.6525C104.006 85.6525 110.885 99.7405 123.731 97.5979C134.107 95.8663 133.99 81.25 133.99 81.25L103.977 85.6525H104.006Z"
      fill="black" />
    <path
      d="M138.369 35.4895C138.369 35.4895 144.924 66.5418 135.018 81.5984C125.141 96.6843 111.883 92.5165 105.886 88.0847C97.8024 82.0973 96.0386 73.6445 96.0386 73.6445C96.0386 73.6445 85.1327 75.9925 81.3113 67.1582C77.3134 57.8542 84.0157 50.1939 89.4833 49.6362C94.951 49.1079 95.5977 50.0765 95.5977 50.0765L93.8339 40.0975C93.8339 40.0975 126.522 2.58817 138.369 35.4895V35.4895Z"
      fill="#F8AFB8" />
    <path
      d="M133.348 50.1602C133.348 50.1602 149.839 42.7933 151.338 55.6193C153.072 70.4704 135.288 70.9107 135.288 70.9107L133.348 50.1602Z"
      fill="#F8AFB8" />
    <path
      d="M141.839 63.4548C141.663 63.4548 141.516 63.4254 141.339 63.3374C140.84 63.0732 140.663 62.4569 140.957 61.9579L146.337 52.3898C146.601 51.8909 147.218 51.7441 147.718 52.0083C148.218 52.2724 148.394 52.8888 148.1 53.3877L142.721 62.9558C142.544 63.2787 142.192 63.4841 141.839 63.4841V63.4548Z"
      fill="black" />
    <path
      d="M94.072 64.5718C93.8368 64.5718 93.6017 64.4838 93.4253 64.337L84.8417 57.2343C84.4007 56.8821 84.342 56.2364 84.7241 55.7962C85.0769 55.3559 85.7236 55.2972 86.1645 55.6788L94.7481 62.7815C95.189 63.1337 95.2478 63.7794 94.8657 64.2196C94.6599 64.4544 94.3659 64.5718 94.072 64.5718Z"
      fill="black" />
    <path
      d="M86.2828 66.0439C85.9889 66.0439 85.6949 65.8972 85.4891 65.6624C85.1364 65.2221 85.2246 64.5764 85.6655 64.2536L90.604 60.4087C91.045 60.0565 91.6917 60.1446 92.015 60.5848C92.3678 61.0251 92.2796 61.6708 91.8387 61.9936L86.9001 65.8385C86.7238 65.9852 86.4886 66.0439 86.2828 66.0439Z"
      fill="black" />
    <path
      d="M148.221 60.492H143.488C142.929 60.492 142.459 60.0518 142.459 59.4648C142.459 58.8778 142.9 58.4375 143.488 58.4375H148.221C148.779 58.4375 149.249 58.8778 149.249 59.4648C149.249 60.0518 148.808 60.492 148.221 60.492Z"
      fill="black" />
    <path
      d="M111.913 56.5326C111.413 56.5326 110.973 56.151 110.914 55.6227L110.355 50.281C110.296 49.7234 110.708 49.2244 111.266 49.1657C111.825 49.107 112.325 49.5179 112.384 50.0756L112.942 55.4173C113.001 55.9749 112.589 56.4739 112.031 56.5326C112.001 56.5326 111.972 56.5326 111.913 56.5326Z"
      fill="black" />
    <path
      d="M132.407 54.4192C131.908 54.4192 131.467 54.0377 131.408 53.5094L130.849 48.1677C130.791 47.61 131.202 47.1111 131.761 47.0524C132.319 47.023 132.819 47.4046 132.878 47.9622L133.436 53.3039C133.495 53.8616 133.083 54.3605 132.525 54.4192C132.496 54.4192 132.466 54.4192 132.407 54.4192Z"
      fill="black" />
    <path
      d="M123.675 68.8546C122.97 68.7666 122.587 68.2383 122.676 67.6806C123.851 59.7268 120.971 53.3285 120.941 53.2698C120.706 52.7708 120.941 52.1545 121.441 51.9197C121.941 51.6849 122.558 51.9197 122.793 52.4186C122.911 52.7121 125.939 59.4333 124.675 67.9741C124.586 68.4731 124.175 68.8253 123.675 68.8253V68.8546Z"
      fill="black" />
    <path
      d="M100.507 52.8634C100.507 52.8634 108.444 47.4923 107.974 39.3624C107.503 31.2324 105.71 29.1486 105.71 29.1486C105.71 29.1486 113.882 33.4924 124.024 30.44C135.518 26.9767 141.838 11.2157 135.576 6.90129C128.58 2.11723 111.619 8.86774 111.619 8.86774C111.619 8.86774 93.8342 7.89918 82.2229 21.9872C70.6115 36.1045 83.6339 52.7166 83.6339 52.7166C83.6339 52.7166 87.0732 45.4378 100.507 52.8634V52.8634Z"
      fill="black" />
    <path
      d="M116.441 71.9102C120.939 71.9102 124.584 75.6083 124.76 75.7844C125.143 76.1953 125.143 76.841 124.76 77.2225C124.349 77.6041 123.702 77.6041 123.32 77.2225C123.291 77.1932 119.058 72.8787 114.707 74.2288C114.178 74.4049 113.59 74.0821 113.443 73.5538C113.267 73.0255 113.59 72.4385 114.119 72.2917C114.913 72.0569 115.706 71.9395 116.441 71.9395V71.9102Z"
      fill="black" />
    <path
      d="M132.399 16.9336C132.399 16.9336 140.042 23.9189 141.836 32.401C143.629 40.9125 141.836 48.1033 141.836 48.1033H140.101C140.101 48.1033 135.986 27.4702 129.313 25.5918C122.64 23.7134 132.37 16.9336 132.37 16.9336H132.399Z"
      fill="black" />
    <path
      d="M90.7196 98.707C90.7196 98.707 45.1267 102.464 25.3432 134.162C5.55983 165.86 4.03125 194.329 4.03125 194.329L75.1104 184.409L90.749 98.707H90.7196Z"
      fill="#005491" />
    <path
      d="M166.855 184.405L204.011 185.99L206.48 120.217C206.48 120.217 170 97.2063 155.214 95.4159C140.428 93.6549 166.855 184.405 166.855 184.405V184.405Z"
      fill="#005491" />
    <path
      d="M243.309 15.6406L237.686 102.507L259.328 102.809L303.229 116.957L307.827 15.6406L264.629 19.0268L243.309 15.6406Z"
      fill="#B0C2CD" />
    <path d="M307.669 16.0729L314.317 15.6406L309.821 118.256L302.627 116.56L307.669 16.0729Z" fill="#B0C2CD" />
    <path
      d="M268.613 21.5524L264.963 100.46L302.911 113.054L307.827 14.3365C307.827 14.3365 277.357 14.136 268.613 21.5524V21.5524Z"
      fill="#F3F4F6" />
    <path
      d="M266.256 20.9049C266.256 20.9049 264.488 19.5348 256.107 17.229C247.695 14.8898 245.745 15.8255 245.745 15.8255L238.979 100.071H260.709L266.256 20.9049V20.9049Z"
      fill="#F3F4F6" />
    <path
      d="M227.407 74.0202C227.407 74.0202 221.734 53.7393 225.673 47.1356C229.612 40.5318 239.195 33.7813 247.485 35.6304C255.774 37.4794 241.811 48.8966 241.811 48.8966C241.811 48.8966 250.542 68.1208 244.869 77.2193C239.195 86.3178 227.407 74.0495 227.407 74.0495V74.0202Z"
      fill="#F8AFB8" />
    <path
      d="M12.7028 193.127C12.7028 193.127 8.52858 245.634 47.3899 240.175C91.5131 233.983 114.412 143.086 114.412 143.086L127.582 135.014C127.582 135.014 125.054 145.375 135.607 139.798C146.16 134.222 144.044 123.744 144.044 123.744L131.697 102.671C131.697 102.671 149.893 85.7944 144.514 84.9432C136.195 83.6225 110.297 100.88 110.297 100.88C110.297 100.88 111.708 90.4904 105.711 92.1927C99.2148 94.0417 96.922 113.237 96.922 113.237L27.7535 189.547L12.7028 193.127V193.127Z"
      fill="#F8AFB8" />
    <path
      d="M127.587 136.01C127.293 136.01 126.999 135.893 126.793 135.658C126.499 135.306 126.47 134.807 126.734 134.425L131.555 127.646C131.878 127.176 132.496 127.088 132.966 127.411C133.436 127.734 133.525 128.379 133.201 128.82L130.614 132.459L134.348 130.698C134.847 130.463 135.465 130.698 135.7 131.197C135.935 131.696 135.7 132.312 135.2 132.547L127.969 135.952C127.969 135.952 127.675 136.04 127.528 136.04L127.587 136.01Z"
      fill="black" />
    <path
      d="M100.419 110.009C100.125 110.009 99.8314 109.891 99.6256 109.627C99.2729 109.187 99.3317 108.571 99.7726 108.189L112.442 97.7991C112.883 97.4469 113.5 97.5056 113.883 97.9458C114.235 98.3861 114.177 99.0024 113.736 99.384L101.066 109.774C100.89 109.921 100.654 110.009 100.419 110.009V110.009Z"
      fill="black" />
    <path
      d="M126.992 106.838C126.669 106.838 126.345 106.691 126.139 106.398C125.816 105.928 125.934 105.312 126.404 104.989L131.107 101.819C131.578 101.496 132.195 101.643 132.518 102.083C132.842 102.553 132.724 103.169 132.254 103.492L127.55 106.662C127.374 106.779 127.168 106.838 126.992 106.838V106.838Z"
      fill="black" />
    <path
      d="M241.725 81.0727C241.314 81.0727 240.932 80.8086 240.785 80.3977C240.579 79.8694 240.873 79.2824 241.402 79.1063C246.723 77.1398 245.723 65.664 244.871 61.4082C244.753 60.8506 245.135 60.3223 245.665 60.2049C246.223 60.1168 246.752 60.469 246.87 60.9973C247.017 61.7017 250.133 78.0497 242.108 80.9847C241.99 81.014 241.872 81.0434 241.755 81.0434L241.725 81.0727Z"
      fill="black" />
    <path
      d="M70.1676 302.31C69.8443 302.31 69.5209 302.163 69.3446 301.87C69.0212 301.4 69.1388 300.784 69.6091 300.461C84.8068 289.866 88.7752 274.457 88.834 274.31C88.981 273.782 89.5101 273.43 90.0686 273.576C90.5978 273.723 90.9505 274.251 90.8035 274.809C90.6272 275.455 86.6293 291.098 70.785 302.134C70.6086 302.251 70.4028 302.31 70.197 302.31H70.1676Z"
      fill="white" />
    <path d="M264.176 19.5312L258.467 103.054L265.784 105.26L272.755 19.5312H264.176Z" fill="#B0C2CD" />
    <path
      d="M134.493 60.3171C130.231 60.141 126.909 56.0907 127.115 51.2773C127.203 48.9587 128.085 46.8161 129.584 45.2312C131.112 43.617 133.111 42.7658 135.198 42.8539C137.286 42.9419 139.196 43.9398 140.607 45.6715C141.989 47.3738 142.694 49.575 142.606 51.8937C142.518 54.2123 141.636 56.3549 140.137 57.9398C138.667 59.4953 136.786 60.3465 134.816 60.3465C134.728 60.3465 134.64 60.3465 134.552 60.3465L134.493 60.3171ZM130.73 46.3465C129.496 47.6673 128.79 49.4283 128.702 51.3654C128.555 55.2983 131.171 58.5855 134.552 58.7322C136.168 58.7909 137.726 58.1159 138.902 56.8538C140.137 55.5624 140.842 53.7721 140.931 51.835C141.019 49.8979 140.431 48.0782 139.314 46.6987C138.226 45.3486 136.727 44.5562 135.11 44.4975C135.051 44.4975 134.963 44.4975 134.904 44.4975C133.376 44.4975 131.906 45.1725 130.76 46.3759L130.73 46.3465Z"
      fill="white" />
    <path
      d="M111.327 60.8815C106.506 60.7054 102.714 56.6258 102.92 51.8124C103.096 46.999 107.094 43.2715 112.003 43.4183C116.824 43.5944 120.587 47.674 120.411 52.4874C120.234 57.1834 116.354 60.8815 111.68 60.8815C111.562 60.8815 111.445 60.8815 111.327 60.8815V60.8815ZM104.537 51.8711C104.449 53.7788 105.125 55.5985 106.418 56.978C107.712 58.3868 109.475 59.1792 111.386 59.2673C115.296 59.414 118.647 56.3323 118.794 52.4287C118.941 48.4958 115.854 45.1793 111.945 45.0325C111.856 45.0325 111.768 45.0325 111.68 45.0325C107.859 45.0325 104.684 48.0556 104.537 51.9004V51.8711Z"
      fill="white" />
    <path
      d="M126.73 52.4533C127.083 52.4533 127.435 52.3066 127.671 51.9837C128.053 51.4848 127.935 50.751 127.435 50.3695C124.878 48.4617 120.351 49.7825 119.851 49.9292C119.234 50.1053 118.911 50.751 119.087 51.3674C119.263 51.9837 119.939 52.3066 120.527 52.1305C121.527 51.837 124.672 51.1913 126.054 52.2185C126.26 52.3653 126.495 52.4533 126.73 52.4533V52.4533Z"
      fill="white" />
    <path
      d="M103.712 52.6273C103.889 52.6273 104.036 52.5686 104.183 52.4805C104.535 52.2164 104.624 51.7174 104.359 51.3652C101.361 47.3149 89.7493 47.5204 88.4265 47.5497C87.9856 47.5497 87.6328 47.9312 87.6328 48.3715C87.6328 48.8117 88.015 49.164 88.4265 49.164C91.7776 49.1053 100.92 49.4575 103.036 52.3338C103.183 52.5392 103.448 52.6566 103.683 52.6566L103.712 52.6273Z"
      fill="white" />
    <path
      d="M159.509 98.8287C152.071 107.428 144.634 116.028 137.197 124.627C135.815 126.212 133.728 126.447 132.229 125.156C130.73 123.864 130.671 121.751 132.023 120.166C134.375 117.466 136.697 114.736 139.049 112.036C144.193 106.078 149.338 100.149 154.482 94.2208C154.835 93.8099 154.629 93.6338 154.423 93.3403C151.807 89.7889 150.513 85.8267 150.602 81.4242C150.749 72.0909 158.039 64.049 167.328 62.9924C179.116 61.6423 189.022 70.7408 188.699 82.5982C188.375 93.9273 177.822 102.556 166.593 100.678C164.271 100.296 162.066 99.5038 160.008 98.3298C159.832 98.5352 159.655 98.682 159.509 98.8581V98.8287ZM155.893 82.833C156.422 90.3172 163.007 96.1285 170.414 95.6296C178.057 95.1306 183.878 88.5562 183.349 81.0133C182.819 73.3236 176.264 67.6297 168.592 68.158C161.066 68.6863 155.334 75.2607 155.863 82.8036L155.893 82.833Z"
      fill="#00B5FF" />
    <path
      d="M168.62 68.1571C161.094 68.6854 155.362 75.2598 155.891 82.8027C156.42 90.287 163.005 96.0983 170.413 95.5993C178.056 95.1004 183.876 88.526 183.347 80.983C182.818 73.2933 176.263 67.5994 168.59 68.1277L168.62 68.1571Z"
      fill="#E5F0F9" />
    <path
      d="M141.785 92.1953C141.785 92.1953 173.973 108.866 140.491 137.6L138.051 127.21L127.557 128.56L118.768 120.371L119.209 101.646L141.785 92.1953V92.1953Z"
      fill="#F8AFB8" />
    <path d="M140.814 103.293C140.814 103.293 155.698 109.561 146.257 130.507" stroke="black" stroke-miterlimit="10" />
  </g>
</svg>