<svg width="400" height="343" viewBox="0 0 400 343" fill="none" xmlns="http://www.w3.org/2000/svg">
<path d="M82.3144 341.049H323.556C326.166 324.377 307.456 313.375 294.517 302.86C278.528 289.868 267.353 267.225 275.44 248.074C278.528 240.714 284.115 234.743 290.217 229.712C314.22 209.922 347.044 202.825 368.879 180.595C385.052 164.148 393.249 141.13 397.476 118.224C400.086 104.03 401.336 89.2345 397.917 75.1906C394.499 61.1842 385.787 47.9288 372.885 42.0333C355.058 33.8848 334.363 41.057 316.388 48.9051C298.414 56.7532 278.785 65.4274 260.002 59.945C239.197 53.8618 181.744 -42.681 128.225 22.507C112.015 42.2586 96.1353 43.0848 64.009 43.0848C40.9618 43.0848 28.023 78.7955 31.1842 98.0214C34.3454 117.247 47.3944 134.859 57.6866 151.268C65.222 163.247 73.8233 176.014 73.0146 190.246C71.9119 209.96 53.9005 223.366 42.138 239.062C28.6847 257.011 22.8769 281.607 30.0815 302.973C37.286 324.339 60.2964 343.227 82.3144 341.049Z" fill="#D8E0E6"/>
<mask id="mask0_5519_52531" style="mask-type:alpha" maskUnits="userSpaceOnUse" x="0" y="0" width="390" height="343">
<path d="M0 0.0078125H389.653V342.374H0V0.0078125Z" fill="#D9D9D9"/>
</mask>
<g mask="url(#mask0_5519_52531)">
<path d="M302.653 36.7461C304.029 39.2248 311.778 59.992 302.418 80.9268C293.059 101.862 269.877 87.2909 269.877 87.2909V48.637L302.653 36.7461Z" fill="#F48462"/>
<path d="M221.336 210.453C221.336 210.453 253.71 217.018 280.112 200.237C306.514 183.456 299.369 80.9258 299.369 80.9258H258.675L234.755 137.198L221.303 210.487L221.336 210.453Z" fill="#F8AFB8"/>
<path d="M202.08 269.837C202.08 269.837 246.665 340.379 273.101 453.292C297.222 556.291 302.422 641.47 302.422 641.47H198.121C198.121 641.47 186.514 557.497 183.427 524.269C180.341 491.042 170.042 446.56 170.042 446.56C170.042 446.56 155.717 638.221 152.328 641.47C148.94 644.72 49.0679 642.174 50.1414 637.786C51.2149 633.398 71.176 331.167 73.8933 310.199C82.2132 245.787 202.08 269.837 202.08 269.837Z" fill="#00A1E4"/>
<path d="M123.912 109.571C123.912 109.571 93.1489 109.471 76.5426 125.616C59.9364 141.761 73.8923 299.86 73.8923 299.86C73.8923 299.86 131.293 306.592 162.694 299.86C194.095 293.127 213.552 279.428 213.552 279.428C213.552 279.428 203.421 132.784 194.766 117.242C186.144 101.7 123.912 109.571 123.912 109.571Z" fill="#005491"/>
<path d="M117.84 98.2813L118.008 118.144C118.008 118.144 125.589 124.408 135.218 124.408C148.201 124.408 152.595 114.393 152.595 114.393L152.092 91.1133L117.84 98.2813Z" fill="#F8AFB8"/>
<path d="M117.84 97.747C117.84 97.747 125.69 113.825 140.351 111.38C152.193 109.403 152.059 92.7227 152.059 92.7227L117.807 97.747H117.84Z" fill="black"/>
<path d="M157.056 40.5003C157.056 40.5003 164.537 75.9386 153.232 93.1218C141.96 110.339 126.83 105.582 119.986 100.524C110.76 93.6913 108.747 84.0445 108.747 84.0445C108.747 84.0445 96.301 86.7242 91.9397 76.642C87.3772 66.0239 95.0261 57.2816 101.266 56.6452C107.506 56.0422 108.244 57.1476 108.244 57.1476L106.231 45.7591C106.231 45.7591 143.536 2.95173 157.056 40.5003Z" fill="#F8AFB8"/>
<path d="M151.326 57.2428C151.326 57.2428 170.147 48.8354 171.857 63.4729C173.837 80.4217 153.54 80.9241 153.54 80.9241L151.326 57.2428Z" fill="#F8AFB8"/>
<path d="M161.017 72.4141C160.816 72.4141 160.648 72.3806 160.447 72.2801C159.876 71.9786 159.675 71.2752 160.01 70.7058L166.15 59.7862C166.452 59.2168 167.156 59.0493 167.726 59.3508C168.297 59.6522 168.498 60.3556 168.163 60.9251L162.023 71.8446C161.822 72.2131 161.419 72.4476 161.017 72.4476V72.4141Z" fill="black"/>
<path d="M106.502 73.6918C106.234 73.6918 105.966 73.5913 105.764 73.4238L95.9683 65.3179C95.4651 64.916 95.398 64.1791 95.8341 63.6766C96.2367 63.1742 96.9747 63.1072 97.478 63.5426L107.274 71.6486C107.777 72.0505 107.844 72.7874 107.408 73.2899C107.173 73.5578 106.838 73.6918 106.502 73.6918Z" fill="black"/>
<path d="M97.6132 75.3706C97.2777 75.3706 96.9422 75.2031 96.7074 74.9351C96.3048 74.4327 96.4055 73.6958 96.9087 73.3273L102.545 68.9394C103.048 68.5375 103.786 68.638 104.155 69.1404C104.558 69.6428 104.457 70.3797 103.954 70.7482L98.3177 75.1361C98.1164 75.3036 97.848 75.3706 97.6132 75.3706Z" fill="black"/>
<path d="M168.3 69.0361H162.899C162.261 69.0361 161.725 68.5337 161.725 67.8638C161.725 67.1938 162.228 66.6914 162.899 66.6914H168.3C168.937 66.6914 169.474 67.1938 169.474 67.8638C169.474 68.5337 168.971 69.0361 168.3 69.0361Z" fill="black"/>
<path d="M126.865 64.5153C126.294 64.5153 125.791 64.0799 125.724 63.477L125.086 57.3808C125.019 56.7444 125.489 56.1749 126.126 56.1079C126.764 56.0409 127.334 56.5099 127.401 57.1463L128.039 63.2425C128.106 63.8789 127.636 64.4483 126.999 64.5153C126.965 64.5153 126.932 64.5153 126.865 64.5153Z" fill="black"/>
<path d="M150.253 62.1045C149.683 62.1045 149.18 61.6691 149.113 61.0662L148.475 54.97C148.408 54.3335 148.878 53.7641 149.515 53.6971C150.153 53.6636 150.723 54.0991 150.79 54.7355L151.427 60.8317C151.494 61.4681 151.025 62.0375 150.387 62.1045C150.354 62.1045 150.32 62.1045 150.253 62.1045Z" fill="black"/>
<path d="M140.287 78.5799C139.482 78.4794 139.046 77.8765 139.146 77.2401C140.488 68.1628 137.201 60.8607 137.167 60.7937C136.899 60.2243 137.167 59.5209 137.737 59.2529C138.308 58.985 139.012 59.2529 139.281 59.8224C139.415 60.1573 142.87 67.8278 141.428 77.575C141.327 78.1445 140.857 78.5464 140.287 78.5464V78.5799Z" fill="black"/>
<path d="M113.846 60.3279C113.846 60.3279 122.904 54.1982 122.368 44.9199C121.831 35.6417 119.784 33.2635 119.784 33.2635C119.784 33.2635 129.111 38.2208 140.685 34.7373C153.802 30.7848 161.015 12.7977 153.869 7.87382C145.885 2.41404 126.528 10.118 126.528 10.118C126.528 10.118 106.231 9.01267 92.9797 25.0906C79.7282 41.2019 94.59 60.1604 94.59 60.1604C94.59 60.1604 98.5151 51.8535 113.846 60.3279Z" fill="black"/>
<path d="M132.032 82.0664C137.165 82.0664 141.325 86.2869 141.526 86.4878C141.962 86.9568 141.962 87.6937 141.526 88.1291C141.056 88.5646 140.318 88.5646 139.882 88.1291C139.849 88.0956 135.018 83.1718 130.053 84.7126C129.449 84.9135 128.778 84.5451 128.61 83.9422C128.409 83.3392 128.778 82.6693 129.382 82.5019C130.287 82.2339 131.193 82.0999 132.032 82.0999V82.0664Z" fill="black"/>
<path d="M150.244 19.3242C150.244 19.3242 158.966 27.2962 161.013 36.9764C163.059 46.6901 161.013 54.8965 161.013 54.8965H159.033C159.033 54.8965 154.337 31.3491 146.721 29.2054C139.106 27.0617 150.21 19.3242 150.21 19.3242H150.244Z" fill="black"/>
<path d="M102.677 112.648C102.677 112.648 50.6441 116.936 28.0664 153.111C5.48863 189.286 3.74414 221.777 3.74414 221.777L84.863 210.456L102.711 112.648H102.677Z" fill="#005491"/>
<path d="M189.565 210.451L231.97 212.26L234.788 137.196C234.788 137.196 193.155 110.935 176.28 108.892C159.406 106.882 189.565 210.451 189.565 210.451Z" fill="#005491"/>
<path d="M276.818 17.8477L270.4 116.984L295.1 117.328L345.202 133.474L350.45 17.8477L301.15 21.7121L276.818 17.8477Z" fill="#B0C2CD"/>
<path d="M350.27 18.341L357.857 17.8477L352.726 134.957L344.516 133.021L350.27 18.341Z" fill="#B0C2CD"/>
<path d="M305.697 24.5951L301.531 114.648L344.839 129.021L350.45 16.36C350.45 16.36 315.676 16.1312 305.697 24.5951Z" fill="#F3F4F6"/>
<path d="M303.007 23.8555C303.007 23.8555 300.99 22.2918 291.425 19.6604C281.825 16.9907 279.599 18.0586 279.599 18.0586L271.877 114.203H296.677L303.007 23.8555Z" fill="#F3F4F6"/>
<path d="M258.671 84.4747C258.671 84.4747 252.196 61.3292 256.692 53.7927C261.187 46.2562 272.124 38.5522 281.584 40.6624C291.045 42.7727 275.11 55.8025 275.11 55.8025C275.11 55.8025 285.073 77.7421 278.599 88.1257C272.124 98.5093 258.671 84.5082 258.671 84.5082V84.4747Z" fill="#F8AFB8"/>
<path d="M13.6412 220.403C13.6412 220.403 8.87735 280.326 53.2277 274.096C103.583 267.028 129.717 163.293 129.717 163.293L144.746 154.081C144.746 154.081 141.861 165.905 153.905 159.541C165.949 153.177 163.533 141.219 163.533 141.219L149.443 117.169C149.443 117.169 170.209 97.9091 164.07 96.9378C154.576 95.4305 125.02 115.126 125.02 115.126C125.02 115.126 126.631 103.268 119.787 105.211C112.373 107.321 109.756 129.228 109.756 129.228L30.8177 216.316L13.6412 220.403Z" fill="#F8AFB8"/>
<path d="M144.75 155.221C144.415 155.221 144.079 155.087 143.844 154.819C143.509 154.417 143.475 153.848 143.777 153.412L149.279 145.675C149.648 145.139 150.353 145.038 150.889 145.407C151.426 145.775 151.527 146.512 151.158 147.014L148.206 151.168L152.466 149.158C153.037 148.89 153.741 149.158 154.009 149.728C154.278 150.297 154.009 151 153.439 151.268L145.186 155.154C145.186 155.154 144.851 155.254 144.683 155.254L144.75 155.221Z" fill="black"/>
<path d="M113.747 125.543C113.412 125.543 113.076 125.409 112.842 125.107C112.439 124.605 112.506 123.902 113.009 123.466L127.468 111.609C127.972 111.207 128.676 111.274 129.112 111.776C129.515 112.279 129.448 112.982 128.945 113.418L114.485 125.275C114.284 125.442 114.016 125.543 113.747 125.543Z" fill="black"/>
<path d="M144.074 121.927C143.705 121.927 143.336 121.759 143.101 121.424C142.732 120.888 142.866 120.185 143.403 119.817L148.77 116.199C149.307 115.831 150.012 115.998 150.381 116.501C150.75 117.036 150.616 117.74 150.079 118.108L144.711 121.726C144.51 121.86 144.275 121.927 144.074 121.927Z" fill="black"/>
<path d="M275.012 92.5222C274.543 92.5222 274.106 92.2207 273.939 91.7518C273.704 91.1488 274.039 90.4789 274.643 90.278C280.715 88.0338 279.575 74.937 278.602 70.0801C278.468 69.4437 278.904 68.8408 279.508 68.7068C280.145 68.6063 280.749 69.0083 280.883 69.6112C281.051 70.4151 284.607 89.0721 275.448 92.4217C275.314 92.4552 275.18 92.4887 275.046 92.4887L275.012 92.5222Z" fill="black"/>
<path d="M79.2218 345.01C78.8528 345.01 78.4837 344.843 78.2824 344.508C77.9134 343.972 78.0476 343.268 78.5844 342.9C95.9286 330.808 100.458 313.223 100.525 313.055C100.692 312.452 101.296 312.05 101.934 312.218C102.538 312.385 102.94 312.988 102.772 313.625C102.571 314.362 98.0086 332.215 79.9263 344.809C79.725 344.943 79.4902 345.01 79.2553 345.01H79.2218Z" fill="white"/>
<path d="M300.633 22.2891L294.117 117.61L302.468 120.127L310.424 22.2891H300.633Z" fill="#B0C2CD"/>
<path d="M152.632 68.8354C147.768 68.6344 143.977 64.012 144.212 58.5188C144.312 55.8726 145.319 53.4274 147.03 51.6187C148.774 49.7764 151.055 48.805 153.437 48.9055C155.819 49.006 158 50.1449 159.61 52.1211C161.187 54.0638 161.992 56.576 161.891 59.2222C161.791 61.8683 160.784 64.3135 159.073 66.1223C157.396 67.8975 155.249 68.8689 153.001 68.8689C152.9 68.8689 152.8 68.8689 152.699 68.8689L152.632 68.8354ZM148.338 52.8915C146.929 54.3988 146.124 56.4085 146.023 58.6192C145.855 63.1077 148.841 66.8592 152.699 67.0266C154.544 67.0936 156.322 66.3232 157.664 64.8829C159.073 63.4091 159.878 61.3659 159.979 59.1552C160.08 56.9445 159.409 54.8677 158.134 53.2934C156.893 51.7526 155.182 50.8483 153.337 50.7813C153.269 50.7813 153.169 50.7813 153.102 50.7813C151.357 50.7813 149.68 51.5517 148.371 52.925L148.338 52.8915Z" fill="white"/>
<path d="M126.196 69.4776C120.694 69.2767 116.366 64.6208 116.601 59.1275C116.802 53.6342 121.365 49.3803 126.967 49.5477C132.469 49.7487 136.763 54.4046 136.562 59.8979C136.361 65.2572 131.932 69.4776 126.598 69.4776C126.464 69.4776 126.33 69.4776 126.196 69.4776ZM118.446 59.1945C118.345 61.3717 119.117 63.4484 120.593 65.0227C122.069 66.6305 124.082 67.5349 126.263 67.6354C130.725 67.8029 134.549 64.2858 134.717 59.8309C134.885 55.3425 131.362 51.5575 126.9 51.39C126.799 51.39 126.699 51.39 126.598 51.39C122.237 51.39 118.614 54.8401 118.446 59.228V59.1945Z" fill="white"/>
<path d="M143.773 59.8607C144.176 59.8607 144.578 59.6933 144.847 59.3248C145.283 58.7554 145.149 57.918 144.578 57.4826C141.66 55.3053 136.493 56.8126 135.923 56.9801C135.218 57.1811 134.849 57.918 135.051 58.6214C135.252 59.3248 136.024 59.6933 136.695 59.4923C137.835 59.1573 141.425 58.4204 143.002 59.5928C143.236 59.7603 143.505 59.8607 143.773 59.8607Z" fill="white"/>
<path d="M117.505 60.0569C117.706 60.0569 117.874 59.9899 118.042 59.8894C118.444 59.5879 118.545 59.0185 118.243 58.6166C114.821 53.9942 101.57 54.2286 100.06 54.2621C99.5569 54.2621 99.1543 54.6976 99.1543 55.2C99.1543 55.7024 99.5904 56.1044 100.06 56.1044C103.885 56.0374 114.318 56.4394 116.733 59.7219C116.901 59.9564 117.203 60.0904 117.471 60.0904L117.505 60.0569Z" fill="white"/>
<path d="M181.184 112.784C172.696 122.598 164.209 132.413 155.721 142.227C154.144 144.036 151.762 144.304 150.051 142.83C148.34 141.356 148.273 138.944 149.816 137.136C152.5 134.054 155.151 130.939 157.834 127.857C163.705 121.058 169.576 114.292 175.447 107.525C175.85 107.057 175.615 106.856 175.38 106.521C172.394 102.468 170.918 97.9457 171.019 92.9214C171.186 82.2698 179.506 73.092 190.108 71.8861C203.56 70.3454 214.866 80.729 214.497 94.2612C214.128 107.19 202.084 117.038 189.269 114.894C186.619 114.459 184.102 113.555 181.754 112.215C181.553 112.449 181.352 112.617 181.184 112.818V112.784ZM177.057 94.5292C177.661 103.071 185.176 109.703 193.63 109.133C202.353 108.564 208.995 101.061 208.391 92.4524C207.787 83.6766 200.306 77.1785 191.55 77.7814C182.962 78.3843 176.42 85.8873 177.024 94.4957L177.057 94.5292Z" fill="#00B5FF"/>
<path d="M191.582 77.7793C182.994 78.3822 176.452 85.8852 177.056 94.4936C177.66 103.035 185.175 109.667 193.629 109.098C202.351 108.528 208.994 101.025 208.39 92.4169C207.786 83.641 200.305 77.1429 191.549 77.7458L191.582 77.7793Z" fill="#E5F0F9"/>
<path d="M160.956 105.215C160.956 105.215 197.691 124.24 159.479 157.033L156.695 145.175L144.718 146.716L134.688 137.371L135.191 116L160.956 105.215Z" fill="#F8AFB8"/>
<path d="M159.848 117.879C159.848 117.879 176.834 125.032 166.059 148.937" stroke="black" stroke-miterlimit="10"/>
</g>
</svg>
