<svg width="16" height="16" viewBox="0 0 16 16" fill="none" xmlns="http://www.w3.org/2000/svg">
  <path fill-rule="evenodd" clip-rule="evenodd"
    d="M15.7193 1.06211C15.8759 1.06211 16.0008 1.18707 16.0008 1.34368V15.7184C16.0008 15.875 15.8759 16 15.7193 16H0.281564C0.125787 16 0 15.875 0 15.7184V1.34368C0 1.18707 0.125787 1.06211 0.281564 1.06211H2.65653V0.280731C2.65653 0.124954 2.78149 0 2.9381 0H5.06315C5.21893 0 5.34388 0.124954 5.34388 0.280731V1.06211H10.6569V0.280731C10.6569 0.124954 10.7819 0 10.9377 0H13.0627C13.2193 0 13.3443 0.124954 13.3443 0.280731V1.06211H15.7193ZM11.1876 2.65587H12.8128V0.530812H11.1876V2.65587ZM3.18803 2.65587H4.81327V0.530812H3.18803V2.65587ZM2.65653 1.59366H0.531473V4.81248H15.4694V1.59366H13.3443V2.93733C13.3443 3.09311 13.2193 3.18724 13.0627 3.18724H10.9377C10.7819 3.18724 10.6569 3.09311 10.6569 2.93733V1.59366H5.34388V2.93733C5.34388 3.09311 5.21893 3.18724 5.06315 3.18724H2.9381C2.78149 3.18724 2.65653 3.09311 2.65653 2.93733V1.59366ZM0.531473 15.4686H15.4694V5.34392H0.531473V15.4686ZM14.3756 7.99946H11.7191V10.1245H14.3756C14.5314 10.1245 14.6572 10.2495 14.6572 10.4061C14.6572 10.5619 14.5314 10.656 14.3756 10.656H11.7191V12.8119H14.3756C14.5314 12.8119 14.6572 12.906 14.6572 13.0618C14.6572 13.2184 14.5314 13.3433 14.3756 13.3433H11.7191V14.3746C11.7191 14.5312 11.6258 14.6562 11.4692 14.6562C11.3134 14.6562 11.1876 14.5312 11.1876 14.3746V13.3433H8.00043V14.3746C8.00043 14.5312 7.87547 14.6562 7.71886 14.6562C7.59391 14.6562 7.46896 14.5312 7.46896 14.3746V13.3433H4.28178V14.3746C4.28178 14.5312 4.15683 14.6562 4.00022 14.6562C3.84444 14.6562 3.71949 14.5312 3.71949 14.3746V13.3433H1.62525C1.46948 13.3433 1.34452 13.2184 1.34452 13.0618C1.34452 12.906 1.46948 12.8119 1.62525 12.8119H3.71949V10.656H1.62525C1.46948 10.656 1.34452 10.5619 1.34452 10.4061C1.34452 10.2495 1.46948 10.1245 1.62525 10.1245H3.71949V7.99946H1.62525C1.46948 7.99946 1.34452 7.87451 1.34452 7.7179C1.34452 7.59294 1.46948 7.46799 1.62525 7.46799H3.71949V6.31174C3.71949 6.15597 3.84444 6.06184 4.00022 6.06184C4.15683 6.06184 4.28178 6.15597 4.28178 6.31174V7.46799H7.46896V6.31174C7.46896 6.15597 7.59391 6.06184 7.71886 6.06184C7.87547 6.06184 8.00043 6.15597 8.00043 6.31174V7.46799H11.1876V6.31174C11.1876 6.15597 11.3134 6.06184 11.4692 6.06184C11.6258 6.06184 11.7191 6.15597 11.7191 6.31174V7.46799H14.3756C14.5314 7.46799 14.6572 7.59294 14.6572 7.7179C14.6572 7.87451 14.5314 7.99946 14.3756 7.99946ZM4.28178 10.1247H7.46896V7.99961H4.28178V10.1247ZM4.28178 12.812H7.46896V10.6553H4.28178V12.812ZM8.00042 12.8128H11.1876V10.6561H8.00042V12.8128ZM8.00042 10.1247H11.1876V7.99961H8.00042V10.1247Z"
    fill="#005DA2" />
</svg>