<svg width="25" height="18" viewBox="0 0 25 18" fill="none" xmlns="http://www.w3.org/2000/svg">
  <path fill-rule="evenodd" clipRule="evenodd"
    d="M21.9529 3.15974C23.6012 3.15974 24.3349 3.75555 24.3349 5.0839V15.7096C24.3349 17.1295 23.4644 17.9536 21.9529 18H3.31195C1.75406 17.9536 0.884766 17.1295 0.884766 15.7096V5.45018C0.884766 4.12182 1.61732 3.2977 2.85411 3.15974L2.89928 2.74707C2.89928 2.01452 3.67823 1.1904 4.41078 1.1904H5.18972C5.96867 1.1904 6.60965 2.06091 6.60965 2.74707L6.56326 3.15974H9.31154L10.823 1.55667C11.1893 1.00726 11.7387 0.503018 12.3809 0.0915689L12.5177 0L17.648 0L17.7395 0.0915689C18.4257 0.503018 18.9763 1.00726 19.3426 1.55667L20.2583 3.15974H21.9529ZM4.41054 1.96936C4.09066 1.96936 3.67799 2.47238 3.67799 2.74709L3.63159 3.15976H5.78529L5.83047 2.74709C5.83047 2.42721 5.46419 1.96936 5.18948 1.96936H4.41054ZM23.556 15.7092V5.08352C23.556 4.44132 23.418 3.9383 21.9529 3.9383H19.8004L18.6552 1.96896C18.3805 1.55629 17.9678 1.14362 17.4184 0.777344H12.7472C12.1978 1.14362 11.7387 1.55629 11.464 2.01413L11.4188 2.06053L9.63263 3.9383H3.22037C2.16671 3.9383 1.66248 4.44132 1.66248 5.4498V15.7092C1.66248 16.6713 2.21189 17.1743 3.31194 17.2207H21.9065C23.0517 17.1743 23.556 16.6713 23.556 15.7092ZM14.945 4.30471C18.1975 4.30471 20.8078 6.96143 20.8078 10.1676C20.8078 13.4189 18.1975 16.0292 14.945 16.0292C11.7389 16.0292 9.08336 13.4189 9.08336 10.1676C9.08336 6.96143 11.7389 4.30471 14.945 4.30471ZM14.945 15.2518C17.7397 15.2518 20.0289 12.9614 20.0289 10.1679C20.0289 7.37321 17.7397 5.08398 14.945 5.08398C12.1515 5.08398 9.86108 7.37321 9.86108 10.1679C9.86108 12.9614 12.1515 15.2518 14.945 15.2518ZM14.9447 6.64062C16.9141 6.64062 18.4719 8.24369 18.4719 10.1679C18.4719 12.0908 16.9141 13.6939 14.9447 13.6939C13.0218 13.6939 11.4187 12.0908 11.4187 10.1679C11.4187 8.24369 13.0218 6.64062 14.9447 6.64062ZM14.9449 12.9153C16.4564 12.9153 17.6932 11.6797 17.6932 10.1682C17.6932 8.65671 16.4564 7.41992 14.9449 7.41992C13.4334 7.41992 12.1979 8.65671 12.1979 10.1682C12.1979 11.6797 13.4334 12.9153 14.9449 12.9153ZM4.41063 5.49512C5.46428 5.49512 6.33479 6.36563 6.33479 7.41928C6.33479 8.51811 5.46428 9.38863 4.41063 9.38863C3.3118 9.38863 2.44128 8.51811 2.44128 7.41928C2.44128 6.36563 3.3118 5.49512 4.41063 5.49512ZM4.4109 8.60907C5.05188 8.60907 5.55612 8.10606 5.55612 7.41868C5.55612 6.7777 5.05188 6.27346 4.4109 6.27346C3.76992 6.27346 3.2205 6.7777 3.2205 7.41868C3.2205 8.10606 3.76992 8.60907 4.4109 8.60907Z"
    fill="#005491" />
</svg>