<svg width="16" height="16" viewBox="0 0 16 16" fill="none" xmlns="http://www.w3.org/2000/svg">
  <path fill-rule="evenodd" clipRule="evenodd"
    d="M15.7191 15.4685C15.8757 15.4685 16.0007 15.5935 16.0007 15.7184C16.0007 15.875 15.8757 16 15.7191 16H0.281561C0.125786 16 0 15.875 0 15.7184C0 15.5935 0.125786 15.4685 0.281561 15.4685H1.06294V12.5313C1.06294 12.3747 1.18789 12.2814 1.3445 12.2814H3.46954C3.62531 12.2814 3.71944 12.3747 3.71944 12.5313V15.4685H4.8132V8.81269C4.8132 8.65608 4.9065 8.53112 5.06311 8.53112H7.18815C7.34392 8.53112 7.46888 8.65608 7.46888 8.81269V15.4685H8.53181V10.4063C8.53181 10.2496 8.65677 10.1247 8.81254 10.1247H10.9376C11.0942 10.1247 11.1875 10.2496 11.1875 10.4063V15.4685H12.2812V5.59389C12.2812 5.43728 12.3754 5.34398 12.532 5.34398H14.657C14.8128 5.34398 14.9378 5.43728 14.9378 5.59389V15.4685H15.7191ZM1.59438 15.4684H3.18795V12.8119H1.59438V15.4684ZM5.34398 15.4688H6.93755V9.06289H5.34398V15.4688ZM9.06345 15.468H10.657V10.6556H9.06345V15.468ZM12.8125 15.4681H14.4061V5.87414H12.8125V15.4681ZM6.12538 3.18714C6.71932 3.18714 7.18832 3.68696 7.18832 4.2809V4.40585L9.2817 5.24971C9.46913 4.96814 9.78151 4.81237 10.1256 4.81237C10.2822 4.81237 10.4379 4.84319 10.5945 4.90567L13.2819 1.68687C13.1569 1.49944 13.0628 1.31201 13.0628 1.0621C13.0628 0.468158 13.5318 0 14.1257 0C14.7197 0 15.1878 0.468158 15.1878 1.0621C15.1878 1.65605 14.7197 2.12504 14.1257 2.12504C13.9691 2.12504 13.8133 2.09338 13.6884 2.03091L11.0002 5.24971C11.1252 5.40631 11.1877 5.62457 11.1877 5.87447C11.1877 6.46842 10.7195 6.93741 10.1256 6.93741C9.53161 6.93741 9.06345 6.46842 9.06345 5.87447C9.06345 5.812 9.06345 5.78117 9.09427 5.7187L7.00089 4.90567C6.7818 5.15557 6.50024 5.34384 6.12538 5.34384C5.90713 5.34384 5.68804 5.24971 5.53143 5.15557L3.09401 7.24979C3.15649 7.40557 3.18814 7.56218 3.18814 7.71878C3.18814 8.3119 2.71915 8.81254 2.12521 8.81254C1.5321 8.81254 1.0631 8.3119 1.0631 7.71878C1.0631 7.15566 1.5321 6.65585 2.12521 6.65585C2.34429 6.65585 2.56338 6.74998 2.75081 6.84328L5.18823 4.74989C5.12575 4.59328 5.06328 4.43751 5.06328 4.2809C5.06328 3.68696 5.53143 3.18714 6.12538 3.18714ZM14.1258 0.531273C13.8442 0.531273 13.5943 0.78118 13.5943 1.06274C13.5943 1.37512 13.8442 1.59421 14.1258 1.59421C14.4382 1.59421 14.6573 1.37512 14.6573 1.06274C14.6573 0.78118 14.4382 0.531273 14.1258 0.531273ZM10.1256 5.34398C9.84407 5.34398 9.59416 5.56223 9.59416 5.87462C9.59416 6.15618 9.84407 6.40608 10.1256 6.40608C10.438 6.40608 10.6571 6.15618 10.6571 5.87462C10.6571 5.68719 10.5946 5.56223 10.4697 5.46893C10.3755 5.3748 10.2506 5.34398 10.1256 5.34398ZM2.12501 8.28157C2.43823 8.28157 2.65648 8.03166 2.65648 7.71928C2.65648 7.59432 2.62566 7.46854 2.53153 7.37524C2.43823 7.28111 2.28162 7.18781 2.12501 7.18781C1.84428 7.18781 1.59438 7.43772 1.59438 7.71928C1.59438 8.03166 1.84428 8.28157 2.12501 8.28157ZM6.12546 4.81267C6.43784 4.81267 6.65693 4.56276 6.65693 4.2812C6.65693 3.96882 6.43784 3.71891 6.12546 3.71891C5.84473 3.71891 5.59399 3.96882 5.59399 4.2812C5.59399 4.56276 5.84473 4.81267 6.12546 4.81267Z"
    fill="#005DA2" />
</svg>