<svg width="20" height="20" viewBox="0 0 20 20" fill="none" xmlns="http://www.w3.org/2000/svg">
<path fill-rule="evenodd" clip-rule="evenodd" d="M18.87 2.551C19.058 2.551 19.208 2.701 19.208 2.889C19.208 3.076 19.058 3.189 18.87 3.189H16.657V18.87C16.657 19.057 16.507 19.207 16.319 19.207H2.889C2.701 19.207 2.551 19.057 2.551 18.87V3.189H0.338C0.151 3.189 0 3.076 0 2.889C0 2.701 0.151 2.551 0.338 2.551H5.778V0.338C5.778 0.15 5.89 0 6.078 0H13.13C13.318 0 13.43 0.15 13.43 0.338V2.551H18.87ZM6.41406 2.54972H12.7911V0.636719H6.41406V2.54972ZM3.18945 18.5685H16.0195V3.1875H3.18945V18.5685ZM6.0772 6.07812C6.2642 6.07812 6.4142 6.22813 6.4142 6.41612V15.3821C6.4142 15.5321 6.2642 15.6821 6.0772 15.6821C5.8892 15.6821 5.7772 15.5321 5.7772 15.3821V6.41612C5.7772 6.22813 5.8892 6.07812 6.0772 6.07812ZM9.60352 6.07812C9.79152 6.07812 9.94152 6.22813 9.94152 6.41612V15.3821C9.94152 15.5321 9.79152 15.6821 9.60352 15.6821C9.41552 15.6821 9.26552 15.5321 9.26552 15.3821V6.41612C9.26552 6.22813 9.41552 6.07812 9.60352 6.07812ZM12.7928 6.41612C12.7928 6.22813 12.9428 6.07812 13.1298 6.07812C13.3178 6.07812 13.4298 6.22813 13.4298 6.41612V15.3821C13.4298 15.5321 13.3178 15.6821 13.1298 15.6821C12.9428 15.6821 12.7928 15.5321 12.7928 15.3821V6.41612Z" fill="#0072C8"/>
</svg>
