<svg width="32" height="40" viewBox="0 0 32 40" fill="none" xmlns="http://www.w3.org/2000/svg">
<rect width="32" height="40" rx="4" fill="#0072C8"/>
<g clip-path="url(#clip0_5082_8484)">
<path fill-rule="evenodd" clip-rule="evenodd" d="M15.5861 27.8086C15.6519 27.8788 15.7158 27.9473 15.7816 27.9473C15.9113 28.0176 16.1049 28.0176 16.2346 27.9473C16.3003 27.9473 16.3643 27.8788 16.43 27.8086L23.0464 20.7316C23.1761 20.5928 23.1761 20.4541 23.1761 20.3154C23.1761 20.1748 23.1761 20.0361 23.0464 19.8974C22.8527 19.6902 22.4636 19.6902 22.2682 19.8974L16.5597 26.0051V12.6252C16.5597 12.2775 16.3003 12 16.0409 12C15.7158 12 15.4564 12.2775 15.4564 12.6252V26.0051L9.74799 19.8974C9.55258 19.6902 9.16348 19.6902 8.9698 19.8974C8.77439 20.1064 8.77439 20.5226 8.9698 20.7316L15.5861 27.8086Z" fill="white"/>
</g>
<defs>
<clipPath id="clip0_5082_8484">
<rect width="16" height="16" fill="white" transform="translate(8 12)"/>
</clipPath>
</defs>
</svg>
