<svg width="16" height="15" viewBox="0 0 16 15" fill="none" xmlns="http://www.w3.org/2000/svg">
<path fill-rule="evenodd" clip-rule="evenodd" d="M2.40524 7.99606C2.56177 7.99606 2.65503 8.12095 2.65503 8.27748V14.3989H5.87226V9.58886H10.1203V14.3989H13.3375V8.27748C13.3375 8.12095 13.4308 7.99606 13.5873 7.99606C13.7438 7.99606 13.8687 8.12095 13.8687 8.27748V14.9301H9.58907V10.1201H6.40347V14.9301H2.12382V8.27748C2.12382 8.12095 2.24871 7.99606 2.40524 7.99606ZM8.18338 0.0936695L15.9301 7.80871C16.0233 7.90196 16.0233 8.09013 15.9301 8.18338C15.8676 8.24583 15.8043 8.27747 15.7111 8.27747C15.6486 8.27747 15.5862 8.24583 15.5237 8.18338L7.99605 0.655687L0.468348 8.18338C0.343455 8.27747 0.187755 8.27747 0.0936695 8.18338C-0.0312232 8.09013 -0.0312232 7.90196 0.0936695 7.80871L7.80871 0.0936695C7.90196 -0.0312232 8.09013 -0.0312232 8.18338 0.0936695ZM10.4013 1.06214C10.2448 1.06214 10.1199 0.937251 10.1199 0.812358C10.1199 0.655826 10.2448 0.530933 10.4013 0.530933H13.3371V3.46674C13.3371 3.62328 13.2122 3.74817 13.0557 3.74817C12.9 3.74817 12.8059 3.62328 12.8059 3.46674V1.06214H10.4013Z" fill="#005DA2"/>
</svg>
