<svg width="348" height="300" viewBox="0 0 348 300" fill="none" xmlns="http://www.w3.org/2000/svg">
<path d="M300.788 266.288H112.149C110.108 253.271 124.738 244.68 134.855 236.471C147.359 226.326 156.096 208.647 149.773 193.694C147.359 187.947 142.99 183.286 138.218 179.357C119.449 163.906 93.782 158.364 76.7087 141.007C64.0619 128.165 57.6523 110.193 54.3468 92.308C52.3061 81.2253 51.3288 69.6736 54.0019 58.7082C56.675 47.7721 63.487 37.4224 73.5758 32.8193C87.516 26.457 103.698 32.057 117.753 38.1847C131.809 44.3124 147.157 51.0852 161.845 46.8046C178.113 42.0548 223.038 -33.3249 264.888 17.5733C277.564 32.9952 289.98 33.6402 315.102 33.6402C333.123 33.6402 343.241 61.5228 340.769 76.5343C338.297 91.5457 328.093 105.296 320.045 118.109C314.153 127.462 307.427 137.43 308.06 148.542C308.922 163.935 323.006 174.402 332.204 186.657C342.724 200.672 347.265 219.876 341.631 236.559C335.998 253.241 318.005 267.989 300.788 266.288Z" fill="#D8E0E6"/>
<path d="M37.4997 150.318C37.4997 150.318 34.231 129.534 32.8621 128.399C31.5071 127.253 2.29841 105.968 0.98535 99.8084C-0.313745 93.6365 4.77088 90.8555 4.77088 90.8555C4.77088 90.8555 84.0296 115.348 86.1529 117.458C88.2901 119.568 77.7996 149.696 77.7996 149.696L37.4997 150.306V150.318Z" fill="black"/>
<path d="M2.57764 92.7824L85.9292 122.508L89.9662 112.432L5.9022 84.2441L2.57764 92.7824Z" fill="black"/>
<path d="M12.1182 111.969L21.4912 119.665L34.9571 104.333L25.5002 98.6367L12.1182 111.969Z" fill="black"/>
<path d="M119.664 158.746C119.664 158.746 120.768 137.791 119.664 136.449C118.561 135.12 94.2549 109.554 94.2549 103.285C94.2549 97.0151 99.8284 95.0879 99.8284 95.0879C99.8284 95.0879 172.676 131.741 174.338 134.144C176 136.559 159.433 164.528 159.433 164.528L119.664 158.746Z" fill="black"/>
<path d="M206.773 210.72C206.773 210.72 195.5 200.096 148.006 199.217C100.513 198.327 87.4519 201.693 87.4519 201.693L89.2958 140.267L29.5095 133.461C29.5095 133.461 1.96308 196.558 2.54977 226.198C3.15042 255.838 31.046 266.45 39.9441 268.218C48.8422 269.987 210.684 268.999 210.684 268.999L206.759 210.72H206.773Z" fill="#005491"/>
<path d="M85.0776 206.523L112.135 143.035L171.824 147.255L153.93 201.18L85.0776 206.523Z" fill="#005491"/>
<path d="M154.432 229.356L200.166 268.193C200.166 268.193 215.601 272.133 235.66 272.609C255.72 273.072 271.337 272.609 271.337 272.609L281.506 261.826L295.824 272.816L344.882 235.553C344.882 235.553 319.948 217.33 288.49 204.901C257.019 192.471 210.838 191.837 154.432 229.356Z" fill="#00A1E4"/>
<path d="M291.144 263.949C290.697 263.949 290.32 263.631 290.32 263.229V224.758C290.334 224.368 290.711 224.051 291.158 224.051C291.605 224.051 291.983 224.368 291.983 224.758V263.229C291.969 263.619 291.591 263.949 291.144 263.949Z" fill="white"/>
<path d="M197.274 259.118C197.037 259.118 196.799 259.032 196.646 258.862C196.422 258.63 196.394 258.288 196.59 258.032C197.582 256.629 206.48 244.334 212.011 244.273C213.227 244.31 214.107 244.725 214.791 245.64C215.503 246.579 215.657 247.591 215.252 248.677C213.338 253.836 198.21 258.874 197.568 259.093C197.47 259.118 197.372 259.142 197.274 259.142V259.118ZM212.053 245.701C208.659 245.737 202.652 252.629 199.384 256.898C204.398 255.019 212.528 251.397 213.701 248.225C213.953 247.567 213.855 246.993 213.436 246.42C212.947 245.786 212.43 245.701 212.067 245.701H212.053Z" fill="white"/>
<path d="M314.975 256.655L340.734 238.713C340.734 238.713 348.808 247.532 346.95 266.767C344.771 289.247 308.564 295.443 308.564 295.443L302.697 276.745L314.989 256.668L314.975 256.655Z" fill="#F8AFB8"/>
<path d="M232.783 261.571C232.783 261.571 231.26 251.752 237.909 253.387C244.558 255.021 241.429 263.608 241.429 263.608L232.783 261.559V261.571Z" fill="#F8AFB8"/>
<path d="M238.203 189.898L234.306 202.937C234.306 202.937 238.706 208.78 249.42 209.768C260.316 210.768 258.291 205.938 258.291 205.938L259.143 199.217L241.221 191.24L238.217 189.898H238.203Z" fill="#F8AFB8"/>
<path d="M241.192 191.301C241.094 191.74 241.122 192.289 241.22 192.935C242.701 201.754 252.8 205.938 258.29 205.938L258.96 199.619L241.192 191.301Z" fill="black"/>
<path d="M274.521 164.894C274.521 164.894 277.581 186.862 270.345 196.864C263.095 206.866 252.297 202.17 246.221 198.279C240.13 194.388 238.217 189.911 238.217 189.911C238.217 189.911 231.204 190.131 228.718 183.849C226.231 177.568 230.883 172.323 234.99 171.908C239.083 171.493 242.631 174.921 242.631 174.921L241.178 168.395C241.178 168.395 265.26 143.427 274.535 164.907L274.521 164.894Z" fill="#F8AFB8"/>
<path d="M265.247 189.396C265.093 189.396 264.925 189.36 264.786 189.274C264.408 189.055 264.311 188.604 264.576 188.286C267.063 185.091 265.372 180.443 265.358 180.395C265.219 180.017 265.456 179.614 265.889 179.492C266.322 179.37 266.783 179.577 266.923 179.943C267.007 180.163 268.878 185.298 265.931 189.079C265.777 189.287 265.512 189.396 265.261 189.396H265.247Z" fill="black"/>
<path d="M238.692 183.848C238.398 183.848 238.105 183.702 237.965 183.446L233.9 176.249C233.705 175.896 233.873 175.469 234.278 175.298C234.683 175.127 235.172 175.261 235.367 175.627L239.432 182.824C239.628 183.178 239.46 183.604 239.055 183.775C238.943 183.824 238.817 183.848 238.692 183.848Z" fill="black"/>
<path d="M237.197 181.214C237.071 181.214 232.713 180.64 232.713 180.64C232.266 180.579 231.959 180.213 232.028 179.823C232.098 179.433 232.517 179.164 232.964 179.225L237.337 179.787C237.784 179.848 238.091 180.213 238.021 180.604C237.965 180.957 237.616 181.214 237.211 181.214H237.197Z" fill="black"/>
<path d="M242.617 174.919C242.617 174.919 244.447 176.847 246.905 175.017C249.364 173.187 248.093 165.491 248.093 165.491C248.093 165.491 254.49 168.699 259.435 167.845C264.38 167.003 268.389 162.1 268.389 162.1C268.389 162.1 269.521 168.626 279.774 168.638C290.041 168.638 295.74 157.977 286.521 153.013C277.301 148.048 270.471 150.464 270.471 150.464C270.471 150.464 272.049 142.035 258.262 142.706C245.704 143.328 239.46 155.16 239.46 155.16C239.46 155.16 232.587 153.623 229.025 159.709C225.463 165.796 232.448 172.76 232.448 172.76C232.448 172.76 238.217 171.565 242.617 174.932V174.919Z" fill="black"/>
<path d="M261.659 180.158C261.731 180.216 261.804 180.291 261.848 180.376C262.043 180.731 261.866 181.152 261.459 181.323C258.31 182.64 255.66 179.985 255.556 179.885C255.265 179.585 255.302 179.135 255.645 178.88C255.989 178.626 256.505 178.658 256.796 178.958C256.878 179.024 258.739 180.88 260.764 180.036C261.074 179.904 261.432 179.96 261.669 180.149L261.659 180.158Z" fill="black"/>
<path d="M269.199 180.564C269.311 180.199 269.742 179.972 270.168 180.046C270.343 180.087 271.807 180.265 272.491 178.178C272.607 177.801 273.065 177.579 273.507 177.695C273.938 177.796 274.178 178.193 274.062 178.57C273.135 181.359 270.859 181.66 269.785 181.434C269.354 181.333 269.08 180.953 269.182 180.573L269.185 180.561L269.199 180.564Z" fill="black"/>
<path d="M259.715 194.679C259.589 194.679 259.449 194.654 259.338 194.593C259.212 194.532 256.195 193.105 256.502 190.397C256.544 190.007 256.949 189.714 257.396 189.763C257.843 189.8 258.178 190.153 258.122 190.544C257.927 192.3 260.078 193.325 260.092 193.337C260.497 193.52 260.637 193.959 260.427 194.301C260.274 194.545 259.994 194.679 259.701 194.679H259.715Z" fill="black"/>
<path d="M97.2856 96.6369L173.066 139.084L179.129 129.814L102.314 88.7695L97.2856 96.6369Z" fill="black"/>
<path d="M102.664 117.017L110.291 126.068L126.718 113.126L118.602 106.027L102.664 117.017Z" fill="black"/>
<path d="M80.4958 219.037C80.0348 219.037 79.504 218.927 78.9313 218.61C78.0233 218.11 77.4646 217.329 77.3249 216.366C76.6684 211.926 84.882 203.985 85.8459 203.095C85.9017 203.046 85.9576 203.009 86.0135 202.973C86.0973 202.924 86.1811 202.9 86.2649 202.875C87.2846 202.656 123.701 194.703 153.664 198.228C154.111 198.277 154.418 198.643 154.363 199.033C154.307 199.423 153.888 199.704 153.441 199.643C125.545 196.362 91.8943 203.144 87.2008 204.144C86.8656 206.827 85.343 217.22 81.6273 218.805C81.3339 218.927 80.9568 219.037 80.5098 219.037H80.4958ZM85.315 205.79C82.5073 208.754 78.5542 213.585 78.9453 216.183C79.0291 216.732 79.3085 217.122 79.8113 217.402C80.3422 217.695 80.6774 217.622 80.9009 217.524C82.9683 216.646 84.5607 210.584 85.315 205.79Z" fill="white"/>
<path d="M161.123 235.053C161.123 235.053 133.926 267.096 162.031 284.88C190.136 302.676 231.554 299.834 231.554 299.834L238.035 272.804L189.55 254.191L161.123 235.041V235.053Z" fill="#F8AFB8"/>
<path d="M251.152 210.525C250.593 210.525 250.006 210.513 249.378 210.477C237.7 209.867 232.168 202.06 231.931 201.731C231.693 201.39 231.819 200.95 232.21 200.755C232.601 200.548 233.104 200.658 233.328 200.999C233.383 201.072 238.678 208.501 249.475 209.062C258.024 209.513 258.974 206.598 258.974 206.573C259.086 206.195 259.533 205.964 259.952 206.049C260.385 206.134 260.664 206.5 260.567 206.878C260.525 207.037 259.603 210.538 251.138 210.538L251.152 210.525Z" fill="white"/>
<path d="M305.854 249.434H240.2C239.066 249.434 238.147 250.236 238.147 251.227V291.271C238.147 292.261 239.066 293.064 240.2 293.064H305.854C306.988 293.064 307.907 292.261 307.907 291.271V251.227C307.907 250.236 306.988 249.434 305.854 249.434Z" fill="white"/>
<path d="M310.478 249.434H244.545C243.411 249.434 242.492 250.236 242.492 251.227V291.271C242.492 292.261 243.411 293.064 244.545 293.064H310.478C311.612 293.064 312.531 292.261 312.531 291.271V251.227C312.531 250.236 311.612 249.434 310.478 249.434Z" fill="#496374"/>
<path d="M303.018 270.144C303.787 268.863 304.974 267.827 306.343 267.009C310.939 264.228 325.41 258.422 329.699 261.984C333.805 265.387 325.885 268.827 325.885 268.827C325.885 268.827 332.897 267.168 332.562 271.73C332.283 275.535 327.813 276.792 327.813 276.792C327.813 276.792 335.3 275.682 332.576 281.134C329.852 286.586 314.375 291.453 308.676 291.294C302.976 291.148 307.013 284.622 307.013 284.622C307.013 284.622 300.895 283.756 300.895 280.792C300.895 277.658 305.714 276.462 305.714 276.462C305.714 276.462 300.266 274.743 303.032 270.144H303.018Z" fill="#F8AFB8"/>
<path d="M307.502 276.794C307.195 276.794 306.888 276.635 306.762 276.379C306.58 276.026 306.762 275.599 307.167 275.44L325.564 268.183C325.969 268.024 326.458 268.183 326.639 268.536C326.821 268.89 326.639 269.317 326.234 269.476L307.837 276.733C307.726 276.782 307.614 276.794 307.502 276.794Z" fill="black"/>
<path d="M250.663 270.144C249.895 268.863 248.708 267.827 247.339 267.009C242.743 264.228 228.271 258.422 223.983 261.984C219.876 265.387 227.796 268.827 227.796 268.827C227.796 268.827 220.784 267.168 221.119 271.73C221.399 275.535 225.869 276.792 225.869 276.792C225.869 276.792 218.381 275.682 221.105 281.134C223.829 286.586 239.307 291.453 245.006 291.294C250.705 291.148 246.668 284.622 246.668 284.622C246.668 284.622 252.787 283.756 252.787 280.792C252.787 277.658 247.967 276.462 247.967 276.462C247.967 276.462 253.415 274.743 250.649 270.144H250.663Z" fill="#F8AFB8"/>
<path d="M246.193 276.793C246.081 276.793 245.97 276.769 245.858 276.732L227.461 269.475C227.056 269.316 226.86 268.889 227.056 268.536C227.238 268.17 227.726 268.011 228.132 268.182L246.528 275.439C246.933 275.598 247.129 276.025 246.933 276.379C246.794 276.647 246.5 276.793 246.193 276.793Z" fill="black"/>
<path d="M244.433 284.586C244.321 284.586 244.209 284.562 244.112 284.525L225.561 277.439C225.142 277.28 224.96 276.865 225.142 276.499C225.324 276.134 225.799 275.975 226.218 276.134L244.768 283.22C245.187 283.379 245.369 283.794 245.187 284.159C245.047 284.428 244.754 284.586 244.433 284.586Z" fill="black"/>
<path d="M291.416 84.1268C314.679 84.1268 333.538 65.2944 333.538 42.0634C333.538 18.8324 314.679 0 291.416 0C268.152 0 249.293 18.8324 249.293 42.0634C249.293 65.2944 268.152 84.1268 291.416 84.1268Z" fill="#0091CD"/>
<path d="M291.416 75.0598C309.664 75.0598 324.458 60.2871 324.458 42.0641C324.458 23.841 309.664 9.06836 291.416 9.06836C273.167 9.06836 258.374 23.841 258.374 42.0641C258.374 60.2871 273.167 75.0598 291.416 75.0598Z" fill="#E4E9F3"/>
<path d="M290.127 45.5106C289.956 45.5106 289.805 45.4727 289.634 45.4159C289.236 45.2645 288.932 44.9048 288.838 44.4883L284.857 28.0757C284.686 27.3563 285.122 26.6369 285.843 26.4666C286.544 26.2962 287.283 26.7316 287.454 27.451L290.999 42.0274L313.121 27.5835C313.747 27.1859 314.562 27.3563 314.96 27.9621C315.358 28.5868 315.188 29.4008 314.581 29.7983L290.847 45.2834C290.639 45.4349 290.373 45.5106 290.127 45.5106Z" fill="#0091CD"/>
<path d="M194.465 99.1053C199.345 99.1053 204.226 99.1394 209.106 99.0916C211.804 99.0643 214.543 99.2964 214.543 102.703C214.543 105.83 211.989 106.328 209.388 106.328C201.501 106.328 193.614 106.444 185.733 106.219C184.196 106.171 181.93 105.106 181.409 103.904C180.908 102.751 181.793 100.389 182.843 99.2896C188.424 93.4391 194.252 87.8139 199.991 82.1135C200.45 81.6562 200.869 81.1578 201.967 79.9563C196.593 79.9563 191.994 79.9563 187.394 79.9563C182.761 79.9495 180.805 78.8504 180.846 76.304C180.887 73.7508 182.816 72.6927 187.442 72.6927C194.87 72.6927 202.304 72.5698 209.724 72.8019C211.255 72.8497 213.534 73.8737 214.028 75.0479C214.529 76.2357 213.699 78.6046 212.655 79.7037C206.621 86.0321 200.354 92.1352 194.163 98.3134L194.472 99.1121L194.465 99.1053Z" fill="#0091CD"/>
<path d="M231.054 127.325C233.952 127.325 236.85 127.345 239.747 127.317C241.349 127.301 242.975 127.438 242.975 129.461C242.975 131.317 241.459 131.613 239.914 131.613C235.231 131.613 230.548 131.682 225.87 131.548C224.957 131.52 223.612 130.888 223.302 130.174C223.004 129.489 223.53 128.087 224.154 127.434C227.467 123.961 230.928 120.621 234.335 117.236C234.608 116.964 234.856 116.669 235.509 115.955C232.317 115.955 229.587 115.955 226.856 115.955C224.105 115.951 222.943 115.298 222.968 113.787C222.992 112.271 224.137 111.642 226.884 111.642C231.294 111.642 235.708 111.569 240.114 111.707C241.023 111.736 242.376 112.344 242.67 113.041C242.967 113.746 242.474 115.153 241.854 115.805C238.272 119.563 234.551 123.186 230.875 126.855L231.058 127.329L231.054 127.325Z" fill="#0091CD"/>
</svg>
