<svg width="16" height="16" viewBox="0 0 16 16" fill="none" xmlns="http://www.w3.org/2000/svg">
<path fill-rule="evenodd" clip-rule="evenodd" d="M7.46937 14.4054V14.9368H0.000976562V12.7802C0.000976562 11.8115 0.594883 10.9677 1.53197 10.6245L4.81304 9.40588V7.99983C3.751 7.24933 3.03215 5.87493 3.03215 4.31228C3.03215 1.93749 4.65727 0 6.65723 0C8.65719 0 10.2815 1.93749 10.2815 4.31228C10.2815 5.84328 9.56263 7.21851 8.53141 7.96818V9.5933H8.00081V8.28054C7.59432 8.49961 7.12536 8.59291 6.65723 8.59291C6.18827 8.59291 5.75096 8.49961 5.34447 8.3122V9.78072L1.68857 11.1243C1.00137 11.3742 0.532411 12.0306 0.532411 12.7802V14.4054H7.46937ZM6.65724 0.532632C5.15706 0.532632 3.93843 1.81374 3.62607 3.50133C3.93843 3.62628 4.25079 3.68875 4.62563 3.68875C5.5319 3.68875 6.59477 3.15732 6.93795 2.53259L7.15702 2.1261L7.40691 2.53259C8.00082 3.5638 8.62555 3.90699 9.62511 3.71957C9.65676 3.68875 9.68758 3.68875 9.68758 3.68875C9.46934 1.90703 8.18824 0.532632 6.65724 0.532632ZM3.56357 4.31218C3.56357 6.37461 4.93797 8.06221 6.65722 8.06221C8.34398 8.06221 9.75003 6.37461 9.75003 4.31218V4.21805H9.71921C9.50014 4.28053 9.31272 4.28053 9.1253 4.28053C8.31316 4.28053 7.68843 3.93734 7.157 3.15602C6.59475 3.78075 5.56353 4.21805 4.62561 4.21805C4.25077 4.21805 3.90675 4.15558 3.56357 4.03064V4.31218ZM14.4688 9.59447C15.2185 9.59447 15.9998 10.1259 15.9998 11.3754C15.9998 14.1875 12.9687 15.9067 12.8437 15.9692C12.7813 16 12.7504 16 12.7188 16C12.6563 16 12.6255 16 12.563 15.9692C12.4381 15.9067 9.40689 14.1875 9.40689 11.532C9.40689 10.1884 10.1882 9.59447 10.9695 9.59447C11.6567 9.59447 12.3131 10.0318 12.7188 10.719C13.1569 9.93765 13.8749 9.59447 14.4688 9.59447ZM12.7186 15.4361C13.2816 15.0613 15.469 13.5611 15.469 11.3737C15.469 10.5924 15.0625 10.1243 14.4686 10.1243C13.9372 10.1243 13.2816 10.5299 12.9684 11.4362C12.9376 11.5611 12.8127 11.6236 12.7186 11.6236C12.5936 11.6236 12.5003 11.5611 12.4687 11.4362C12.1563 10.5299 11.4999 10.1243 10.9693 10.1243C10.3438 10.1243 9.93811 10.6865 9.93811 11.5303C9.93811 13.5927 12.1563 15.0613 12.7186 15.4361Z" fill="#005DA2"/>
</svg>
