<svg width="12" height="16" viewBox="0 0 12 16" fill="none" xmlns="http://www.w3.org/2000/svg">
<path fill-rule="evenodd" clip-rule="evenodd" d="M6.00004 16C5.90591 16 5.84343 15.9683 5.78096 15.9059C5.5627 15.5935 0.40625 8.59353 0.40625 5.59379C0.40625 2.49992 2.90617 0 6.00004 0C9.09392 0 11.5938 2.49992 11.5938 5.59379C11.5938 8.59353 6.43738 15.5935 6.21913 15.9059C6.15665 15.9683 6.09418 16 6.00004 16ZM6.00004 0.53201C3.21855 0.53201 0.937717 2.81284 0.937717 5.59433C0.937717 8.09425 5.0004 13.9071 6.00004 15.2816C6.99967 13.9071 11.0624 8.09425 11.0624 5.59433C11.0624 2.81284 8.78152 0.53201 6.00004 0.53201ZM8.40667 5.59396C8.40667 6.93764 7.3129 7.99975 6.00005 7.99975C4.68719 7.99975 3.59342 6.93764 3.59342 5.59396C3.59342 4.28111 4.68719 3.18734 6.00005 3.18734C7.3129 3.18734 8.40667 4.28111 8.40667 5.59396ZM4.12489 5.5945C4.12489 6.62579 4.96875 7.46965 6.00004 7.46965C7.03133 7.46965 7.87519 6.62579 7.87519 5.5945C7.87519 4.56321 7.03133 3.71935 6.00004 3.71935C4.96875 3.71935 4.12489 4.56321 4.12489 5.5945Z" fill="#496374"/>
</svg>
