<svg width="16" height="16" viewBox="0 0 16 16" fill="none" xmlns="http://www.w3.org/2000/svg">
<path fill-rule="evenodd" clip-rule="evenodd" d="M5.34388 12.5313C3.34378 12.5313 0 12.1872 0 10.9377V1.59359C0 0.499818 2.74983 0 5.34388 0C7.90628 0 10.6561 0.499818 10.6561 1.59359V9.06253C13.2502 9.06253 16 9.56235 16 10.6561V14.4064C16 15.656 12.6562 16 10.6561 16C8.68766 16 5.34388 15.656 5.34388 14.4064V12.5313ZM0.531473 10.9376C0.531473 11.3749 2.40662 11.9997 5.34389 11.9997V10.656C3.8436 10.656 1.56276 10.4686 0.531473 9.84382V10.9376ZM10.1255 3.46873V2.3433C9.21914 2.93725 7.21903 3.18716 5.34388 3.18716C3.43791 3.18716 1.46863 2.93725 0.531473 2.3433V3.46873C0.531473 3.90607 2.40662 4.53084 5.34388 4.53084C8.25033 4.53084 10.1255 3.90607 10.1255 3.46873ZM5.34388 5.06236C3.8436 5.06236 1.56276 4.87493 0.531473 4.25016V5.34393C0.531473 5.78127 2.40662 6.40604 5.34388 6.40604C8.25033 6.40604 10.1255 5.78127 10.1255 5.34393V4.25016C9.09418 4.87493 6.84417 5.06236 5.34388 5.06236ZM5.34388 6.93742C3.8436 6.93742 1.56276 6.74999 0.531473 6.09356V7.18733C0.531473 7.62467 2.40662 8.2811 5.34388 8.2811C8.25033 8.2811 10.1255 7.62467 10.1255 7.18733V6.09356C9.09418 6.74999 6.84417 6.93742 5.34388 6.93742ZM15.4693 12.5314V11.4068C14.5314 11.9999 12.5629 12.2815 10.6561 12.2815C8.78178 12.2815 6.78168 11.9999 5.87534 11.4068V12.5314C5.87534 12.9687 7.75049 13.5935 10.6561 13.5935C13.5942 13.5935 15.4693 12.9687 15.4693 12.5314ZM10.6561 15.4685C13.5942 15.4685 15.4693 14.8437 15.4693 14.4064V13.3126C14.4381 13.9374 12.1564 14.1248 10.6561 14.1248C9.15664 14.1248 6.90663 13.9374 5.87534 13.3126V14.4064C5.87534 14.8437 7.75049 15.4685 10.6561 15.4685ZM15.4693 10.6562C15.4693 10.313 13.7816 9.59408 10.6561 9.59408C7.56222 9.59408 5.87534 10.313 5.87534 10.6562C5.87534 11.0311 7.56222 11.7191 10.6561 11.7191C13.7816 11.7191 15.4693 11.0311 15.4693 10.6562ZM5.59379 10.1246C6.25022 9.46898 8.18785 9.12494 10.1255 9.06246V7.96869C9.09418 8.59346 6.84417 8.81255 5.34388 8.81255C3.8436 8.81255 1.56276 8.59346 0.531473 7.96869V9.06246C0.531473 9.4998 2.40662 10.1246 5.34388 10.1246H5.59379ZM5.34388 0.531422C2.21919 0.531422 0.531473 1.24949 0.531473 1.59354C0.531473 1.9684 2.21919 2.65648 5.34388 2.65648C8.43776 2.65648 10.1255 1.9684 10.1255 1.59354C10.1255 1.24949 8.43776 0.531422 5.34388 0.531422Z" fill="#496374"/>
</svg>
