<svg width="64" height="64" viewBox="0 0 64 64" fill="none" xmlns="http://www.w3.org/2000/svg">
<g clip-path="url(#clip0_2594_15003)">
<rect width="64" height="64" rx="8.8" fill="#F4F5F9"/>
<path fill-rule="evenodd" clip-rule="evenodd" d="M32.1578 48.7338C31.4552 49.1673 30.4001 48.805 29.8718 47.9487L18.923 30.2053C18.3936 29.3474 18.5429 28.2419 19.2455 27.8083L30.3904 20.9313C31.093 20.4977 32.148 20.8601 32.6774 21.718L43.6262 39.4614C44.1546 40.3176 44.0052 41.4232 43.3027 41.8567L32.1578 48.7338ZM17.3187 24.6876C16.1638 25.4002 15.8777 27.1824 16.7835 28.6503L31.5838 52.6355C32.4896 54.1034 34.2108 54.6469 35.3657 53.9343L46.5106 47.0572C47.6655 46.3446 47.9516 44.5624 47.0458 43.0945L32.2455 19.1093C31.3397 17.6414 29.6185 17.0979 28.4636 17.8105L17.3187 24.6876ZM21.6156 24.9086C21.364 25.0638 21.0123 24.9431 20.8614 24.6984C20.6732 24.3934 20.7229 24.0249 20.9745 23.8697L26.0946 20.7102C26.3462 20.555 26.6979 20.6758 26.8861 20.9808C27.0371 21.2254 26.9873 21.5939 26.7357 21.7492L21.6156 24.9086ZM35.3875 51.0457L36.2413 50.5188L35.5992 49.4783L34.7454 50.0051L35.3875 51.0457ZM43.0668 46.3072L43.9206 45.7804L43.2785 44.7398L42.4247 45.2667L43.0668 46.3072ZM40.5303 45.0024C40.731 44.8785 41.0445 44.9373 41.2337 45.2439L42.5169 47.3234C42.7061 47.6301 42.6563 47.9986 42.4556 48.1224L38.1384 50.7864C37.9377 50.9103 37.586 50.7895 37.3968 50.4829L36.1136 48.4034C35.9244 48.0967 36.0124 47.7902 36.2131 47.6663L40.5303 45.0024ZM37.9472 49.4678L41.3611 47.3613L40.719 46.3207L37.3052 48.4272L37.9472 49.4678Z" fill="#0072C8"/>
<circle cx="27.639" cy="15.7424" r="5.23683" transform="rotate(-31.6771 27.639 15.7424)" fill="white" stroke="white" stroke-width="0.54321"/>
<line x1="24.429" y1="10.254" x2="21.7589" y2="5.92676" stroke="white" stroke-width="0.54321"/>
<line x1="33.7767" y1="25.3985" x2="31.1065" y2="21.0713" stroke="white" stroke-width="0.54321"/>
<line x1="32.9042" y1="12.1732" x2="37.2314" y2="9.50301" stroke="white" stroke-width="0.54321"/>
<line x1="17.7558" y1="21.5169" x2="22.083" y2="18.8468" stroke="white" stroke-width="0.54321"/>
<line x1="33.9487" y1="16.5605" x2="38.9589" y2="17.428" stroke="white" stroke-width="0.54321"/>
<line x1="16.4135" y1="13.5234" x2="21.4237" y2="14.3909" stroke="white" stroke-width="0.54321"/>
<line x1="28.6243" y1="9.45839" x2="29.6226" y2="4.47264" stroke="white" stroke-width="0.54321"/>
<line x1="25.1282" y1="26.9076" x2="26.1265" y2="21.9219" stroke="white" stroke-width="0.54321"/>
</g>
<defs>
<clipPath id="clip0_2594_15003">
<rect width="64" height="64" rx="8.8" fill="white"/>
</clipPath>
</defs>
</svg>
