<svg width="64" height="64" viewBox="0 0 64 64" fill="none" xmlns="http://www.w3.org/2000/svg">
  <rect width="64" height="64" rx="9.33333" fill="#F4F5F9" />
  <path fill-rule="evenodd" clipRule="evenodd"
    d="M47.0983 40.7866C47.0983 41.8315 46.0067 42.7272 44.7333 42.7272H18.3441C17.0682 42.7272 15.9766 41.8315 15.9766 40.7866V24.2113C15.9766 23.1663 17.0682 22.2707 18.3441 22.2707L44.7333 22.2707C46.0067 22.2707 47.0983 23.1663 47.0983 24.2113V40.7866ZM11.3359 40.7896C11.3359 42.5073 13.0655 44 15.2486 44H50.9209C53.104 44 54.8335 42.5073 54.8335 40.7896V24.2143C54.8335 22.4966 53.104 21.0039 50.9209 21.0039L15.2486 21.0039C13.0655 21.0039 11.3359 22.4966 11.3359 24.2143L11.3359 40.7896ZM14.4304 36.3077C14.4304 36.6819 14.0666 36.9805 13.7027 36.9805C13.2491 36.9805 12.8852 36.6819 12.8852 36.3077V28.6928C12.8852 28.3186 13.2491 28.0201 13.7027 28.0201C14.0666 28.0201 14.4304 28.3186 14.4304 28.6928V36.3077ZM51.7375 38.8481V37.5783H50.1899V38.8481H51.7375ZM51.7375 27.4259V26.1561H50.1899V27.4259H51.7375ZM48.6448 29.2891C48.6448 28.9906 48.9165 28.6921 49.3726 28.6921H52.4653C52.9213 28.6921 53.2852 28.9906 53.2852 29.2891V35.7099C53.2852 36.0085 52.9213 36.307 52.4653 36.307H49.3726C48.9165 36.307 48.6448 36.0085 48.6448 35.7099V29.2891ZM51.7375 35.0381V29.9608H50.1899V35.0381H51.7375Z"
    fill="#0072C8" />
</svg>