<svg width="64" height="64" viewBox="0 0 64 64" fill="none" xmlns="http://www.w3.org/2000/svg">
<rect width="64" height="64" rx="8" fill="#F4F5F9"/>
<rect x="10.508" y="21.5958" width="43.7409" height="23.4826" rx="1.52386" stroke="#0072C8" stroke-width="1.01591"/>
<circle cx="22.2482" cy="33.3381" r="8.44342" fill="white" stroke="#0072C8" stroke-width="1.01591"/>
<line x1="35.4414" y1="28.117" x2="42.5083" y2="28.117" stroke="#0072C8" stroke-width="1.01591"/>
<line x1="44.8633" y1="28.117" x2="51.9302" y2="28.117" stroke="#0072C8" stroke-width="1.01591"/>
<line x1="35.4414" y1="32.3573" x2="51.9308" y2="32.3573" stroke="#0072C8" stroke-width="1.01591"/>
<line x1="35.4414" y1="37.0702" x2="51.9308" y2="37.0702" stroke="#0072C8" stroke-width="1.01591"/>
<path d="M27.9023 25.5616C28.609 25.4831 29.5984 25.7971 27.9023 27.6816V25.5616Z" fill="#F3F5F4" stroke="#C0C1C7" stroke-width="0.203182"/>
<path d="M17.0664 25.3381C16.3589 25.2513 15.3684 25.5985 17.0664 27.6818V25.3381Z" fill="#F3F5F4" stroke="#C0C1C7" stroke-width="0.203182"/>
<path d="M28.2742 27.9196C28.2742 31.918 25.6637 35.1205 22.4867 35.1205C19.3097 35.1205 16.6992 31.918 16.6992 27.9196C16.6992 23.9212 19.3097 20.7188 22.4867 20.7188C25.6637 20.7188 28.2742 23.9212 28.2742 27.9196Z" fill="#F4F5F9" stroke="#0072C8" stroke-width="0.203182"/>
<circle cx="20.3657" cy="25.3266" r="0.471125" fill="#0072C8"/>
<circle cx="24.6039" cy="25.3266" r="0.471125" fill="#0072C8"/>
<g filter="url(#filter0_f_2594_15047)">
<circle cx="22.4867" cy="27.684" r="0.471125" fill="#C4C4C4"/>
</g>
<path d="M18.9531 24.5148C19.3457 24.2007 20.178 23.6668 20.3665 24.0437" stroke="#0072C8" stroke-width="0.609546"/>
<path d="M26.0195 24.3852C25.6269 24.1389 24.7946 23.7202 24.6062 24.0157" stroke="#0072C8" stroke-width="0.609546"/>
<line x1="20.3672" y1="30.203" x2="24.6073" y2="30.203" stroke="#0072C8" stroke-width="0.609546"/>
<g filter="url(#filter1_f_2594_15047)">
<line x1="21.3086" y1="31.4159" x2="23.6642" y2="31.4159" stroke="#DFDEE0" stroke-width="1.01591"/>
</g>
<g filter="url(#filter2_f_2594_15047)">
<line x1="22.758" y1="25.3262" x2="22.758" y2="27.6818" stroke="#DFDEE0" stroke-width="1.01591"/>
</g>
<path d="M17.0657 20.616C15.8897 22.7363 17.0657 23.6309 17.0657 25.5628C18.1964 25.3741 18.9502 23.5999 19.1857 22.7363C21.3843 22.1867 25.7815 21.4172 25.7815 22.7363C25.7815 24.0555 27.1948 25.3275 27.9015 25.7986C28.2941 24.0711 28.7967 20.616 27.666 20.616C26.5353 20.616 25.4674 19.3598 25.0748 18.7318C25.703 18.5746 26.7237 18.1191 25.7815 17.5539C24.8392 16.9888 21.7769 17.7894 20.3635 18.2603C20.8347 17.7107 21.4942 16.7056 20.3635 17.0825C19.2328 17.4594 18.2417 18.4956 17.0657 20.616Z" fill="#005491"/>
<path d="M28.5936 38C28.5936 38.2989 28.4596 38.6735 28.1605 39.0851C27.8645 39.4924 27.4257 39.9091 26.8691 40.2844C25.7555 41.035 24.2088 41.5936 22.5 41.5936C20.7912 41.5936 19.2445 41.035 18.1309 40.2844C17.5743 39.9091 17.1355 39.4924 16.8395 39.0851C16.5404 38.6735 16.4064 38.2989 16.4064 38C16.4064 37.4256 16.9279 36.7767 18.0741 36.2476C19.1858 35.7345 20.7502 35.4064 22.5 35.4064C24.2498 35.4064 25.8142 35.7345 26.9259 36.2476C28.0721 36.7767 28.5936 37.4256 28.5936 38Z" fill="#0072C8" stroke="#0072C8" stroke-width="0.812727"/>
<defs>
<filter id="filter0_f_2594_15047" x="20.9997" y="26.197" width="2.97322" height="2.97322" filterUnits="userSpaceOnUse" color-interpolation-filters="sRGB">
<feFlood flood-opacity="0" result="BackgroundImageFix"/>
<feBlend mode="normal" in="SourceGraphic" in2="BackgroundImageFix" result="shape"/>
<feGaussianBlur stdDeviation="0.507955" result="effect1_foregroundBlur_2594_15047"/>
</filter>
<filter id="filter1_f_2594_15047" x="20.2927" y="29.8923" width="4.38729" height="3.04744" filterUnits="userSpaceOnUse" color-interpolation-filters="sRGB">
<feFlood flood-opacity="0" result="BackgroundImageFix"/>
<feBlend mode="normal" in="SourceGraphic" in2="BackgroundImageFix" result="shape"/>
<feGaussianBlur stdDeviation="0.507955" result="effect1_foregroundBlur_2594_15047"/>
</filter>
<filter id="filter2_f_2594_15047" x="21.2341" y="24.3103" width="3.04744" height="4.38729" filterUnits="userSpaceOnUse" color-interpolation-filters="sRGB">
<feFlood flood-opacity="0" result="BackgroundImageFix"/>
<feBlend mode="normal" in="SourceGraphic" in2="BackgroundImageFix" result="shape"/>
<feGaussianBlur stdDeviation="0.507955" result="effect1_foregroundBlur_2594_15047"/>
</filter>
</defs>
</svg>
