<svg width="351" height="300" viewBox="0 0 351 300" fill="none" xmlns="http://www.w3.org/2000/svg">
<path d="M45.0761 277.747H241.541C243.666 264.169 228.429 255.209 217.892 246.646C204.87 236.065 195.77 217.625 202.356 202.029C204.87 196.035 209.421 191.173 214.39 187.075C233.937 170.959 260.67 165.179 278.451 147.075C291.623 133.681 298.298 114.935 301.741 96.2802C303.866 84.7206 304.884 72.6717 302.1 61.2345C299.316 49.8278 292.221 39.0327 281.714 34.2315C267.196 27.5955 250.342 33.4364 235.704 39.8278C221.065 46.2192 205.08 53.2834 189.783 48.8186C172.84 43.8645 126.051 -34.759 82.4652 18.3295C69.2638 34.415 56.3318 35.0878 30.1684 35.0878C11.399 35.0878 0.861766 64.1702 3.4362 79.8277C6.01063 95.4851 16.6376 109.828 25.0195 123.191C31.1562 132.947 38.1611 143.344 37.5025 154.934C36.6044 170.989 21.9362 181.907 12.3569 194.69C1.4006 209.307 -3.32917 229.338 2.53814 246.738C8.40545 264.139 27.1449 279.521 45.0761 277.747Z" fill="#D8E0E6"/>
<path d="M224.551 70.4795L205.49 106.121L250.745 76.1811L224.551 70.4795Z" fill="#ED2B41"/>
<path d="M247.881 88.3007C278.457 88.3007 303.244 71.6651 303.244 51.144C303.244 30.6229 278.457 13.9873 247.881 13.9873C217.305 13.9873 192.518 30.6229 192.518 51.144C192.518 71.6651 217.305 88.3007 247.881 88.3007Z" fill="#ED2B41"/>
<ellipse cx="247.73" cy="51.4657" rx="18.7753" ry="18.7753" fill="white"/>
<rect x="245.384" y="42.0781" width="4.22444" height="14.7855" rx="2.11222" fill="#ED2B41"/>
<ellipse cx="247.496" cy="61.0881" rx="2.11222" ry="2.11222" fill="#ED2B41"/>
<path d="M133.717 66.7157C133.717 66.7157 152.046 75.9853 152.226 92.0347C152.376 106.224 144.696 109.344 144.696 109.344L113.438 99.7144L133.717 66.7457V66.7157Z" fill="black"/>
<path d="M105.487 54.0264C105.487 54.0264 85.2982 67.2258 79.0285 80.3053C71.6787 95.6647 76.9885 107.364 76.9885 107.364C76.9885 107.364 50.0796 109.524 49.5996 130.883C49.1196 152.242 78.1885 153.412 78.1885 153.412L152.825 146.903C152.825 146.903 167.045 129.713 149.616 107.394C133.626 86.905 105.487 54.0564 105.487 54.0564V54.0264Z" fill="black"/>
<path d="M125.706 124.793C125.706 124.793 161.165 127.943 174.454 145.042C187.773 162.141 170.164 269.447 169.234 270.947C168.274 272.447 143.525 285.016 100.567 282.437C67.5983 280.427 54.6988 272.297 53.2889 269.987C51.8489 267.677 59.5886 143.722 70.0282 133.463C80.4978 123.203 99.787 121.673 125.706 124.793Z" fill="#0091CD"/>
<path d="M276.687 185.932L277.496 180.772C277.496 180.772 297.236 165.743 309.385 160.793C314.485 158.693 321.655 160.433 315.625 167.213C312.355 170.873 310.735 175.193 310.735 175.193C310.735 175.193 320.485 172.103 327.174 167.663C331.464 164.813 337.734 153.414 341.394 155.873C347.244 159.803 340.524 170.963 340.524 170.963C340.524 170.963 343.554 156.833 349.344 162.353C355.103 167.843 339.384 195.592 331.914 202.192C324.445 208.821 284.996 216.531 284.996 216.531L276.687 185.902V185.932Z" fill="#F8AFB8"/>
<path d="M318.267 181.251C327.537 180.351 335.876 172.551 336.236 172.221C336.596 171.891 336.596 171.352 336.266 170.992C335.936 170.632 335.396 170.632 335.036 170.962C334.946 171.052 326.757 178.671 318.177 179.511C317.697 179.571 317.337 179.991 317.397 180.471C317.427 180.921 317.817 181.251 318.267 181.251Z" fill="black"/>
<path d="M328.498 187.642C328.678 187.642 328.858 187.582 329.008 187.462L337.258 181.282C337.648 180.982 337.708 180.442 337.438 180.052C337.138 179.662 336.598 179.602 336.208 179.872L328.438 185.692L311.639 175.492C311.219 175.252 310.679 175.372 310.439 175.792C310.199 176.212 310.319 176.752 310.739 176.992L328.048 187.492C328.048 187.492 328.348 187.612 328.498 187.612V187.642Z" fill="black"/>
<path d="M295.198 187.312C295.198 187.312 295.378 187.312 295.468 187.282C305.338 184.162 311.578 177.142 311.848 176.842C312.178 176.482 312.118 175.942 311.758 175.612C311.398 175.282 310.858 175.342 310.528 175.702C310.468 175.762 304.348 182.662 294.958 185.602C294.508 185.752 294.238 186.232 294.388 186.682C294.508 187.042 294.838 187.282 295.228 187.282L295.198 187.312Z" fill="black"/>
<path d="M170.042 140.483C170.042 140.483 210.241 176.002 242.669 178.072C258.299 179.062 279.298 171.592 279.298 171.592L297.927 220.37C297.927 220.37 232.38 282.468 165.603 233.54C146.403 219.47 170.042 140.483 170.042 140.483Z" fill="#0091CD"/>
<path d="M269.62 172.515L277.644 169.836C279.294 169.285 281.05 170.186 281.591 171.808L298.813 223.397C299.364 225.047 298.463 226.803 296.841 227.344L288.817 230.023C287.166 230.574 285.411 229.673 284.87 228.051L267.648 176.462C267.097 174.812 267.998 173.056 269.62 172.515Z" fill="#D8E0E6"/>
<path d="M169.954 202.881C170.374 202.881 170.734 202.581 170.794 202.161C175.564 176.753 161.914 157.523 161.764 157.313C161.494 156.923 160.954 156.833 160.564 157.103C160.174 157.373 160.084 157.913 160.354 158.303C160.474 158.483 173.704 177.143 169.084 201.802C168.994 202.282 169.294 202.731 169.774 202.821C169.834 202.821 169.894 202.821 169.924 202.821L169.954 202.881Z" fill="#E6F4FF"/>
<path d="M134.585 80.0344C134.585 80.0344 150.454 73.9147 151.234 86.0942C152.134 100.164 135.365 99.6836 135.365 99.6836L134.585 80.0344Z" fill="#F8AFB8"/>
<path d="M141.932 92.8758C142.202 92.8758 142.472 92.7258 142.652 92.4858L148.202 83.7261C148.442 83.3361 148.322 82.7962 147.932 82.5562C147.542 82.3162 147.002 82.4362 146.762 82.8262L141.212 91.5858C140.972 91.9758 141.092 92.5158 141.482 92.7558C141.632 92.8458 141.782 92.8758 141.932 92.8758Z" fill="black"/>
<path d="M148.116 90.4156C148.566 90.4156 148.926 90.0556 148.956 89.6057C148.956 89.1257 148.626 88.7357 148.146 88.7057L143.676 88.4657C143.136 88.4657 142.806 88.7957 142.776 89.2757C142.776 89.7556 143.106 90.1456 143.586 90.1756L148.056 90.4156H148.086H148.116Z" fill="black"/>
<path d="M105.157 109.345L104.438 130.164C104.438 130.164 110.647 133.794 118.567 134.244C129.246 134.814 133.086 128.604 133.086 128.604L133.716 109.345H105.157Z" fill="#F8AFB8"/>
<path d="M105.156 112.074C105.156 112.074 109.806 127.194 122.016 125.814C131.855 124.704 134.555 110.274 134.555 110.274L105.156 112.044V112.074Z" fill="black"/>
<path d="M140.046 68.1559C140.046 68.1559 145.806 98.4547 136.717 111.444C126.967 125.394 113.348 119.994 107.948 115.494C100.658 109.464 98.3181 101.995 98.3181 101.995C98.3181 101.995 87.9385 103.674 84.7886 95.1248C81.4888 86.1552 88.1785 79.2555 93.3683 79.0155C98.5581 78.7755 99.0981 79.7354 99.0981 79.7354L97.9281 70.2558C97.9281 70.2558 130.567 36.5372 140.046 68.1259V68.1559Z" fill="#F8AFB8"/>
<path d="M96.9357 93.2653C97.1757 93.2653 97.3857 93.1753 97.5657 92.9953C97.8957 92.6653 97.8657 92.1254 97.5057 91.7954L89.796 84.6857C89.436 84.3857 88.926 84.3857 88.5961 84.7457C88.2661 85.0756 88.2961 85.6156 88.656 85.9456L96.3657 93.0553C96.5157 93.2053 96.7257 93.2653 96.9357 93.2653Z" fill="black"/>
<path d="M89.5278 94.2548C89.7078 94.2548 89.8578 94.1948 90.0078 94.1048L94.8376 90.745C95.2276 90.475 95.3175 89.965 95.0476 89.575C94.7776 89.185 94.2376 89.095 93.8776 89.365L89.0478 92.7249C88.6578 92.9949 88.5678 93.5049 88.8378 93.8948C89.0178 94.1348 89.2578 94.2548 89.5278 94.2548Z" fill="black"/>
<path d="M123.606 99.5946C123.876 99.5946 124.116 99.4746 124.296 99.2346C128.076 93.9249 125.226 86.1252 125.106 85.7952C124.956 85.3452 124.476 85.1352 124.026 85.2852C123.576 85.4352 123.366 85.9452 123.516 86.3652C123.516 86.4252 126.156 93.6549 122.916 98.2147C122.646 98.6047 122.736 99.1146 123.126 99.3846C123.276 99.5046 123.456 99.5346 123.606 99.5346V99.5946Z" fill="black"/>
<path d="M135.275 76.9171C135.485 76.9171 135.695 76.8571 135.845 76.6772C136.175 76.3472 136.205 75.8372 135.905 75.4772C133.955 73.3773 130.385 73.0173 130.205 73.0173C129.695 72.9573 129.335 73.3173 129.275 73.7673C129.245 74.2172 129.575 74.6372 130.025 74.6972C130.025 74.6972 133.115 74.9972 134.615 76.6471C134.795 76.8271 135.005 76.9171 135.245 76.9171H135.275Z" fill="black"/>
<path d="M110.286 76.2565C110.526 76.2565 110.736 76.1665 110.916 75.9865C112.176 74.6366 114.666 74.1566 115.536 74.0966C116.016 74.0666 116.346 73.6466 116.316 73.1966C116.286 72.7467 115.926 72.3867 115.416 72.4167C115.266 72.4167 111.666 72.7467 109.716 74.8466C109.386 75.1766 109.416 75.7165 109.746 76.0465C109.896 76.1965 110.106 76.2865 110.316 76.2865L110.286 76.2565Z" fill="black"/>
<path d="M117.304 108.055C115.714 107.545 114.544 106.105 113.854 103.765C113.764 103.465 113.854 103.135 114.064 102.925C114.304 102.715 114.604 102.625 114.904 102.715L122.404 105.175C122.704 105.265 122.914 105.505 122.974 105.835C123.034 106.135 122.914 106.435 122.674 106.645C122.584 106.735 120.664 108.265 118.504 108.265C118.084 108.265 117.694 108.205 117.274 108.085L117.304 108.055ZM116.134 104.875C116.584 105.685 117.154 106.225 117.814 106.435C118.594 106.675 119.434 106.495 120.124 106.195L116.134 104.875Z" fill="black"/>
<path d="M125.645 136.525C125.645 136.525 129.665 171.593 129.665 196.672C129.665 217.042 128.015 258.26 128.015 258.26H116.345C116.345 258.26 119.105 204.052 119.105 190.793C119.105 176.303 116.285 136.555 116.285 136.555C116.285 136.555 119.795 132.685 125.675 136.555L125.645 136.525Z" fill="#D8E0E6"/>
<path d="M90.4142 267.823L142.132 299.382C144.022 300.522 146.932 300.042 148.672 298.302L218.539 227.865C220.279 226.125 220.159 223.785 218.269 222.645L166.551 191.086C164.661 189.946 161.751 190.426 160.011 192.166L90.1442 262.603C88.4043 264.343 88.5243 266.683 90.4142 267.823Z" fill="#00253D"/>
<path d="M85.208 242.81C87.9079 239.541 91.9578 237.771 96.1876 238.011C103.087 238.431 113.467 239.241 115.867 240.351C119.527 242.06 127.866 248.75 127.866 248.75L124.446 253.61C124.446 253.61 156.125 270.139 153.545 276.679C151.805 281.119 137.736 274.759 137.736 274.759C137.736 274.759 151.775 282.559 149.345 287.419C146.916 292.278 128.796 284.629 128.796 284.629C128.796 284.629 142.776 293.598 135.366 295.788C127.956 297.978 77.4683 284.119 74.8284 269.269C73.0885 259.49 80.1382 248.93 85.208 242.81Z" fill="#F8AFB8"/>
<path d="M125.648 254.028C125.918 254.028 126.218 253.878 126.368 253.638C126.608 253.248 126.488 252.708 126.098 252.468L118.028 247.458C117.638 247.218 117.098 247.338 116.858 247.728C116.618 248.118 116.738 248.658 117.128 248.898L125.198 253.908C125.198 253.908 125.498 254.028 125.648 254.028Z" fill="black"/>
<path d="M140.225 276.469C140.525 276.469 140.825 276.319 140.975 276.019C141.185 275.599 141.035 275.089 140.645 274.879L119.496 263.539C119.076 263.329 118.566 263.479 118.356 263.869C118.146 264.289 118.296 264.799 118.686 265.009L139.835 276.349C139.835 276.349 140.105 276.439 140.225 276.439V276.469Z" fill="black"/>
<path d="M131.314 287.117C131.614 287.117 131.914 286.967 132.064 286.667C132.274 286.247 132.124 285.737 131.734 285.527L110.285 273.857C109.865 273.647 109.355 273.797 109.145 274.187C108.935 274.607 109.085 275.117 109.475 275.327L130.924 286.997C130.924 286.997 131.194 287.087 131.314 287.087V287.117Z" fill="black"/>
<path d="M84.3216 226.133L61.0464 273.791C60.2975 275.324 60.9335 277.174 62.4669 277.923L70.1223 281.662C71.6557 282.411 73.5059 281.775 74.2547 280.241L97.53 232.583C98.2789 231.05 97.6429 229.2 96.1095 228.451L88.454 224.712C86.9206 223.963 85.0705 224.599 84.3216 226.133Z" fill="#D8E0E6"/>
<path d="M83.7977 125.845C83.7977 125.845 18.8803 138.564 3.34091 191.692C-14.8084 253.64 57.6087 273.469 57.6087 273.469L83.7977 222.141V125.845Z" fill="#0091CD"/>
<path d="M82.0893 220.55C82.3293 220.55 82.5693 220.46 82.7193 220.28C83.0493 219.92 83.0193 219.38 82.6593 219.05C81.5493 218.06 55.6904 194.541 46.3907 190.011C45.9708 189.801 45.4308 189.981 45.2208 190.401C45.0108 190.821 45.1908 191.361 45.6108 191.571C54.7004 196.011 81.2194 220.1 81.4593 220.34C81.6393 220.49 81.8493 220.58 82.0293 220.58L82.0893 220.55Z" fill="#E6F4FF"/>
<path d="M64.7777 205.7C63.1578 203.27 55.1181 190.941 57.128 186.951C57.428 186.351 58.058 185.631 59.4079 185.571C60.4879 185.541 61.5078 185.901 62.3778 186.741C66.5476 190.761 66.3676 204.62 66.3676 205.22C66.3676 205.61 66.0976 205.94 65.7377 206.03C65.6477 206.03 65.5877 206.06 65.4977 206.06C65.2277 206.06 64.9277 205.91 64.7777 205.67V205.7ZM59.4979 187.311C58.9279 187.311 58.7779 187.551 58.6579 187.731C57.668 189.681 61.1478 196.641 64.5677 202.19C64.3577 197.451 63.5477 190.311 61.1778 188.001C60.6979 187.521 60.1879 187.311 59.6179 187.311H59.4979Z" fill="#E6F4FF"/>
<path d="M133.235 125.574C133.235 125.574 140.585 150.203 138.095 149.723C135.605 149.243 120.936 136.044 120.936 136.044C120.936 136.044 107.976 148.133 104.466 148.223C100.956 148.313 104.466 123.354 104.466 123.354C104.466 123.354 109.926 131.754 120.186 132.354C131.525 133.014 133.235 125.574 133.235 125.574Z" fill="#D8E0E6"/>
<path d="M141.426 79.0753C141.426 79.0753 137.166 71.8456 133.716 66.7458L130.266 61.646C130.266 61.646 126.576 73.4355 118.326 78.0854C110.047 82.7652 100.717 81.8052 100.717 81.8052V89.0349C100.717 89.0349 98.4973 79.4953 96.9373 79.2553C95.3774 79.0153 93.0375 78.6253 90.3076 79.8853C87.5477 81.1452 86.9477 82.4952 86.9477 82.4952C86.9477 82.4952 84.1278 65.1559 85.8678 61.616C87.6077 58.0462 104.317 44.0067 127.626 45.5967C151.355 47.2466 141.456 79.0453 141.456 79.0453L141.426 79.0753Z" fill="black"/>
<path d="M132.034 87.1452C132.514 87.1452 132.874 86.7553 132.874 86.2753L132.784 81.6255L135.124 79.7355C135.484 79.4356 135.544 78.8956 135.244 78.5356C134.944 78.1756 134.404 78.1156 134.044 78.4156L131.374 80.5755C131.164 80.7255 131.044 80.9955 131.074 81.2355L131.194 86.3053C131.194 86.7553 131.584 87.1452 132.034 87.1452Z" fill="black"/>
<path d="M115.206 87.3256C115.686 87.3256 116.046 86.9356 116.046 86.4556L115.956 81.7458L118.206 79.4659C118.536 79.1359 118.536 78.5959 118.206 78.2659C117.876 77.9359 117.336 77.9359 117.006 78.2659L114.516 80.7858C114.366 80.9358 114.276 81.1758 114.276 81.3858L114.396 86.4556C114.396 86.9056 114.786 87.2956 115.236 87.2956L115.206 87.3256Z" fill="black"/>
<path d="M215.012 196.521C208.502 191.062 220.471 176.212 221.851 174.532C222.091 174.262 222.481 174.142 222.811 174.262C223.141 174.382 223.381 174.712 223.381 175.072C223.381 178.402 223.171 195.141 218.551 197.301C218.251 197.451 217.861 197.541 217.441 197.541C216.781 197.541 215.941 197.301 215.012 196.491V196.521ZM216.121 195.201C217.141 196.071 217.651 195.831 217.831 195.741C220.321 194.571 221.401 184.912 221.611 177.652C217.831 182.782 212.282 191.991 216.121 195.171V195.201Z" fill="#E6F4FF"/>
<path d="M195.888 223.785C196.908 223.785 197.928 223.395 198.708 222.645L205.698 215.955C206.058 215.625 206.058 215.085 205.698 214.725C205.368 214.365 204.828 214.365 204.468 214.725L197.478 221.415C196.698 222.165 195.528 222.255 194.628 221.685L176.239 209.985C175.639 209.595 175.249 208.995 175.189 208.305C175.099 207.615 175.339 206.926 175.819 206.416L181.549 200.506C181.879 200.176 181.879 199.606 181.549 199.276C181.219 198.946 180.649 198.946 180.319 199.276L174.589 205.186C173.749 206.056 173.329 207.255 173.479 208.485C173.629 209.715 174.289 210.765 175.339 211.425L193.728 223.125C194.388 223.545 195.168 223.755 195.918 223.755L195.888 223.785Z" fill="#92400E"/>
<path d="M79.6563 78.025C79.6563 78.025 78.2763 75.7451 79.6563 73.9451L81.0062 72.1152C81.0062 72.1152 77.2264 39.4165 108.995 34.7367C140.764 30.0569 144.994 63.2056 144.994 63.2056C144.994 63.2056 161.823 66.7754 153.213 73.1652C144.604 79.5549 93.7257 80.2449 79.6563 78.025Z" fill="#7FC5FA"/>
<path d="M102.967 36.0874C102.967 36.0874 107.047 32.6676 113.137 32.6376C120.757 32.6376 122.317 35.1575 122.317 35.1575C122.317 35.1575 126.487 44.2471 127.656 51.9868C128.826 59.7265 127.207 69.2661 127.207 69.2661C127.207 69.2661 126.757 69.7161 122.287 70.1361C119.287 70.4061 117.067 69.8061 117.067 69.8061C117.067 69.8061 112.057 43.5571 102.938 36.0574L102.967 36.0874Z" fill="#0091CD"/>
</svg>

