<svg width="64" height="64" viewBox="0 0 64 64" fill="none" xmlns="http://www.w3.org/2000/svg">
  <rect width="64" height="64" rx="9.33333" fill="#F4F5F9" />
  <path fill-rule="evenodd" clipRule="evenodd"
    d="M24.2136 45.7638C23.1687 45.7638 22.273 44.6722 22.273 43.3987V17.008C22.273 15.7321 23.1687 14.6404 24.2136 14.6404H40.7899C41.8349 14.6404 42.7306 15.7321 42.7306 17.008V43.3987C42.7306 44.6722 41.8349 45.7638 40.7899 45.7638H24.2136ZM24.2106 10C22.4928 10 21 11.7296 21 13.9129V49.5871C21 51.7704 22.4928 53.5 24.2106 53.5H40.7868C42.5046 53.5 43.9974 51.7704 43.9974 49.5871V13.9129C43.9974 11.7296 42.5046 10 40.7868 10H24.2106ZM28.6931 13.0946C28.3189 13.0946 28.0203 12.7308 28.0203 12.3669C28.0203 11.9132 28.3189 11.5494 28.6931 11.5494H36.3085C36.6827 11.5494 36.9812 11.9132 36.9812 12.3669C36.9812 12.7308 36.6827 13.0946 36.3085 13.0946H28.6931ZM26.152 50.4032H27.4219V48.8556H26.152V50.4032ZM37.5743 50.4032H38.8442V48.8556H37.5743V50.4032ZM35.7113 47.3114C36.0098 47.3114 36.3084 47.5831 36.3084 48.0392V51.1321C36.3084 51.5882 36.0098 51.952 35.7113 51.952H29.2901C28.9916 51.952 28.693 51.5882 28.693 51.1321V48.0392C28.693 47.5831 28.9916 47.3114 29.2901 47.3114H35.7113ZM29.9615 50.4032H35.0391V48.8556H29.9615V50.4032Z"
    fill="#0072C8" />
</svg>