<svg width="64" height="64" viewBox="0 0 64 64" fill="none" xmlns="http://www.w3.org/2000/svg">
<rect width="64" height="64" rx="8.8" fill="#F4F5F9"/>
<g filter="url(#filter0_dd_2594_14493)">
<path d="M33.7352 39.3806C36.2987 39.3806 38.3767 37.3026 38.3767 34.7391C38.3767 32.1757 36.2987 30.0977 33.7352 30.0977C31.1718 30.0977 29.0938 32.1757 29.0938 34.7391C29.0938 37.3026 31.1718 39.3806 33.7352 39.3806Z" fill="#EDEDED"/>
<path d="M28.6573 21.8293C28.6573 17.505 25.153 14 20.8283 14C16.505 14 13 17.5054 13 21.8293C13 26.152 16.505 29.6567 20.8283 29.6567C25.153 29.657 28.6573 26.152 28.6573 21.8293Z" fill="#0386E6"/>
<path d="M21.2338 47.1438C14.3544 40.266 14.3544 29.1132 21.2338 22.2355C28.1115 15.3564 39.2646 15.3564 46.142 22.2355L21.2338 47.1438Z" fill="#0386E6"/>
<path opacity="0.15" d="M36.9685 31.412L46.1452 22.2353C41.1647 17.2542 33.9477 15.8999 27.7304 18.1325C26.4108 15.6735 23.8168 14 20.8299 14C18.8518 14 17.0496 14.74 15.6719 15.9504L37.3451 37.624C37.9825 36.8292 38.3799 35.834 38.3799 34.7358C38.3796 33.4301 37.8366 32.2557 36.9685 31.412Z" fill="black"/>
<path d="M39.2394 39.4194L46.6194 46.7994M42.5194 33.6794L56.4594 32.8594M31.8594 44.3394L33.4994 54.9994" stroke="white"/>
</g>
<defs>
<filter id="filter0_dd_2594_14493" x="9" y="11" width="51.4883" height="49.0762" filterUnits="userSpaceOnUse" color-interpolation-filters="sRGB">
<feFlood flood-opacity="0" result="BackgroundImageFix"/>
<feColorMatrix in="SourceAlpha" type="matrix" values="0 0 0 0 0 0 0 0 0 0 0 0 0 0 0 0 0 0 127 0" result="hardAlpha"/>
<feOffset dy="1"/>
<feGaussianBlur stdDeviation="2"/>
<feColorMatrix type="matrix" values="0 0 0 0 0 0 0 0 0 0.145098 0 0 0 0 0.239216 0 0 0 0.06 0"/>
<feBlend mode="normal" in2="BackgroundImageFix" result="effect1_dropShadow_2594_14493"/>
<feColorMatrix in="SourceAlpha" type="matrix" values="0 0 0 0 0 0 0 0 0 0 0 0 0 0 0 0 0 0 127 0" result="hardAlpha"/>
<feOffset/>
<feGaussianBlur stdDeviation="1"/>
<feColorMatrix type="matrix" values="0 0 0 0 0 0 0 0 0 0.145098 0 0 0 0 0.239216 0 0 0 0.12 0"/>
<feBlend mode="normal" in2="effect1_dropShadow_2594_14493" result="effect2_dropShadow_2594_14493"/>
<feBlend mode="normal" in="SourceGraphic" in2="effect2_dropShadow_2594_14493" result="shape"/>
</filter>
</defs>
</svg>
