<svg width="64" height="64" viewBox="0 0 64 64" fill="none" xmlns="http://www.w3.org/2000/svg">
<rect width="64" height="64" rx="8" fill="#F4F5F9"/>
<path d="M33.5079 19.1941V19.9165C32.3197 19.7493 31.114 19.7493 29.9258 19.9165V19.1941C29.9258 18.8774 30.0516 18.5737 30.2755 18.3497C30.4994 18.1258 30.8032 18 31.1198 18H32.3139C32.6306 18 32.9343 18.1258 33.1582 18.3497C33.3821 18.5737 33.5079 18.8774 33.5079 19.1941Z" fill="#7FC5FA"/>
<path d="M45.3959 38.8304C45.1511 37.7527 44.4078 36.1676 43.6585 34.4183C43.6585 34.4183 38.9987 32.9258 31.718 32.9258C24.4373 32.9258 19.7775 34.4183 19.7775 34.4183C19.0282 36.1676 18.2849 37.7527 18.0402 38.8304C17.9827 39.0731 17.987 39.3264 18.0526 39.5671C18.1183 39.8078 18.2433 40.0282 18.4161 40.2081C18.5889 40.388 18.804 40.5218 19.0419 40.5971C19.2797 40.6725 19.5326 40.687 19.7775 40.6394C23.7029 39.8001 27.704 39.366 31.718 39.3438C35.732 39.366 39.7332 39.8001 43.6585 40.6394C43.9034 40.687 44.1563 40.6725 44.3942 40.5971C44.632 40.5218 44.8472 40.388 45.02 40.2081C45.1928 40.0282 45.3177 39.8078 45.3834 39.5671C45.4491 39.3264 45.4534 39.0731 45.3959 38.8304Z" fill="#7FC5FA"/>
<path d="M31.717 19.791C24.5527 19.791 18.2839 25.4628 19.7765 34.4181C19.7765 34.4181 24.4363 32.9256 31.717 32.9256C38.9977 32.9256 43.6575 34.4181 43.6575 34.4181C45.1501 25.4628 38.8813 19.791 31.717 19.791Z" fill="#0072C8"/>
<path d="M21.9876 33.9004C21.6353 34.781 21.092 36.0377 20.7935 36.79L20.2801 38.0766L19.8711 39.0885L20.9517 38.8945C24.5002 38.2095 28.1051 37.8597 31.7191 37.8497C35.333 37.8597 38.938 38.2095 42.4864 38.8945L43.5581 39.0945L43.1491 38.0826L42.6357 36.796C42.3372 36.0467 41.8058 34.787 41.4416 33.9064" stroke="white" stroke-width="0.223885" stroke-linecap="round" stroke-linejoin="round"/>
<path d="M24.3129 33.4599C29.2246 32.7478 34.2134 32.7478 39.1251 33.4599C39.6803 25.0598 35.9549 19.791 31.719 19.791C27.4831 19.791 23.7577 25.0598 24.3129 33.4599Z" fill="#0072C8"/>
<path d="M24.3129 33.4599C29.2246 32.7478 34.2134 32.7478 39.1251 33.4599C39.6803 25.0598 35.9549 19.791 31.719 19.791C27.4831 19.791 23.7577 25.0598 24.3129 33.4599Z" stroke="white" stroke-width="0.223885" stroke-linecap="round" stroke-linejoin="round"/>
<path d="M45.3959 38.8302C45.1511 37.7526 44.4078 36.1675 43.6585 34.4182C44.975 26.5166 40.2495 21.1762 34.1987 20.0269C34.0047 19.9901 33.8297 19.8867 33.7039 19.7347C33.578 19.5826 33.5091 19.3914 33.5091 19.1941V19.1941C33.5091 18.8774 33.3833 18.5737 33.1594 18.3497C32.9354 18.1258 32.6317 18 32.315 18H31.121C30.8043 18 30.5006 18.1258 30.2767 18.3497C30.0527 18.5737 29.9269 18.8774 29.9269 19.1941C29.9269 19.3914 29.858 19.5826 29.7322 19.7347C29.6063 19.8867 29.4313 19.9901 29.2374 20.0269C23.1865 21.1762 18.4611 26.5166 19.7775 34.4182C19.0282 36.1675 18.2849 37.7526 18.0402 38.8302C17.9827 39.073 17.987 39.3263 18.0526 39.567C18.1183 39.8077 18.2433 40.028 18.4161 40.208C18.5889 40.3879 18.804 40.5217 19.0419 40.597C19.2797 40.6723 19.5326 40.6868 19.7775 40.6392C23.7029 39.7999 27.704 39.3658 31.718 39.3437C35.732 39.3658 39.7332 39.7999 43.6585 40.6392C43.9034 40.6868 44.1563 40.6723 44.3942 40.597C44.632 40.5217 44.8472 40.3879 45.02 40.208C45.1928 40.028 45.3177 39.8077 45.3834 39.567C45.4491 39.3263 45.4534 39.073 45.3959 38.8302Z" stroke="#798C98" stroke-width="0.223885" stroke-linecap="round" stroke-linejoin="round"/>
<path d="M19.7773 34.4183C19.7773 34.4183 24.4371 32.9258 31.7179 32.9258C38.9986 32.9258 43.6584 34.4183 43.6584 34.4183" stroke="#34373E" stroke-width="0.447769" stroke-linecap="round" stroke-linejoin="round"/>
<circle cx="32" cy="32" r="21.5" stroke="#496374"/>
<path d="M20 50L42.6667 14" stroke="#496374"/>
</svg>
