<svg width="64" height="64" viewBox="0 0 64 64" fill="none" xmlns="http://www.w3.org/2000/svg">
<g clip-path="url(#clip0_2594_14521)">
<rect width="64" height="64" rx="8" fill="#F4F5F9"/>
<circle cx="32" cy="32" r="21.5" stroke="#798C98"/>
<g filter="url(#filter0_f_2594_14521)">
<ellipse cx="31.5" cy="24.1974" rx="18.5" ry="11.1974" fill="white" fill-opacity="0.4"/>
<path d="M49.5 24.1974C49.5 27.047 47.5894 29.7101 44.3226 31.6874C41.0651 33.659 36.5328 34.8947 31.5 34.8947C26.4672 34.8947 21.9349 33.659 18.6774 31.6874C15.4106 29.7101 13.5 27.047 13.5 24.1974C13.5 21.3478 15.4106 18.6847 18.6774 16.7074C21.9349 14.7357 26.4672 13.5 31.5 13.5C36.5328 13.5 41.0651 14.7357 44.3226 16.7074C47.5894 18.6847 49.5 21.3478 49.5 24.1974Z" stroke="#496374"/>
</g>
<path d="M31.0836 24.2403C31.0836 25.4996 30.5952 27.18 29.466 28.545C28.3378 29.9088 26.5694 30.9588 24.0059 30.9588C23.4428 30.9588 22.9795 30.7934 22.6003 30.4952C22.2205 30.1966 21.9232 29.7631 21.6957 29.2243C21.2402 28.1458 21.0673 26.6524 21.0673 24.9978C21.0673 24.1738 21.2077 23.5342 21.4597 23.038C21.7114 22.5423 22.0754 22.1877 22.5261 21.9348C23.4296 21.4277 24.6817 21.329 26.0749 21.329C27.465 21.329 28.7196 21.5447 29.6253 22.0174C30.5291 22.4891 31.0836 23.215 31.0836 24.2403Z" fill="#005491" stroke="#005491" stroke-width="0.072"/>
<path d="M39.9653 30.9588C37.4017 30.9588 35.6333 29.9088 34.5052 28.545C33.376 27.18 32.8876 25.4996 32.8876 24.2403C32.8876 23.215 33.4417 22.489 34.3452 22.0174C35.2505 21.5447 36.5047 21.329 37.8948 21.329C39.288 21.329 40.54 21.4277 41.4436 21.9348C41.8943 22.1877 42.2583 22.5423 42.51 23.038C42.762 23.5342 42.9024 24.1738 42.9024 24.9978C42.9024 26.6524 42.7298 28.1458 42.2748 29.2243C42.0474 29.7632 41.7502 30.1966 41.3707 30.4952C40.9916 30.7934 40.5284 30.9588 39.9653 30.9588Z" fill="#005491" stroke="#005491" stroke-width="0.072"/>
<path d="M31.1196 24.2403C31.1196 26.7748 29.1552 30.9948 24.0059 30.9948C21.7231 30.9948 21.0312 28.3098 21.0312 24.9978C21.0312 21.6859 23.2892 21.293 26.0749 21.293C28.8606 21.293 31.1196 22.1571 31.1196 24.2403Z" stroke="#005491" stroke-width="1.08" stroke-linecap="round" stroke-linejoin="round"/>
<path d="M21.0346 25.916H20.1875" stroke="#005491" stroke-width="1.08" stroke-linecap="round" stroke-linejoin="round"/>
<path d="M32.8516 24.2403C32.8516 26.7748 34.816 30.9948 39.9653 30.9948C42.2481 30.9948 42.9384 28.3098 42.9384 24.9978C42.9384 21.6859 40.6805 21.293 37.8948 21.293C35.109 21.293 32.8516 22.1571 32.8516 24.2403Z" stroke="#005491" stroke-width="1.08" stroke-linecap="round" stroke-linejoin="round"/>
<path d="M42.9375 25.916H43.7846" stroke="#005491" stroke-width="1.08" stroke-linecap="round" stroke-linejoin="round"/>
<path d="M31.0977 24.7499C31.0977 24.7499 32.0937 23.9899 32.8537 24.7499H31.0977Z" fill="#005491"/>
<path d="M31.0977 24.7499C31.0977 24.7499 32.0937 23.9899 32.8537 24.7499" stroke="#005491" stroke-width="1.08" stroke-linecap="round" stroke-linejoin="round"/>
<path d="M26.0781 21.293H37.8957" stroke="#005491" stroke-width="1.08" stroke-linecap="round" stroke-linejoin="round"/>
<path d="M23.3516 37.3406C23.3516 35.6966 24.6843 34.3639 26.3283 34.3639C27.3738 34.3639 28.3289 33.8009 29.0077 33.0055C29.7215 32.1691 30.7324 31.2559 31.7433 31.2559C32.9125 31.2559 34.3261 32.4777 35.218 33.3892C35.7977 33.9817 36.5771 34.3639 37.4061 34.3639C38.9132 34.3639 40.135 35.5857 40.135 37.0928V40.2692C40.135 43.5306 37.4911 46.1744 34.2297 46.1744H29.2568C25.9954 46.1744 23.3516 43.5306 23.3516 40.2692V37.3406Z" fill="#0386E6"/>
<path fill-rule="evenodd" clip-rule="evenodd" d="M42.2623 37.4712H21.2274C18.8595 37.4712 17.832 40.4677 19.7015 41.9208L20.5013 42.5424C20.9376 42.8816 21.4745 43.0657 22.0272 43.0657H41.4626C42.0152 43.0657 42.5521 42.8816 42.9885 42.5424L43.7882 41.9208C45.6577 40.4677 44.6302 37.4712 42.2623 37.4712ZM21.2274 36.8496C18.2676 36.8496 16.9831 40.5952 19.32 42.4116L20.1198 43.0332C20.6652 43.4571 21.3363 43.6873 22.0272 43.6873H41.4626C42.1534 43.6873 42.8245 43.4571 43.3699 43.0332L44.1697 42.4116C46.5066 40.5952 45.2221 36.8496 42.2623 36.8496H21.2274Z" fill="#0386E6"/>
<path fill-rule="evenodd" clip-rule="evenodd" d="M36.2291 38.3758C32.388 40.1683 28.4519 39.1254 26.9453 38.3721L27.2233 37.8162C28.6176 38.5133 32.3479 39.501 35.9662 37.8125L36.2291 38.3758Z" fill="white"/>
<path fill-rule="evenodd" clip-rule="evenodd" d="M36.2291 40.2391C32.388 42.0315 28.4519 40.9887 26.9453 40.2354L27.2233 39.6794C28.6176 40.3766 32.3479 41.3643 35.9662 39.6758L36.2291 40.2391Z" fill="white"/>
<path fill-rule="evenodd" clip-rule="evenodd" d="M36.2291 42.7274C32.388 44.5198 28.4519 43.477 26.9453 42.7237L27.2233 42.1677C28.6176 42.8648 32.3479 43.8526 35.9662 42.1641L36.2291 42.7274Z" fill="white"/>
<path d="M20 50L43 13.5" stroke="#798C98"/>
</g>
<defs>
<filter id="filter0_f_2594_14521" x="-2" y="-2" width="67" height="52.3945" filterUnits="userSpaceOnUse" color-interpolation-filters="sRGB">
<feFlood flood-opacity="0" result="BackgroundImageFix"/>
<feBlend mode="normal" in="SourceGraphic" in2="BackgroundImageFix" result="shape"/>
<feGaussianBlur stdDeviation="7.5" result="effect1_foregroundBlur_2594_14521"/>
</filter>
<clipPath id="clip0_2594_14521">
<rect width="64" height="64" rx="8" fill="white"/>
</clipPath>
</defs>
</svg>
