<svg width="292" height="300" viewBox="0 0 292 300" fill="none" xmlns="http://www.w3.org/2000/svg">
<path d="M248.525 281.2H59.9638C57.9239 268.41 72.5479 259.969 82.6612 251.903C95.1591 241.936 103.893 224.566 97.5725 209.874C95.1591 204.228 90.792 199.648 86.0227 195.788C67.2614 180.607 41.6047 175.162 24.5386 158.109C11.897 145.491 5.49002 127.833 2.18597 110.261C0.146088 99.3718 -0.83078 88.022 1.84122 77.2483C4.51318 66.5034 11.3224 56.3346 21.407 51.8119C35.3414 45.5609 51.5169 51.063 65.5663 57.0836C79.6157 63.1042 94.958 69.7585 109.639 65.5527C125.901 60.8861 170.807 -13.176 212.64 36.8325C225.31 51.9848 237.722 52.6185 262.832 52.6185C280.847 52.6185 290.96 80.0137 288.489 94.7627C286.018 109.512 275.819 123.022 267.774 135.611C261.884 144.8 255.161 154.594 255.793 165.512C256.655 180.635 270.733 190.92 279.927 202.961C290.443 216.73 294.982 235.599 289.351 251.99C283.72 268.381 265.734 282.87 248.525 281.2Z" fill="#D8E0E6"/>
<path d="M138.228 67.0312C138.228 67.0312 144.658 70.4722 149.397 84.5464C151.738 91.4847 151.343 106.264 151.343 106.264C151.343 106.264 174.499 132.889 173.737 149.812C172.976 166.735 139.328 160.981 139.328 160.981L125.141 136.415L131.628 111.087L138.228 67.0312Z" fill="#00253D"/>
<path d="M201.964 182.335L211.808 140.535L249.799 143.722C249.799 143.722 273.097 240.38 237.136 256.964C203.91 272.251 177.088 240.972 177.088 240.972L201.964 182.335Z" fill="#F8AFB8"/>
<path d="M86.4152 86.2689C86.4152 86.2689 76.4025 85.8176 67.377 96.3098C58.3515 106.802 62.1873 120.932 62.1873 120.932C62.1873 120.932 45.5465 128.266 42.021 148.065C38.4954 167.837 54.0644 174.521 54.0644 174.521L104.72 164.396L112.42 99.6662L96.5689 82.0664L86.4152 86.2689Z" fill="#00253D"/>
<path d="M30.4218 217.198C30.4218 217.198 37.6705 144.345 73.8289 135.404C109.987 126.463 135.061 134.022 155.312 142.624C174.83 150.973 201.963 182.337 201.963 182.337L186.366 251.692L166.284 247.912L166.622 274.425L60.1496 277.274L46.6396 221.739L30.4218 217.198Z" fill="#0072C8"/>
<path d="M105.394 127.336C105.394 127.336 98.0891 127.9 95.5789 131.764C92.7584 136.108 94.0276 151.564 109.061 160.448C120.061 166.935 129.34 169.248 129.34 169.248C129.34 169.248 138.901 156.02 140.735 147.954C142.568 139.915 131.004 130.41 131.004 130.41L105.394 127.336Z" fill="#ED2B41"/>
<path d="M103.998 112.465L103.857 135.565C103.857 135.565 107.974 142.221 121.485 143.405C131.554 144.28 135.107 142.023 135.107 142.023L133.782 130.318L132.456 118.896L108.087 113.367L103.998 112.465Z" fill="#F8AFB8"/>
<path d="M108.107 113.406C108.164 114.027 108.389 114.788 108.756 115.634C113.861 127.198 127.963 129.793 133.773 130.329L132.448 118.906L108.107 113.406Z" fill="#00253D"/>
<path d="M137.948 66.3001C137.948 66.3001 149.879 95.3227 145 111.399C140.12 127.448 125.454 124.599 116.71 121.271C107.967 117.943 103.99 112.471 103.99 112.471C103.99 112.471 95.6978 115.094 90.3671 107.31C85.0364 99.5534 88.6184 90.8382 93.3568 88.9203C98.0952 87.0023 103.623 90.5279 103.623 90.5279L99.4208 82.0665C99.449 82.0665 118.769 39.9851 137.948 66.3001Z" fill="#F8AFB8"/>
<path d="M135.852 102.771C136.191 102.771 136.529 102.546 136.642 102.207C138.701 96.1432 134.583 89.7972 134.385 89.5151C134.132 89.1203 133.596 89.0074 133.201 89.2895C132.806 89.5433 132.693 90.0792 132.975 90.4741C133.003 90.5305 136.839 96.3971 135.034 101.671C134.893 102.123 135.119 102.602 135.57 102.743C135.683 102.743 135.768 102.771 135.852 102.771Z" fill="#00253D"/>
<path d="M102.042 103.926C102.24 103.926 102.437 103.842 102.606 103.701C102.945 103.39 102.973 102.854 102.663 102.516L95.0757 94.0264C94.7655 93.688 94.2296 93.6597 93.8911 93.97C93.5527 94.2803 93.5245 94.8161 93.8347 95.1546L101.422 103.644C101.591 103.813 101.817 103.926 102.042 103.926Z" fill="#00253D"/>
<path d="M93.8574 101.474C93.9702 101.474 99.3855 100.797 99.3855 100.797C99.8368 100.741 100.175 100.318 100.119 99.8666C100.062 99.4154 99.6676 99.0487 99.1881 99.1333L93.7728 99.8102C93.3215 99.8666 92.9831 100.29 93.0395 100.769C93.0677 101.136 93.4061 101.474 93.8574 101.474Z" fill="#00253D"/>
<path d="M125.681 76.1034C125.504 76.1908 125.352 76.3288 125.288 76.5177C124.026 79.3117 120.139 79.7215 120.113 79.7339C119.634 79.782 119.304 80.1967 119.339 80.6509C119.387 81.1305 119.802 81.4605 120.256 81.4249C120.458 81.388 125.165 80.9193 126.824 77.2064C127.015 76.7659 126.828 76.2604 126.4 76.0943C126.161 75.9922 125.909 75.991 125.681 76.1034Z" fill="#00253D"/>
<path d="M137.39 75.6497C137.231 75.5921 137.053 75.5876 136.882 75.6457C136.441 75.7861 136.162 76.2251 136.293 76.6923C136.678 78.0316 138.32 80.4557 141.937 79.9948C142.411 79.9266 142.743 79.5069 142.665 79.0588C142.597 78.5842 142.177 78.2522 141.729 78.33C138.677 78.725 137.97 76.3693 137.945 76.2706C137.82 75.9551 137.629 75.7361 137.39 75.6497Z" fill="#00253D"/>
<path d="M123.135 91.6559C123.671 91.5995 124.038 91.2046 123.981 90.7251L123.474 85.6765L125.533 82.997C125.815 82.6304 125.758 82.0945 125.363 81.8124C124.997 81.5304 124.461 81.615 124.179 81.9816L121.922 84.9431C121.781 85.1124 121.725 85.338 121.753 85.5354L122.289 90.9225C122.317 91.3456 122.684 91.6559 123.135 91.6559Z" fill="#00253D"/>
<path d="M139.075 90.8401C139.639 90.7837 139.977 90.3606 139.921 89.8811L139.329 84.8325L141.077 82.1248C141.331 81.73 141.218 81.1941 140.824 80.9402C140.429 80.6864 139.921 80.7992 139.639 81.1941L137.721 84.1556C137.608 84.3248 137.58 84.5222 137.58 84.7197L138.2 90.0786C138.285 90.5298 138.652 90.8401 139.075 90.8401Z" fill="#00253D"/>
<path d="M104.075 94.9842C104.075 94.9842 112.649 90.3022 116.006 83.6459C119.39 76.9895 118.403 70.6999 118.403 70.6999C118.403 70.6999 123.79 74.3665 131.49 73.2665C139.19 72.1665 143.533 64.3538 142.067 58.3462C141.333 55.3565 135.89 56.4847 135.89 56.4847C135.89 56.4847 130.249 49.1797 120.49 50.4489C110.731 51.7181 108.249 57.4437 108.249 57.4437C108.249 57.4437 100.408 57.3026 94.5419 61.5334C88.6753 65.7641 88.6189 74.5921 88.6189 74.5921C88.6189 74.5921 83.9933 77.0177 83.8523 81.6715C83.7113 86.3253 88.2804 95.1816 88.2804 95.1816C88.2804 95.1816 95.106 85.4228 104.075 94.9842Z" fill="#00253D"/>
<path d="M165.809 252.083C166.288 252.083 166.655 251.717 166.655 251.237V226.868C167.078 225.571 170.293 215.304 171.534 200.92C172.86 185.436 162.001 167.892 161.522 167.159C161.268 166.764 160.732 166.651 160.365 166.905C159.97 167.159 159.858 167.667 160.083 168.061C160.196 168.231 171.111 185.859 169.842 200.779C168.545 215.868 165.047 226.361 164.991 226.473C164.963 226.558 164.934 226.643 164.934 226.756V251.237C164.963 251.688 165.329 252.083 165.809 252.083Z" fill="white"/>
<path d="M100.8 233.867C101.139 233.867 101.477 233.642 101.59 233.303C102.239 231.47 107.88 215.252 103.593 211.332C102.718 210.542 101.985 210.711 101.618 210.88C98.7695 212.262 99.4746 226.844 99.9259 233.078C99.9541 233.472 100.264 233.811 100.659 233.867C100.716 233.867 100.772 233.867 100.8 233.867ZM102.323 212.488C102.351 212.516 102.408 212.545 102.464 212.601C104.551 214.519 103.198 222.134 101.393 228.424C101.082 220.78 101.336 213.503 102.323 212.488Z" fill="white"/>
<path d="M103.111 129.68C103.111 129.68 112.446 142.597 125.731 141.695C135.179 141.046 134.503 133.798 134.503 133.798L138.705 146.292L126.972 158.166L106.016 149.733L94.2544 136.59L103.111 129.68Z" fill="#ED2B41"/>
<path d="M120.254 160.28C120.254 160.28 113.146 169.982 111.708 185.241C110.269 200.472 119.125 217.62 119.125 217.62C119.125 217.62 133.312 201.543 135.202 189.387C137.092 177.231 130.576 159.998 130.576 159.998C130.576 159.998 137.007 174.636 138.587 183.577C140.166 192.518 142.366 204.025 142.366 204.025C142.366 204.025 150.968 192.602 150.461 179.064C149.953 165.526 135.399 156.613 135.399 156.613L120.254 160.28Z" fill="#ED2B41"/>
<path d="M122.036 164.312C125.985 164.312 131.259 162.873 131.626 162.76C131.936 162.619 132.105 162.478 132.19 162.281C132.698 161.068 137.154 150.266 134.559 146.684C134.108 146.063 133.205 145.33 131.626 145.471C130.329 145.584 129.285 146.176 128.664 147.248C126.521 150.773 129.229 158.614 130.272 161.378C127.564 162.055 122.347 163.07 119.977 162.394C117.242 161.604 116.113 153.283 117.016 148.884C117.101 148.432 116.819 147.981 116.367 147.896C115.888 147.784 115.465 148.094 115.38 148.545C114.534 152.663 115.239 162.76 119.554 164.001C120.203 164.227 121.077 164.312 122.036 164.312ZM131.993 147.135C132.726 147.135 133.008 147.445 133.177 147.671C134.503 149.476 133.008 155.286 131.429 159.601C130.188 156.076 128.693 150.407 130.103 148.122C130.47 147.53 130.977 147.219 131.767 147.163C131.823 147.163 131.908 147.135 131.993 147.135Z" fill="white"/>
<path d="M122.521 184.955C123.48 184.955 124.326 184.532 124.947 183.771C128.218 179.709 125.088 165.381 124.721 163.774C124.636 163.407 124.326 163.153 123.959 163.125C123.536 163.069 123.226 163.322 123.113 163.689C122.521 165.325 117.388 179.738 120.208 183.799C120.744 184.532 121.534 184.955 122.521 184.955ZM123.706 167.243C124.608 172.404 125.511 180.386 123.649 182.727C123.339 183.094 123.001 183.263 122.549 183.263C122.183 183.235 121.844 183.122 121.618 182.784C120.124 180.697 121.844 173.081 123.706 167.243Z" fill="white"/>
<path d="M210.37 125.221C210.37 125.221 213.783 110.132 221.849 103.25C229.916 96.368 239.477 91.9399 237.785 98.0603C236.121 104.181 230.536 114.193 230.536 114.193L245.175 110.301C245.175 110.301 254.708 105.873 261.646 104.011C268.584 102.178 270.756 107.255 270.756 107.255C270.756 107.255 277.695 105.422 280.712 107.452C283.73 109.483 281.587 113.855 281.587 113.855C281.587 113.855 291.543 114.052 287.792 121.668C284.041 129.283 264.354 142.116 254.821 146.544C245.287 150.972 223.767 153.877 223.767 153.877C223.767 153.877 204.447 158.052 210.37 125.221Z" fill="#F8AFB8"/>
<path d="M263.906 128.546C264.216 128.546 264.498 128.377 264.639 128.095C264.865 127.672 264.696 127.164 264.301 126.939L238.916 113.316C238.493 113.09 237.986 113.259 237.76 113.654C237.534 114.077 237.704 114.585 238.099 114.811L263.483 128.434C263.624 128.518 263.765 128.546 263.906 128.546Z" fill="#00253D"/>
<path d="M214.487 136.759C214.544 136.759 214.628 136.759 214.713 136.73C222.921 134.587 228.251 131.09 230.508 126.267C232.99 120.992 230.818 116.197 230.733 116C230.536 115.577 230.028 115.379 229.605 115.577C229.182 115.774 228.985 116.282 229.182 116.705C229.21 116.762 231.1 121.02 228.956 125.561C226.897 129.877 221.962 133.064 214.29 135.066C213.839 135.179 213.557 135.659 213.669 136.11C213.754 136.505 214.093 136.759 214.487 136.759Z" fill="#00253D"/>
<path d="M149.963 249.121C149.963 249.121 166.039 249.657 175.939 251.321C185.811 252.985 201.013 254.424 207.049 252.026C213.085 249.629 214.072 252.167 212.887 256.003C211.703 259.839 204.708 262.688 204.708 262.688C204.708 262.688 215.99 292.02 213.339 294.869C210.687 297.718 200.957 289.2 200.957 289.2C200.957 289.2 199.575 291.513 197.318 292.161C195.062 292.81 191.593 291.795 191.593 291.795C191.593 291.795 191.057 294.728 187.165 295.941C183.244 297.154 180.367 295.349 180.367 295.349C180.367 295.349 178.703 300.707 175.911 299.918C173.147 299.128 160.878 297.041 161.104 293.431C161.329 289.82 171.285 289.313 171.285 289.313L171.85 283.136C171.85 283.136 162.627 292.19 152.445 288.044C142.263 283.897 141.642 270.5 141.642 270.5L149.963 249.121Z" fill="#F8AFB8"/>
<path d="M200.951 290.021C201.233 290.021 201.515 289.88 201.656 289.626C208.256 279.36 196.89 263.678 196.382 263.001C196.1 262.635 195.564 262.55 195.197 262.832C194.831 263.114 194.746 263.65 195.028 264.017C195.141 264.158 206.197 279.416 200.246 288.724C199.992 289.119 200.105 289.655 200.5 289.88C200.641 289.993 200.782 290.021 200.951 290.021Z" fill="#00253D"/>
<path d="M191.587 292.614C191.869 292.614 192.151 292.473 192.321 292.219C196.41 285.563 191.926 277.214 191.728 276.848C191.503 276.424 190.967 276.283 190.572 276.509C190.149 276.735 190.008 277.242 190.233 277.665C190.262 277.75 194.436 285.506 190.882 291.317C190.628 291.711 190.769 292.247 191.164 292.473C191.277 292.586 191.446 292.614 191.587 292.614Z" fill="#00253D"/>
<path d="M180.362 296.171C180.587 296.171 180.813 296.086 180.954 295.917C185.664 291.094 183.944 282.604 183.859 282.266C183.775 281.814 183.323 281.504 182.844 281.617C182.393 281.702 182.082 282.153 182.195 282.632C182.223 282.717 183.803 290.586 179.741 294.76C179.403 295.099 179.431 295.635 179.741 295.945C179.91 296.086 180.136 296.171 180.362 296.171Z" fill="#00253D"/>
<path d="M38.552 219.449C38.552 219.449 31.247 251.208 39.4546 267.82C51.1596 291.484 149.227 278.905 149.227 278.905L155.855 251.236L100.631 234.144L100.8 233.044C100.8 233.016 79.054 227.29 38.552 219.449Z" fill="#F8AFB8"/>
<path d="M130.797 114.101C133.638 113.858 135.625 111.621 135.732 111.503C135.92 111.297 135.992 111.011 135.923 110.732C135.854 110.453 135.674 110.235 135.416 110.134L125.672 106.373C125.413 106.272 125.105 106.314 124.858 106.467C124.612 106.647 124.482 106.907 124.495 107.189C124.506 107.414 124.867 112.847 128.811 113.881C129.527 114.102 130.179 114.157 130.797 114.101ZM133.517 111.209C132.56 111.902 131.017 112.735 129.274 112.278C127.531 111.822 126.763 109.852 126.446 108.483L133.517 111.209Z" fill="#00253D"/>
<path d="M202.81 56.0586L184.25 91.4264L228.316 61.7163L202.81 56.0586Z" fill="#00B5FF"/>
<path d="M225.122 73.7421C254.895 73.7421 279.031 57.2343 279.031 36.871C279.031 16.5077 254.895 0 225.122 0C195.349 0 171.213 16.5077 171.213 36.871C171.213 57.2343 195.349 73.7421 225.122 73.7421Z" fill="#00B5FF"/>
<path d="M236.811 32.6571V27.5857C236.811 26.9924 236.331 26.5095 235.737 26.5095H233.511C232.917 26.5095 232.434 26.9923 232.434 27.5857V28.8648L226.178 23.4394C225.503 22.8535 224.499 22.8535 223.82 23.4394L209.619 35.7526C209.054 36.2429 208.851 37.0352 209.113 37.7392C209.379 38.4395 210.047 38.9077 210.796 38.9077H213.52V49.9645C213.52 50.5357 213.985 51 214.557 51H220.676V42.9581C220.676 41.8231 221.598 40.9017 222.735 40.9017H227.267C228.404 40.9017 229.326 41.8231 229.326 42.9581V50.9967H235.442C236.014 50.9967 236.479 50.536 236.479 49.9612V38.9044H239.203C240.195 38.9044 241 38.101 241 37.1058C241 36.5381 240.738 36.0332 240.325 35.7016L236.811 32.6571Z" fill="white"/>
</svg>
