<svg width="400" height="412" viewBox="0 0 400 412" fill="none" xmlns="http://www.w3.org/2000/svg">
<path d="M340.65 385.765H81.9702C79.1718 368.218 99.2339 356.639 113.108 345.574C130.253 331.901 142.235 308.071 133.564 287.916C130.253 280.17 124.262 273.887 117.719 268.591C91.9816 247.765 56.7841 240.296 33.3718 216.901C16.0292 199.592 7.23975 175.366 2.70703 151.26C-0.0914307 136.322 -1.43152 120.751 2.23404 105.971C5.89963 91.2309 15.241 77.2808 29.0756 71.0763C48.1917 62.5007 70.3823 70.0488 89.6561 78.3082C108.93 86.5677 129.977 95.6965 150.118 89.9268C172.427 83.5247 234.033 -18.0782 291.421 50.5265C308.802 71.3134 325.83 72.1828 360.278 72.1828C384.991 72.1828 398.865 109.765 395.476 129.999C392.086 150.233 378.094 168.767 367.058 186.037C358.978 198.643 349.754 212.079 350.622 227.057C351.804 247.805 371.117 261.913 383.73 278.432C398.156 297.322 404.383 323.206 396.658 345.693C388.933 368.179 364.259 388.057 340.65 385.765Z" fill="#D8E0E6"/>
<path d="M189.338 91.9531C189.338 91.9531 198.16 96.6737 204.661 115.981C207.872 125.5 207.331 145.775 207.331 145.775C207.331 145.775 239.098 182.301 238.053 205.517C237.008 228.733 190.847 220.839 190.847 220.839L171.385 187.138L180.284 152.392L189.338 91.9531Z" fill="#00253D"/>
<path d="M276.778 250.132L290.282 192.789L342.401 197.161C342.401 197.161 374.362 329.762 325.028 352.514C279.448 373.485 242.651 330.575 242.651 330.575L276.778 250.132Z" fill="#F8AFB8"/>
<path d="M118.257 118.343C118.257 118.343 104.521 117.724 92.1389 132.118C79.7572 146.512 85.0194 165.897 85.0194 165.897C85.0194 165.897 62.1906 175.957 57.3539 203.12C52.5173 230.244 73.8758 239.414 73.8758 239.414L143.368 225.523L153.932 136.723L132.186 112.578L118.257 118.343Z" fill="#00253D"/>
<path d="M41.4427 297.96C41.4427 297.96 51.3868 198.016 100.991 185.751C150.596 173.485 184.994 183.855 212.775 195.656C239.551 207.109 276.773 250.136 276.773 250.136L255.376 345.282L227.827 340.097L228.291 376.468L82.2251 380.376L63.6911 304.19L41.4427 297.96Z" fill="#0072C8"/>
<path d="M144.294 174.684C144.294 174.684 134.273 175.457 130.829 180.758C126.96 186.717 128.701 207.921 149.324 220.109C164.415 229.009 177.145 232.181 177.145 232.181C177.145 232.181 190.262 214.034 192.777 202.968C195.292 191.941 179.427 178.901 179.427 178.901L144.294 174.684Z" fill="#ED2B41"/>
<path d="M142.378 154.281L142.185 185.971C142.185 185.971 147.834 195.102 166.368 196.727C180.181 197.927 185.057 194.832 185.057 194.832L183.238 178.774L181.42 163.103L147.989 155.519L142.378 154.281Z" fill="#F8AFB8"/>
<path d="M148.016 155.57C148.093 156.422 148.403 157.466 148.906 158.627C155.909 174.491 175.256 178.051 183.227 178.786L181.408 163.115L148.016 155.57Z" fill="#00253D"/>
<path d="M188.955 90.9524C188.955 90.9524 205.322 130.767 198.628 152.822C191.934 174.839 171.814 170.931 159.819 166.365C147.824 161.799 142.369 154.293 142.369 154.293C142.369 154.293 130.993 157.891 123.68 147.212C116.367 136.571 121.281 124.615 127.781 121.984C134.282 119.353 141.866 124.19 141.866 124.19L136.1 112.582C136.139 112.582 162.644 54.8518 188.955 90.9524Z" fill="#F8AFB8"/>
<path d="M186.079 140.984C186.543 140.984 187.008 140.674 187.162 140.21C189.987 131.891 184.338 123.185 184.067 122.798C183.719 122.256 182.984 122.101 182.442 122.488C181.9 122.837 181.745 123.572 182.132 124.113C182.171 124.191 187.433 132.239 184.957 139.475C184.763 140.094 185.073 140.751 185.692 140.945C185.847 140.945 185.963 140.984 186.079 140.984Z" fill="#00253D"/>
<path d="M139.698 142.568C139.969 142.568 140.24 142.452 140.472 142.259C140.936 141.833 140.975 141.098 140.549 140.634L130.141 128.987C129.715 128.523 128.98 128.484 128.516 128.91C128.051 129.335 128.013 130.071 128.438 130.535L138.847 142.181C139.079 142.414 139.388 142.568 139.698 142.568Z" fill="#00253D"/>
<path d="M128.47 139.205C128.625 139.205 136.054 138.276 136.054 138.276C136.673 138.199 137.137 137.618 137.06 136.999C136.983 136.38 136.441 135.877 135.783 135.993L128.354 136.922C127.735 136.999 127.271 137.58 127.348 138.238C127.387 138.741 127.851 139.205 128.47 139.205Z" fill="#00253D"/>
<path d="M172.124 104.402C171.881 104.522 171.672 104.712 171.585 104.971C169.853 108.804 164.52 109.366 164.486 109.383C163.828 109.449 163.375 110.018 163.424 110.641C163.49 111.299 164.059 111.752 164.682 111.703C164.959 111.652 171.417 111.009 173.691 105.916C173.954 105.311 173.698 104.618 173.11 104.39C172.782 104.25 172.436 104.248 172.124 104.402Z" fill="#00253D"/>
<path d="M188.189 103.775C187.97 103.696 187.726 103.689 187.491 103.769C186.887 103.962 186.504 104.564 186.683 105.205C187.212 107.042 189.465 110.368 194.426 109.735C195.077 109.642 195.532 109.066 195.425 108.451C195.332 107.8 194.756 107.345 194.141 107.452C189.954 107.993 188.984 104.762 188.95 104.626C188.778 104.194 188.516 103.893 188.189 103.775Z" fill="#00253D"/>
<path d="M168.633 125.734C169.368 125.657 169.871 125.115 169.794 124.457L169.098 117.531L171.922 113.855C172.309 113.352 172.232 112.617 171.69 112.23C171.187 111.843 170.452 111.959 170.065 112.462L166.97 116.525C166.776 116.757 166.699 117.067 166.737 117.338L167.473 124.728C167.511 125.309 168.014 125.734 168.633 125.734Z" fill="#00253D"/>
<path d="M190.498 124.615C191.272 124.537 191.737 123.957 191.659 123.299L190.847 116.373L193.246 112.659C193.594 112.117 193.439 111.382 192.897 111.034C192.356 110.685 191.659 110.84 191.272 111.382L188.641 115.445C188.486 115.677 188.448 115.948 188.448 116.218L189.299 123.57C189.415 124.189 189.918 124.615 190.498 124.615Z" fill="#00253D"/>
<path d="M142.485 130.299C142.485 130.299 154.247 123.876 158.852 114.745C163.495 105.613 162.141 96.9848 162.141 96.9848C162.141 96.9848 169.531 102.015 180.094 100.506C190.658 98.9968 196.616 88.2788 194.604 80.0372C193.598 75.9358 186.13 77.4835 186.13 77.4835C186.13 77.4835 178.392 67.462 165.004 69.2032C151.616 70.9444 148.211 78.7991 148.211 78.7991C148.211 78.7991 137.455 78.6056 129.407 84.4095C121.358 90.2135 121.281 102.324 121.281 102.324C121.281 102.324 114.935 105.652 114.742 112.036C114.548 118.421 120.817 130.57 120.817 130.57C120.817 130.57 130.18 117.183 142.485 130.299Z" fill="#00253D"/>
<path d="M227.175 345.82C227.833 345.82 228.336 345.317 228.336 344.659V311.229C228.916 309.449 233.327 295.364 235.03 275.631C236.848 254.388 221.952 230.321 221.294 229.315C220.946 228.774 220.21 228.619 219.707 228.967C219.166 229.315 219.011 230.012 219.32 230.554C219.475 230.786 234.449 254.969 232.708 275.438C230.928 296.138 226.13 310.532 226.053 310.687C226.014 310.803 225.976 310.919 225.976 311.074V344.659C226.014 345.278 226.517 345.82 227.175 345.82Z" fill="white"/>
<path d="M137.993 320.831C138.457 320.831 138.922 320.522 139.076 320.058C139.966 317.543 147.705 295.294 141.824 289.916C140.624 288.832 139.618 289.064 139.115 289.297C135.207 291.193 136.174 311.197 136.793 319.748C136.832 320.29 137.258 320.754 137.8 320.831C137.877 320.831 137.954 320.831 137.993 320.831ZM140.082 291.502C140.121 291.541 140.198 291.58 140.276 291.657C143.139 294.288 141.282 304.735 138.806 313.364C138.38 302.878 138.728 292.895 140.082 291.502Z" fill="white"/>
<path d="M141.162 177.898C141.162 177.898 153.969 195.62 172.193 194.382C185.156 193.492 184.227 183.548 184.227 183.548L189.992 200.689L173.896 216.978L145.147 205.409L129.012 187.378L141.162 177.898Z" fill="#ED2B41"/>
<path d="M164.679 219.882C164.679 219.882 154.928 233.192 152.955 254.125C150.981 275.019 163.131 298.544 163.131 298.544C163.131 298.544 182.593 276.49 185.186 259.813C187.778 243.136 178.84 219.495 178.84 219.495C178.84 219.495 187.662 239.576 189.829 251.842C191.996 264.108 195.014 279.894 195.014 279.894C195.014 279.894 206.815 264.224 206.119 245.651C205.422 227.079 185.457 214.852 185.457 214.852L164.679 219.882Z" fill="#ED2B41"/>
<path d="M167.125 225.41C172.542 225.41 179.777 223.437 180.28 223.282C180.706 223.089 180.938 222.895 181.054 222.624C181.751 220.96 187.864 206.141 184.304 201.227C183.685 200.376 182.447 199.37 180.28 199.563C178.501 199.718 177.069 200.531 176.218 202.001C173.277 206.838 176.991 217.594 178.423 221.386C174.709 222.315 167.55 223.708 164.3 222.779C160.547 221.696 158.999 210.281 160.237 204.245C160.353 203.626 159.967 203.007 159.347 202.891C158.69 202.736 158.109 203.162 157.993 203.781C156.832 209.43 157.8 223.282 163.72 224.985C164.61 225.294 165.809 225.41 167.125 225.41ZM180.783 201.846C181.789 201.846 182.176 202.272 182.409 202.581C184.227 205.058 182.176 213.028 180.01 218.948C178.307 214.112 176.256 206.335 178.191 203.2C178.694 202.388 179.39 201.962 180.474 201.885C180.551 201.885 180.667 201.846 180.783 201.846Z" fill="white"/>
<path d="M167.788 253.733C169.104 253.733 170.265 253.152 171.116 252.107C175.604 246.536 171.31 226.88 170.807 224.674C170.69 224.171 170.265 223.823 169.762 223.784C169.181 223.707 168.756 224.055 168.601 224.558C167.788 226.802 160.746 246.574 164.616 252.146C165.351 253.152 166.434 253.733 167.788 253.733ZM169.414 229.433C170.652 236.514 171.89 247.464 169.336 250.676C168.911 251.179 168.446 251.411 167.827 251.411C167.324 251.372 166.86 251.218 166.55 250.753C164.5 247.89 166.86 237.443 169.414 229.433Z" fill="white"/>
<path d="M288.308 171.78C288.308 171.78 292.99 151.08 304.056 141.639C315.123 132.198 328.24 126.123 325.918 134.519C323.635 142.916 315.974 156.652 315.974 156.652L336.056 151.312C336.056 151.312 349.134 145.237 358.652 142.683C368.171 140.168 371.15 147.133 371.15 147.133C371.15 147.133 380.669 144.618 384.809 147.404C388.949 150.19 386.008 156.187 386.008 156.187C386.008 156.187 399.667 156.458 394.521 166.905C389.375 177.352 362.367 194.958 349.289 201.032C336.21 207.107 306.688 211.093 306.688 211.093C306.688 211.093 280.183 216.819 288.308 171.78Z" fill="#F8AFB8"/>
<path d="M361.754 176.341C362.179 176.341 362.566 176.109 362.76 175.722C363.069 175.142 362.837 174.446 362.295 174.136L327.472 155.447C326.891 155.138 326.195 155.37 325.885 155.912C325.576 156.492 325.808 157.188 326.35 157.498L361.173 176.187C361.367 176.303 361.56 176.341 361.754 176.341Z" fill="#00253D"/>
<path d="M293.956 187.609C294.034 187.609 294.15 187.609 294.266 187.571C305.526 184.63 312.838 179.832 315.934 173.215C319.339 165.98 316.36 159.402 316.243 159.131C315.973 158.551 315.276 158.28 314.696 158.551C314.115 158.822 313.845 159.518 314.115 160.099C314.154 160.176 316.746 166.019 313.806 172.248C310.981 178.168 304.21 182.54 293.685 185.288C293.066 185.442 292.679 186.1 292.834 186.719C292.95 187.261 293.415 187.609 293.956 187.609Z" fill="#00253D"/>
<path d="M205.437 341.758C205.437 341.758 227.492 342.493 241.073 344.776C254.616 347.059 275.471 349.032 283.752 345.743C292.032 342.454 293.386 345.937 291.761 351.199C290.136 356.461 280.54 360.369 280.54 360.369C280.54 360.369 296.017 400.61 292.38 404.518C288.743 408.426 275.394 396.741 275.394 396.741C275.394 396.741 273.498 399.913 270.402 400.803C267.307 401.693 262.548 400.3 262.548 400.3C262.548 400.3 261.813 404.324 256.473 405.988C251.095 407.652 247.148 405.176 247.148 405.176C247.148 405.176 244.865 412.527 241.034 411.444C237.243 410.36 220.411 407.497 220.721 402.544C221.03 397.592 234.689 396.895 234.689 396.895L235.463 388.422C235.463 388.422 222.81 400.842 208.842 395.154C194.874 389.466 194.022 371.087 194.022 371.087L205.437 341.758Z" fill="#F8AFB8"/>
<path d="M275.386 397.866C275.773 397.866 276.16 397.673 276.353 397.325C285.407 383.24 269.814 361.727 269.118 360.798C268.731 360.295 267.995 360.179 267.492 360.566C266.989 360.953 266.873 361.688 267.26 362.191C267.415 362.385 282.583 383.318 274.419 396.086C274.07 396.628 274.225 397.363 274.767 397.673C274.96 397.828 275.154 397.866 275.386 397.866Z" fill="#00253D"/>
<path d="M262.54 401.424C262.927 401.424 263.314 401.23 263.546 400.882C269.157 391.75 263.005 380.297 262.734 379.794C262.424 379.214 261.689 379.02 261.147 379.33C260.567 379.64 260.373 380.336 260.683 380.916C260.722 381.033 266.448 391.673 261.573 399.644C261.225 400.186 261.418 400.921 261.96 401.23C262.115 401.385 262.347 401.424 262.54 401.424Z" fill="#00253D"/>
<path d="M247.14 406.302C247.45 406.302 247.76 406.186 247.953 405.954C254.415 399.337 252.054 387.691 251.938 387.227C251.822 386.607 251.203 386.182 250.545 386.337C249.926 386.453 249.501 387.072 249.655 387.73C249.694 387.846 251.861 398.641 246.289 404.368C245.825 404.832 245.864 405.567 246.289 405.993C246.521 406.186 246.831 406.302 247.14 406.302Z" fill="#00253D"/>
<path d="M52.5953 301.051C52.5953 301.051 42.5739 344.619 53.8335 367.409C69.8911 399.873 204.427 382.616 204.427 382.616L213.52 344.658L137.759 321.21L137.991 319.701C137.991 319.662 108.158 311.807 52.5953 301.051Z" fill="#F8AFB8"/>
<path d="M179.143 156.524C183.04 156.191 185.766 153.123 185.914 152.961C186.172 152.678 186.27 152.286 186.175 151.903C186.08 151.52 185.834 151.222 185.479 151.083L172.112 145.923C171.757 145.784 171.334 145.842 170.995 146.052C170.658 146.299 170.48 146.656 170.498 147.043C170.512 147.352 171.008 154.805 176.418 156.223C177.4 156.527 178.295 156.602 179.143 156.524ZM182.874 152.558C181.562 153.509 179.445 154.651 177.054 154.025C174.662 153.398 173.609 150.696 173.174 148.818L182.874 152.558Z" fill="#00253D"/>
<path d="M277.934 76.9023L252.473 125.422L312.925 84.664L277.934 76.9023Z" fill="#00B5FF"/>
<path d="M308.544 101.164C349.389 101.164 382.5 78.5177 382.5 50.582C382.5 22.6463 349.389 0 308.544 0C267.699 0 234.588 22.6463 234.588 50.582C234.588 78.5177 267.699 101.164 308.544 101.164Z" fill="#00B5FF"/>
<path d="M325.847 44.1407V36.7148C325.847 35.846 325.143 35.139 324.27 35.139H321.001C320.128 35.139 319.418 35.8459 319.418 36.7148V38.5877L310.231 30.6434C309.239 29.7855 307.764 29.7855 306.767 30.6434L285.909 48.6735C285.08 49.3914 284.781 50.5516 285.166 51.5824C285.556 52.6079 286.538 53.2934 287.638 53.2934H291.638V69.4837C291.638 70.3202 292.321 71 293.161 71H302.149V59.2244C302.149 57.5624 303.504 56.2132 305.173 56.2132H311.83C313.499 56.2132 314.855 57.5624 314.855 59.2244V70.9952H323.837C324.677 70.9952 325.36 70.3206 325.36 69.4789V53.2885H329.36C330.818 53.2885 332 52.1121 332 50.6549C332 49.8237 331.615 49.0843 331.008 48.5987L325.847 44.1407Z" fill="white"/>
</svg>
