<svg width="24" height="24" viewBox="0 0 24 24" fill="none" xmlns="http://www.w3.org/2000/svg">
<path fill-rule="evenodd" clip-rule="evenodd" d="M0.429029 23.999C0.285596 23.999 0.190397 23.9507 0.0951987 23.9038C0 23.7603 0 23.6182 0 23.4747L1.61965 16.9987L1.66661 16.9517V16.9035L1.76181 16.8083L17.5711 0.951987C18.1906 0.380795 18.9522 0 19.6668 0C20.1897 0 20.6657 0.190397 20.9996 0.571192L23.4278 2.99939C24.428 3.99962 23.999 5.47583 23.047 6.42782L7.19068 22.2372L7.09548 22.3324H7.04724L7.00028 22.3806L0.524228 23.999H0.429029ZM16.2384 3.42838L2.61987 17.0938L6.90508 21.3803L20.5705 7.76182L16.2384 3.42838ZM17.476 2.23782L16.8096 2.85725L21.1431 7.1907L21.7612 6.52304L17.476 2.23782ZM19.6669 0.809784C19.1909 0.809784 18.6184 1.09538 18.1424 1.52314L18.0472 1.66657L22.3325 5.95178L22.4759 5.85659C23.1423 5.19019 23.4761 4.18997 22.8567 3.57055L20.4285 1.14234C20.2381 0.904983 19.9525 0.809784 19.6669 0.809784ZM2.23906 17.9037L0.953247 23.047L6.09525 21.7611L2.23906 17.9037Z" fill="#0072C8"/>
</svg>
