<svg width="344" height="300" viewBox="0 0 344 300" fill="none" xmlns="http://www.w3.org/2000/svg">
<path d="M67.4464 298.931H263.746C265.87 285.365 250.645 276.412 240.117 267.857C227.106 257.285 218.014 238.86 224.594 223.277C227.106 217.288 231.652 212.43 236.618 208.335C256.149 192.233 282.858 186.458 300.625 168.369C313.785 154.986 320.455 136.256 323.895 117.617C326.019 106.067 327.036 94.0285 324.254 82.6009C321.472 71.2038 314.384 60.4179 303.885 55.6207C289.379 48.9902 272.54 54.8263 257.914 61.2123C243.288 67.5983 227.316 74.6566 212.032 70.1955C195.102 65.2456 148.353 -13.3118 104.804 39.732C91.6137 55.804 78.6926 56.4762 52.5512 56.4762C33.7976 56.4762 23.2692 85.5342 25.8415 101.178C28.4138 116.823 39.0318 131.153 47.4066 144.506C53.5382 154.253 60.5372 164.642 59.8791 176.222C58.9818 192.263 44.3259 203.172 34.7547 215.944C23.8076 230.549 19.0818 250.563 24.9442 267.949C30.8066 285.334 49.5303 300.704 67.4464 298.931Z" fill="#D8E0E6"/>
<mask id="mask0_5519_54734" style="mask-type:alpha" maskUnits="userSpaceOnUse" x="0" y="21" width="318" height="279">
<path d="M0.466797 21.4141H317.529V299.999H0.466797V21.4141Z" fill="#D9D9D9"/>
</mask>
<g mask="url(#mask0_5519_54734)">
<path d="M246.741 51.3086C247.86 53.3255 254.166 70.2239 246.549 87.2586C238.933 104.293 220.07 92.4372 220.07 92.4372V60.9843L246.741 51.3086Z" fill="#F48462"/>
<path d="M180.574 192.655C180.574 192.655 206.917 197.997 228.4 184.342C249.884 170.687 244.07 87.2578 244.07 87.2578H210.957L191.493 133.047L180.547 192.682L180.574 192.655Z" fill="#F8AFB8"/>
<path d="M164.904 240.983C164.904 240.983 201.183 298.383 222.694 390.261C242.321 474.072 246.552 543.383 246.552 543.383H161.683C161.683 543.383 152.237 475.053 149.726 448.016C147.215 420.978 138.834 384.783 138.834 384.783C138.834 384.783 127.178 540.739 124.421 543.383C121.664 546.027 40.3971 543.955 41.2707 540.385C42.1442 536.814 58.3866 290.888 60.5977 273.826C67.3677 221.413 164.904 240.983 164.904 240.983V240.983Z" fill="#00A1E4"/>
<path d="M101.3 110.567C101.3 110.567 76.2679 110.485 62.7554 123.623C49.2428 136.76 60.5988 265.406 60.5988 265.406C60.5988 265.406 107.306 270.884 132.857 265.406C158.408 259.928 174.241 248.78 174.241 248.78C174.241 248.78 165.997 129.455 158.954 116.809C151.938 104.162 101.3 110.567 101.3 110.567V110.567Z" fill="#005491"/>
<path d="M96.3574 101.38L96.4939 117.542C96.4939 117.542 102.663 122.639 110.498 122.639C121.062 122.639 124.638 114.489 124.638 114.489L124.229 95.5469L96.3574 101.38Z" fill="#F8AFB8"/>
<path d="M96.3593 100.936C96.3593 100.936 102.747 114.019 114.676 112.029C124.313 110.421 124.203 96.8477 124.203 96.8477L96.332 100.936H96.3593Z" fill="black"/>
<path d="M128.269 54.3609C128.269 54.3609 134.356 83.1972 125.157 97.1793C115.985 111.189 103.673 107.318 98.1045 103.203C90.5975 97.6426 88.9596 89.793 88.9596 89.793C88.9596 89.793 78.832 91.9735 75.2833 83.7696C71.5707 75.1296 77.7947 68.0159 82.8721 67.498C87.9496 67.0074 88.5502 67.9068 88.5502 67.9068L86.9123 58.64C86.9123 58.64 117.268 23.8074 128.269 54.3609V54.3609Z" fill="#F8AFB8"/>
<path d="M123.605 67.9865C123.605 67.9865 138.92 61.1454 140.312 73.056C141.922 86.8473 125.407 87.2562 125.407 87.2562L123.605 67.9865Z" fill="#F8AFB8"/>
<path d="M131.49 80.3357C131.327 80.3357 131.19 80.3085 131.026 80.2267C130.562 79.9814 130.399 79.409 130.672 78.9457L135.667 70.0604C135.913 69.5971 136.486 69.4608 136.95 69.7061C137.414 69.9514 137.578 70.5237 137.305 70.9871L132.309 79.8724C132.146 80.1722 131.818 80.363 131.49 80.363V80.3357Z" fill="black"/>
<path d="M87.1329 81.3723C86.9145 81.3723 86.6961 81.2905 86.5324 81.1542L78.5613 74.5584C78.1518 74.2313 78.0972 73.6317 78.4521 73.2229C78.7797 72.814 79.3802 72.7595 79.7897 73.1139L87.7608 79.7097C88.1702 80.0368 88.2248 80.6364 87.87 81.0452C87.6789 81.2633 87.4059 81.3723 87.1329 81.3723Z" fill="black"/>
<path d="M79.9001 82.7357C79.6271 82.7357 79.3542 82.5994 79.1631 82.3813C78.8355 81.9725 78.9174 81.3729 79.3269 81.0731L83.9129 77.5026C84.3224 77.1755 84.923 77.2573 85.2232 77.6661C85.5508 78.075 85.4689 78.6746 85.0595 78.9744L80.4734 82.5449C80.3096 82.6811 80.0912 82.7357 79.9001 82.7357Z" fill="black"/>
<path d="M137.411 77.5798H133.016C132.497 77.5798 132.061 77.1709 132.061 76.6258C132.061 76.0807 132.47 75.6719 133.016 75.6719H137.411C137.93 75.6719 138.366 76.0807 138.366 76.6258C138.366 77.1709 137.957 77.5798 137.411 77.5798Z" fill="black"/>
<path d="M103.702 73.9049C103.238 73.9049 102.828 73.5506 102.774 73.06L102.255 68.0995C102.201 67.5816 102.583 67.1183 103.101 67.0638C103.62 67.0093 104.084 67.3908 104.139 67.9087L104.657 72.8692C104.712 73.3871 104.33 73.8504 103.811 73.9049C103.784 73.9049 103.757 73.9049 103.702 73.9049Z" fill="black"/>
<path d="M122.727 71.9403C122.263 71.9403 121.854 71.5859 121.799 71.0953L121.281 66.1348C121.226 65.617 121.608 65.1536 122.127 65.0991C122.645 65.0719 123.11 65.4262 123.164 65.944L123.683 70.9046C123.737 71.4224 123.355 71.8858 122.837 71.9403C122.809 71.9403 122.782 71.9403 122.727 71.9403Z" fill="black"/>
<path d="M114.622 85.3505C113.967 85.2688 113.612 84.7782 113.694 84.2603C114.786 76.8741 112.111 70.9323 112.083 70.8778C111.865 70.4145 112.083 69.8421 112.547 69.6241C113.011 69.406 113.585 69.6241 113.803 70.0874C113.912 70.36 116.724 76.6015 115.55 84.5329C115.468 84.9962 115.086 85.3233 114.622 85.3233V85.3505Z" fill="black"/>
<path d="M93.1084 70.4963C93.1084 70.4963 100.479 65.5085 100.042 57.9588C99.6054 50.409 97.9402 48.4738 97.9402 48.4738C97.9402 48.4738 105.529 52.5076 114.947 49.6731C125.62 46.4569 131.49 31.8207 125.675 27.8141C119.178 23.3715 103.427 29.6403 103.427 29.6403C103.427 29.6403 86.9118 28.7408 76.129 41.8235C65.3463 54.9334 77.4393 70.36 77.4393 70.36C77.4393 70.36 80.6332 63.6006 93.1084 70.4963V70.4963Z" fill="black"/>
<path d="M107.906 88.1836C112.082 88.1836 115.467 91.6178 115.631 91.7813C115.986 92.1629 115.986 92.7625 115.631 93.1168C115.249 93.4712 114.648 93.4712 114.293 93.1168C114.266 93.0896 110.335 89.083 106.295 90.3368C105.804 90.5003 105.258 90.2005 105.121 89.7099C104.957 89.2193 105.258 88.6742 105.749 88.5379C106.486 88.3199 107.223 88.2108 107.906 88.2108V88.1836Z" fill="black"/>
<path d="M122.731 37.1328C122.731 37.1328 129.829 43.6196 131.494 51.4965C133.159 59.4006 131.494 66.0782 131.494 66.0782H129.883C129.883 66.0782 126.061 46.9175 119.865 45.1732C113.668 43.4288 122.704 37.1328 122.704 37.1328H122.731Z" fill="black"/>
<path d="M84.0197 113.066C84.0197 113.066 41.6803 116.555 23.3087 145.991C4.93708 175.427 3.51758 201.865 3.51758 201.865L69.5244 192.653L84.047 113.066H84.0197Z" fill="#005491"/>
<path d="M154.723 192.658L189.227 194.13L191.521 133.051C191.521 133.051 157.644 111.682 143.913 110.02C130.182 108.384 154.723 192.658 154.723 192.658V192.658Z" fill="#005491"/>
<path d="M225.714 35.9258L220.492 116.593L240.591 116.873L281.359 130.012L285.629 35.9258L245.513 39.0703L225.714 35.9258Z" fill="#B0C2CD"/>
<path d="M285.489 36.3272L291.663 35.9258L287.487 131.218L280.807 129.643L285.489 36.3272Z" fill="#B0C2CD"/>
<path d="M249.212 41.4241L245.822 114.7L281.062 126.396L285.628 34.7231C285.628 34.7231 257.332 34.537 249.212 41.4241V41.4241Z" fill="#F3F4F6"/>
<path d="M247.03 40.8144C247.03 40.8144 245.388 39.542 237.605 37.4008C229.794 35.2285 227.982 36.0974 227.982 36.0974L221.699 114.331H241.879L247.03 40.8144V40.8144Z" fill="#F3F4F6"/>
<path d="M210.958 90.1452C210.958 90.1452 205.689 71.3116 209.347 65.1791C213.005 59.0466 221.904 52.7779 229.602 54.495C237.3 56.2121 224.334 66.8145 224.334 66.8145C224.334 66.8145 232.441 84.6668 227.173 93.116C221.904 101.565 210.958 90.1724 210.958 90.1724V90.1452Z" fill="#F8AFB8"/>
<path d="M11.5704 200.75C11.5704 200.75 7.6941 249.51 43.7822 244.44C84.7567 238.689 106.022 154.279 106.022 154.279L118.251 146.784C118.251 146.784 115.904 156.405 125.704 151.226C135.504 146.048 133.538 136.318 133.538 136.318L122.073 116.748C122.073 116.748 138.971 101.076 133.975 100.286C126.25 99.0592 102.2 115.085 102.2 115.085C102.2 115.085 103.51 105.437 97.9417 107.018C91.9088 108.735 89.7795 126.56 89.7795 126.56L25.5471 197.424L11.5704 200.75V200.75Z" fill="#F8AFB8"/>
<path d="M118.255 147.711C117.982 147.711 117.709 147.602 117.518 147.384C117.245 147.057 117.218 146.594 117.463 146.239L121.94 139.943C122.241 139.507 122.814 139.425 123.251 139.725C123.687 140.025 123.769 140.625 123.469 141.033L121.067 144.413L124.534 142.778C124.998 142.56 125.571 142.778 125.789 143.241C126.008 143.705 125.789 144.277 125.325 144.495L118.61 147.657C118.61 147.657 118.337 147.738 118.2 147.738L118.255 147.711Z" fill="black"/>
<path d="M93.028 123.559C92.755 123.559 92.482 123.45 92.2909 123.204C91.9633 122.795 92.0179 122.223 92.4274 121.869L104.193 112.22C104.602 111.893 105.176 111.948 105.53 112.357C105.858 112.765 105.803 113.338 105.394 113.692L93.6285 123.341C93.4647 123.477 93.2463 123.559 93.028 123.559V123.559Z" fill="black"/>
<path d="M117.705 120.616C117.405 120.616 117.105 120.479 116.914 120.207C116.613 119.771 116.722 119.198 117.159 118.899L121.527 115.955C121.964 115.655 122.537 115.791 122.837 116.2C123.138 116.636 123.028 117.209 122.592 117.509L118.224 120.452C118.06 120.561 117.869 120.616 117.705 120.616V120.616Z" fill="black"/>
<path d="M224.249 96.6842C223.867 96.6842 223.512 96.4389 223.376 96.0573C223.185 95.5667 223.458 95.0216 223.949 94.8581C228.89 93.0319 227.962 82.375 227.17 78.423C227.061 77.9051 227.416 77.4145 227.907 77.3055C228.426 77.2237 228.917 77.5508 229.027 78.0414C229.163 78.6955 232.057 93.8769 224.604 96.6024C224.495 96.6297 224.386 96.6569 224.277 96.6569L224.249 96.6842Z" fill="black"/>
<path d="M64.9396 302.14C64.6394 302.14 64.3391 302.004 64.1753 301.731C63.875 301.295 63.9842 300.723 64.421 300.423C78.5341 290.584 82.2193 276.275 82.2739 276.138C82.4104 275.648 82.9018 275.321 83.4205 275.457C83.9118 275.593 84.2394 276.084 84.1029 276.602C83.9391 277.201 80.2266 291.728 65.5129 301.976C65.3491 302.086 65.158 302.14 64.9669 302.14H64.9396Z" fill="white"/>
<path d="M245.096 39.5508L239.795 117.113L246.59 119.162L253.063 39.5508H245.096Z" fill="#B0C2CD"/>
<path d="M124.669 77.4181C120.711 77.2546 117.626 73.4933 117.817 69.0234C117.899 66.8702 118.718 64.8806 120.11 63.4088C121.53 61.9097 123.386 61.1193 125.324 61.2011C127.262 61.2828 129.037 62.2095 130.347 63.8176C131.63 65.3984 132.285 67.4426 132.203 69.5958C132.121 71.749 131.302 73.7386 129.91 75.2104C128.545 76.655 126.798 77.4454 124.969 77.4454C124.887 77.4454 124.805 77.4454 124.723 77.4454L124.669 77.4181ZM121.175 64.4445C120.028 65.671 119.373 67.3063 119.291 69.1052C119.155 72.7574 121.584 75.81 124.723 75.9463C126.225 76.0008 127.672 75.374 128.764 74.202C129.91 73.0027 130.565 71.3401 130.647 69.5413C130.729 67.7424 130.183 66.0526 129.146 64.7716C128.136 63.5178 126.744 62.7819 125.242 62.7274C125.188 62.7274 125.106 62.7274 125.051 62.7274C123.632 62.7274 122.267 63.3543 121.202 64.4717L121.175 64.4445Z" fill="white"/>
<path d="M103.158 77.9358C98.6815 77.7722 95.1601 73.9837 95.3512 69.5138C95.515 65.0439 99.2275 61.5825 103.786 61.7187C108.263 61.8823 111.757 65.6708 111.594 70.1407C111.43 74.5016 107.826 77.9358 103.486 77.9358C103.377 77.9358 103.268 77.9358 103.158 77.9358V77.9358ZM96.8526 69.5683C96.7707 71.3399 97.3985 73.0298 98.5997 74.3108C99.8008 75.6191 101.439 76.355 103.213 76.4367C106.844 76.573 109.956 73.7112 110.092 70.0862C110.229 66.4339 107.362 63.3541 103.732 63.2178C103.65 63.2178 103.568 63.2178 103.486 63.2178C99.9373 63.2178 96.9891 66.0251 96.8526 69.5956V69.5683Z" fill="white"/>
<path d="M117.46 70.1184C117.788 70.1184 118.115 69.9821 118.334 69.6823C118.689 69.219 118.58 68.5376 118.115 68.1833C115.741 66.4117 111.537 67.6382 111.073 67.7744C110.499 67.938 110.199 68.5376 110.363 69.11C110.527 69.6823 111.154 69.9821 111.7 69.8186C112.629 69.5461 115.549 68.9464 116.832 69.9004C117.024 70.0367 117.242 70.1184 117.46 70.1184V70.1184Z" fill="white"/>
<path d="M96.0864 70.2759C96.2501 70.2759 96.3866 70.2214 96.5231 70.1396C96.8507 69.8943 96.9326 69.4309 96.6869 69.1039C93.9025 65.3426 83.1198 65.5334 81.8913 65.5607C81.4819 65.5607 81.1543 65.915 81.1543 66.3238C81.1543 66.7326 81.5092 67.0597 81.8913 67.0597C85.0033 67.0052 93.493 67.3323 95.4585 70.0033C95.595 70.1941 95.8407 70.3031 96.0591 70.3031L96.0864 70.2759Z" fill="white"/>
<path d="M147.898 113.172C140.991 121.158 134.085 129.144 127.179 137.13C125.896 138.601 123.957 138.819 122.565 137.62C121.173 136.421 121.118 134.459 122.374 132.987C124.558 130.479 126.715 127.945 128.898 125.437C133.676 119.904 138.453 114.399 143.23 108.893C143.558 108.511 143.366 108.348 143.175 108.075C140.746 104.777 139.545 101.098 139.627 97.0095C139.763 88.3422 146.533 80.8742 155.159 79.893C166.106 78.6393 175.305 87.0885 175.005 98.0997C174.705 108.62 164.905 116.633 154.477 114.889C152.32 114.535 150.273 113.799 148.362 112.709C148.198 112.899 148.034 113.036 147.898 113.199V113.172ZM144.54 98.3178C145.032 105.268 151.146 110.665 158.026 110.201C165.123 109.738 170.528 103.633 170.037 96.6279C169.545 89.487 163.458 84.1994 156.333 84.69C149.345 85.1806 144.022 91.2858 144.513 98.2905L144.54 98.3178Z" fill="#00B5FF"/>
<path d="M156.359 84.6877C149.371 85.1783 144.048 91.2835 144.539 98.2882C145.031 105.238 151.145 110.635 158.025 110.172C165.122 109.708 170.527 103.603 170.036 96.5984C169.544 89.4574 163.457 84.1699 156.332 84.6605L156.359 84.6877Z" fill="#E5F0F9"/>
<path d="M131.435 107.02C131.435 107.02 161.326 122.501 130.234 149.184L127.968 139.535L118.223 140.789L110.061 133.185L110.47 115.796L131.435 107.02V107.02Z" fill="#F8AFB8"/>
<path d="M130.533 117.324C130.533 117.324 144.355 123.145 135.588 142.596" stroke="black" stroke-miterlimit="10"/>
</g>
<path d="M263.619 56.4453L244.574 92.0571L289.791 62.1421L263.619 56.4453Z" fill="#B45309"/>
<path d="M286.93 74.2509C317.48 74.2509 342.246 57.6292 342.246 37.1254C342.246 16.6216 317.48 0 286.93 0C256.379 0 231.613 16.6216 231.613 37.1254C231.613 57.6292 256.379 74.2509 286.93 74.2509Z" fill="#B45309"/>
<path d="M293 51.3051C286.822 51.3051 280.619 51.3051 274.441 51.3051C272.471 51.3051 270.793 50.7103 269.747 48.8513C268.872 47.2897 268.847 45.7034 269.723 44.117C274.125 36.1358 278.528 28.1297 282.954 20.1484C284.73 16.951 288.694 16.8766 290.616 19.9997C295.383 27.7827 300.126 35.5657 304.845 43.3734C306.961 46.8683 304.674 51.0821 300.661 51.1564C298.107 51.206 295.553 51.1564 293 51.1564V51.2556V51.3051Z" fill="white"/>
<path d="M287.16 46.3509C288.557 46.3509 289.69 45.1968 289.69 43.7731C289.69 42.3494 288.557 41.1953 287.16 41.1953C285.763 41.1953 284.631 42.3494 284.631 43.7731C284.631 45.1968 285.763 46.3509 287.16 46.3509Z" fill="#B45309"/>
<path d="M286.627 26.3448C286.627 26.3448 284.779 25.8987 284.9 27.9808L285.508 37.7962C285.508 37.7962 285.703 39.3826 287.162 39.3826C287.162 39.3826 288.865 39.3826 288.865 37.6475L289.813 28.7739C289.813 28.7739 290.057 26.3201 288.354 26.3201L286.652 26.3696L286.627 26.3448Z" fill="#B45309"/>
<path d="M259.71 58.8477L239.855 95.9748L286.996 64.7868L259.71 58.8477Z" fill="#ED2B41"/>
<path d="M284.01 77.4104C315.861 77.4104 341.681 60.0815 341.681 38.7052C341.681 17.3289 315.861 0 284.01 0C252.16 0 226.34 17.3289 226.34 38.7052C226.34 60.0815 252.16 77.4104 284.01 77.4104Z" fill="#ED2B41"/>
<ellipse cx="283.857" cy="39.0421" rx="19.5578" ry="19.5578" fill="white"/>
<rect x="281.412" y="29.2617" width="4.4005" height="15.4017" rx="2.20025" fill="#ED2B41"/>
<ellipse cx="283.612" cy="49.0635" rx="2.20025" ry="2.20025" fill="#ED2B41"/>
<path d="M257.589 61.6992L236.771 100.626L286.197 67.9263L257.589 61.6992Z" fill="#FBBF24"/>
<path d="M283.067 81.1625C316.462 81.1625 343.533 62.9937 343.533 40.5812C343.533 18.1688 316.462 0 283.067 0C249.673 0 222.602 18.1688 222.602 40.5812C222.602 62.9937 249.673 81.1625 283.067 81.1625Z" fill="#FBBF24"/>
<path d="M289.701 56.0814C282.948 56.0814 276.168 56.0814 269.415 56.0814C267.262 56.0814 265.427 55.4312 264.284 53.3991C263.327 51.6922 263.3 49.9582 264.257 48.2242C269.07 39.5 273.882 30.7487 278.721 22.0245C280.661 18.5294 284.995 18.4481 287.095 21.8619C292.306 30.3694 297.491 38.8768 302.648 47.4114C304.962 51.2316 302.462 55.8376 298.076 55.9188C295.284 55.973 292.492 55.9188 289.701 55.9188V56.0272V56.0814Z" fill="white"/>
<path d="M283.318 50.6629C284.845 50.6629 286.083 49.4013 286.083 47.8451C286.083 46.2889 284.845 45.0273 283.318 45.0273C281.791 45.0273 280.553 46.2889 280.553 47.8451C280.553 49.4013 281.791 50.6629 283.318 50.6629Z" fill="#FBBF24"/>
<path d="M282.734 28.7978C282.734 28.7978 280.713 28.3101 280.846 30.586L281.511 41.3151C281.511 41.3151 281.723 43.0491 283.319 43.0491C283.319 43.0491 285.18 43.0491 285.18 41.1526L286.217 31.453C286.217 31.453 286.482 28.7707 284.621 28.7707L282.76 28.8249L282.734 28.7978Z" fill="#FBBF24"/>
</svg>
