<svg width="292" height="300" viewBox="0 0 292 300" fill="none" xmlns="http://www.w3.org/2000/svg">
<path d="M248.523 281.2H59.9618C57.9219 268.41 72.5459 259.969 82.6592 251.903C95.1572 241.936 103.891 224.566 97.5705 209.874C95.1571 204.228 90.7901 199.648 86.0207 195.788C67.2595 180.607 41.6028 175.162 24.5367 158.109C11.8951 145.491 5.48807 127.833 2.18402 110.261C0.144135 99.3718 -0.832733 88.022 1.83926 77.2483C4.51123 66.5034 11.3205 56.3346 21.405 51.8119C35.3395 45.5609 51.5149 51.063 65.5643 57.0836C79.6137 63.1042 94.956 69.7585 109.637 65.5527C125.899 60.8861 170.806 -13.176 212.638 36.8325C225.308 51.9848 237.72 52.6185 262.831 52.6185C280.845 52.6185 290.958 80.0137 288.487 94.7627C286.016 109.512 275.817 123.022 267.772 135.611C261.882 144.8 255.159 154.594 255.791 165.512C256.653 180.635 270.732 190.92 279.925 202.961C290.441 216.73 294.98 235.599 289.349 251.99C283.718 268.381 265.732 282.87 248.523 281.2Z" fill="#D8E0E6"/>
<path d="M138.226 67.0312C138.226 67.0312 144.656 70.4722 149.395 84.5464C151.736 91.4847 151.341 106.264 151.341 106.264C151.341 106.264 174.497 132.889 173.736 149.812C172.974 166.735 139.326 160.981 139.326 160.981L125.139 136.415L131.626 111.087L138.226 67.0312Z" fill="#00253D"/>
<path d="M201.966 182.335L211.81 140.535L249.801 143.722C249.801 143.722 273.099 240.38 237.138 256.964C203.912 272.251 177.09 240.972 177.09 240.972L201.966 182.335Z" fill="#F8AFB8"/>
<path d="M86.4132 86.2689C86.4132 86.2689 76.4005 85.8176 67.375 96.3098C58.3495 106.802 62.1854 120.932 62.1854 120.932C62.1854 120.932 45.5446 128.266 42.019 148.065C38.4934 167.837 54.0624 174.521 54.0624 174.521L104.718 164.396L112.418 99.6662L96.5669 82.0664L86.4132 86.2689Z" fill="#00253D"/>
<path d="M30.4238 217.198C30.4238 217.198 37.6724 144.345 73.8308 135.404C109.989 126.463 135.063 134.022 155.314 142.624C174.832 150.973 201.965 182.337 201.965 182.337L186.368 251.692L166.286 247.912L166.624 274.425L60.1516 277.274L46.6415 221.739L30.4238 217.198Z" fill="#0072C8"/>
<path d="M105.392 127.336C105.392 127.336 98.0871 127.9 95.5769 131.764C92.7565 136.108 94.0257 151.564 109.059 160.448C120.059 166.935 129.338 169.248 129.338 169.248C129.338 169.248 138.899 156.02 140.733 147.954C142.566 139.915 131.002 130.41 131.002 130.41L105.392 127.336Z" fill="#ED2B41"/>
<path d="M103.996 112.465L103.855 135.565C103.855 135.565 107.973 142.221 121.483 143.405C131.552 144.28 135.105 142.023 135.105 142.023L133.78 130.318L132.454 118.896L108.085 113.367L103.996 112.465Z" fill="#F8AFB8"/>
<path d="M108.107 113.406C108.164 114.027 108.389 114.788 108.756 115.634C113.861 127.198 127.963 129.793 133.773 130.329L132.448 118.906L108.107 113.406Z" fill="#00253D"/>
<path d="M137.948 66.3001C137.948 66.3001 149.879 95.3227 145 111.399C140.12 127.448 125.454 124.599 116.71 121.271C107.967 117.943 103.99 112.471 103.99 112.471C103.99 112.471 95.6978 115.094 90.3671 107.31C85.0364 99.5534 88.6184 90.8382 93.3568 88.9203C98.0952 87.0023 103.623 90.5279 103.623 90.5279L99.4208 82.0665C99.449 82.0665 118.769 39.9851 137.948 66.3001Z" fill="#F8AFB8"/>
<path d="M135.85 102.771C136.189 102.771 136.527 102.546 136.64 102.207C138.699 96.1432 134.581 89.7972 134.384 89.5151C134.13 89.1203 133.594 89.0074 133.199 89.2895C132.804 89.5433 132.691 90.0792 132.973 90.4741C133.001 90.5305 136.837 96.3971 135.032 101.671C134.891 102.123 135.117 102.602 135.568 102.743C135.681 102.743 135.766 102.771 135.85 102.771Z" fill="#00253D"/>
<path d="M102.042 103.926C102.24 103.926 102.437 103.842 102.606 103.701C102.945 103.39 102.973 102.854 102.663 102.516L95.0757 94.0264C94.7655 93.688 94.2296 93.6597 93.8911 93.97C93.5527 94.2803 93.5245 94.8161 93.8347 95.1546L101.422 103.644C101.591 103.813 101.817 103.926 102.042 103.926Z" fill="#00253D"/>
<path d="M93.8574 101.474C93.9702 101.474 99.3855 100.797 99.3855 100.797C99.8368 100.741 100.175 100.318 100.119 99.8666C100.062 99.4154 99.6676 99.0487 99.1881 99.1333L93.7728 99.8102C93.3215 99.8666 92.9831 100.29 93.0395 100.769C93.0677 101.136 93.4061 101.474 93.8574 101.474Z" fill="#00253D"/>
<path d="M125.681 76.1034C125.504 76.1908 125.352 76.3288 125.288 76.5177C124.026 79.3117 120.139 79.7215 120.113 79.7339C119.634 79.782 119.304 80.1967 119.339 80.6509C119.387 81.1305 119.802 81.4605 120.256 81.4249C120.458 81.388 125.165 80.9193 126.824 77.2064C127.015 76.7659 126.828 76.2604 126.4 76.0943C126.161 75.9922 125.909 75.991 125.681 76.1034Z" fill="#00253D"/>
<path d="M137.388 75.6497C137.229 75.5921 137.051 75.5876 136.88 75.6457C136.439 75.7861 136.16 76.2251 136.291 76.6923C136.676 78.0316 138.318 80.4557 141.935 79.9948C142.409 79.9266 142.741 79.5069 142.663 79.0588C142.595 78.5842 142.175 78.2522 141.727 78.33C138.675 78.725 137.968 76.3693 137.944 76.2706C137.818 75.9551 137.627 75.7361 137.388 75.6497Z" fill="#00253D"/>
<path d="M123.133 91.6559C123.669 91.5995 124.036 91.2046 123.979 90.7251L123.472 85.6765L125.531 82.997C125.813 82.6304 125.756 82.0945 125.362 81.8124C124.995 81.5304 124.459 81.615 124.177 81.9816L121.921 84.9431C121.78 85.1124 121.723 85.338 121.751 85.5354L122.287 90.9225C122.315 91.3456 122.682 91.6559 123.133 91.6559Z" fill="#00253D"/>
<path d="M139.073 90.8401C139.637 90.7837 139.975 90.3606 139.919 89.8811L139.327 84.8325L141.075 82.1248C141.329 81.73 141.216 81.1941 140.822 80.9402C140.427 80.6864 139.919 80.7992 139.637 81.1941L137.719 84.1556C137.606 84.3248 137.578 84.5222 137.578 84.7197L138.199 90.0786C138.283 90.5298 138.65 90.8401 139.073 90.8401Z" fill="#00253D"/>
<path d="M104.073 94.9842C104.073 94.9842 112.647 90.3022 116.004 83.6459C119.388 76.9895 118.401 70.6999 118.401 70.6999C118.401 70.6999 123.788 74.3665 131.488 73.2665C139.188 72.1665 143.531 64.3538 142.065 58.3462C141.332 55.3565 135.888 56.4847 135.888 56.4847C135.888 56.4847 130.247 49.1797 120.488 50.4489C110.729 51.7181 108.247 57.4437 108.247 57.4437C108.247 57.4437 100.407 57.3026 94.5399 61.5334C88.6733 65.7641 88.6169 74.5921 88.6169 74.5921C88.6169 74.5921 83.9914 77.0177 83.8503 81.6715C83.7093 86.3253 88.2785 95.1816 88.2785 95.1816C88.2785 95.1816 95.104 85.4228 104.073 94.9842Z" fill="#00253D"/>
<path d="M165.807 252.083C166.286 252.083 166.653 251.717 166.653 251.237V226.868C167.076 225.571 170.291 215.304 171.532 200.92C172.858 185.436 161.999 167.892 161.52 167.159C161.266 166.764 160.73 166.651 160.363 166.905C159.969 167.159 159.856 167.667 160.081 168.061C160.194 168.231 171.109 185.859 169.84 200.779C168.543 215.868 165.045 226.361 164.989 226.473C164.961 226.558 164.933 226.643 164.933 226.756V251.237C164.961 251.688 165.327 252.083 165.807 252.083Z" fill="white"/>
<path d="M100.8 233.867C101.139 233.867 101.477 233.642 101.59 233.303C102.239 231.47 107.88 215.252 103.593 211.332C102.718 210.542 101.985 210.711 101.618 210.88C98.7695 212.262 99.4746 226.844 99.9259 233.078C99.9541 233.472 100.264 233.811 100.659 233.867C100.716 233.867 100.772 233.867 100.8 233.867ZM102.323 212.488C102.351 212.516 102.408 212.545 102.464 212.601C104.551 214.519 103.198 222.134 101.393 228.424C101.082 220.78 101.336 213.503 102.323 212.488Z" fill="white"/>
<path d="M103.109 129.68C103.109 129.68 112.445 142.597 125.729 141.695C135.178 141.046 134.501 133.798 134.501 133.798L138.703 146.292L126.97 158.166L106.014 149.733L94.2525 136.59L103.109 129.68Z" fill="#ED2B41"/>
<path d="M120.252 160.28C120.252 160.28 113.144 169.982 111.706 185.241C110.267 200.472 119.123 217.62 119.123 217.62C119.123 217.62 133.31 201.543 135.2 189.387C137.09 177.231 130.575 159.998 130.575 159.998C130.575 159.998 137.005 174.636 138.585 183.577C140.164 192.518 142.364 204.025 142.364 204.025C142.364 204.025 150.967 192.602 150.459 179.064C149.951 165.526 135.398 156.613 135.398 156.613L120.252 160.28Z" fill="#ED2B41"/>
<path d="M122.034 164.312C125.983 164.312 131.257 162.873 131.624 162.76C131.934 162.619 132.103 162.478 132.188 162.281C132.696 161.068 137.152 150.266 134.557 146.684C134.106 146.063 133.203 145.33 131.624 145.471C130.327 145.584 129.283 146.176 128.663 147.248C126.519 150.773 129.227 158.614 130.27 161.378C127.563 162.055 122.345 163.07 119.975 162.394C117.24 161.604 116.111 153.283 117.014 148.884C117.099 148.432 116.817 147.981 116.365 147.896C115.886 147.784 115.463 148.094 115.378 148.545C114.532 152.663 115.237 162.76 119.552 164.001C120.201 164.227 121.075 164.312 122.034 164.312ZM131.991 147.135C132.724 147.135 133.006 147.445 133.175 147.671C134.501 149.476 133.006 155.286 131.427 159.601C130.186 156.076 128.691 150.407 130.101 148.122C130.468 147.53 130.975 147.219 131.765 147.163C131.821 147.163 131.906 147.135 131.991 147.135Z" fill="white"/>
<path d="M122.519 184.955C123.478 184.955 124.324 184.532 124.945 183.771C128.216 179.709 125.086 165.381 124.719 163.774C124.634 163.407 124.324 163.153 123.958 163.125C123.534 163.069 123.224 163.322 123.111 163.689C122.519 165.325 117.386 179.738 120.206 183.799C120.742 184.532 121.532 184.955 122.519 184.955ZM123.704 167.243C124.606 172.404 125.509 180.386 123.647 182.727C123.337 183.094 122.999 183.263 122.547 183.263C122.181 183.235 121.842 183.122 121.617 182.784C120.122 180.697 121.842 173.081 123.704 167.243Z" fill="white"/>
<path d="M210.37 125.221C210.37 125.221 213.783 110.132 221.849 103.25C229.916 96.368 239.477 91.9399 237.785 98.0603C236.121 104.181 230.536 114.193 230.536 114.193L245.175 110.301C245.175 110.301 254.708 105.873 261.646 104.011C268.584 102.178 270.756 107.255 270.756 107.255C270.756 107.255 277.695 105.422 280.712 107.452C283.73 109.483 281.587 113.855 281.587 113.855C281.587 113.855 291.543 114.052 287.792 121.668C284.041 129.283 264.354 142.116 254.821 146.544C245.287 150.972 223.767 153.877 223.767 153.877C223.767 153.877 204.447 158.052 210.37 125.221Z" fill="#F8AFB8"/>
<path d="M263.908 128.546C264.218 128.546 264.5 128.377 264.641 128.095C264.867 127.672 264.698 127.164 264.303 126.939L238.918 113.316C238.495 113.09 237.988 113.259 237.762 113.654C237.536 114.077 237.706 114.585 238.1 114.811L263.485 128.434C263.626 128.518 263.767 128.546 263.908 128.546Z" fill="#00253D"/>
<path d="M214.489 136.759C214.546 136.759 214.63 136.759 214.715 136.73C222.923 134.587 228.253 131.09 230.51 126.267C232.992 120.992 230.82 116.197 230.735 116C230.538 115.577 230.03 115.379 229.607 115.577C229.184 115.774 228.987 116.282 229.184 116.705C229.212 116.762 231.102 121.02 228.958 125.561C226.899 129.877 221.964 133.064 214.292 135.066C213.841 135.179 213.559 135.659 213.671 136.11C213.756 136.505 214.094 136.759 214.489 136.759Z" fill="#00253D"/>
<path d="M149.963 249.121C149.963 249.121 166.039 249.657 175.939 251.321C185.811 252.985 201.013 254.424 207.049 252.026C213.085 249.629 214.072 252.167 212.887 256.003C211.703 259.839 204.708 262.688 204.708 262.688C204.708 262.688 215.99 292.02 213.339 294.869C210.687 297.718 200.957 289.2 200.957 289.2C200.957 289.2 199.575 291.513 197.318 292.161C195.062 292.81 191.593 291.795 191.593 291.795C191.593 291.795 191.057 294.728 187.165 295.941C183.244 297.154 180.367 295.349 180.367 295.349C180.367 295.349 178.703 300.707 175.911 299.918C173.147 299.128 160.878 297.041 161.104 293.431C161.329 289.82 171.285 289.313 171.285 289.313L171.85 283.136C171.85 283.136 162.627 292.19 152.445 288.044C142.263 283.897 141.642 270.5 141.642 270.5L149.963 249.121Z" fill="#F8AFB8"/>
<path d="M200.951 290.021C201.233 290.021 201.515 289.88 201.656 289.626C208.256 279.36 196.89 263.678 196.382 263.001C196.1 262.635 195.564 262.55 195.197 262.832C194.831 263.114 194.746 263.65 195.028 264.017C195.141 264.158 206.197 279.416 200.246 288.724C199.992 289.119 200.105 289.655 200.5 289.88C200.641 289.993 200.782 290.021 200.951 290.021Z" fill="#00253D"/>
<path d="M191.587 292.614C191.869 292.614 192.151 292.473 192.321 292.219C196.41 285.563 191.926 277.214 191.728 276.848C191.503 276.424 190.967 276.283 190.572 276.509C190.149 276.735 190.008 277.242 190.233 277.665C190.262 277.75 194.436 285.506 190.882 291.317C190.628 291.711 190.769 292.247 191.164 292.473C191.277 292.586 191.446 292.614 191.587 292.614Z" fill="#00253D"/>
<path d="M180.362 296.171C180.587 296.171 180.813 296.086 180.954 295.917C185.664 291.094 183.944 282.604 183.859 282.266C183.775 281.814 183.323 281.504 182.844 281.617C182.393 281.702 182.082 282.153 182.195 282.632C182.223 282.717 183.803 290.586 179.741 294.76C179.403 295.099 179.431 295.635 179.741 295.945C179.91 296.086 180.136 296.171 180.362 296.171Z" fill="#00253D"/>
<path d="M38.552 219.449C38.552 219.449 31.247 251.208 39.4546 267.82C51.1596 291.484 149.227 278.905 149.227 278.905L155.855 251.236L100.631 234.144L100.8 233.044C100.8 233.016 79.054 227.29 38.552 219.449Z" fill="#F8AFB8"/>
<path d="M130.44 106.088C127.6 105.838 125.257 107.699 125.131 107.796C124.91 107.967 124.79 108.236 124.81 108.523C124.83 108.81 124.969 109.055 125.207 109.199L134.156 114.584C134.393 114.728 134.704 114.739 134.974 114.632C135.248 114.496 135.42 114.262 135.456 113.983C135.484 113.759 136.065 108.345 132.358 106.647C131.691 106.306 131.059 106.139 130.44 106.088ZM127.262 108.468C128.324 107.95 129.988 107.395 131.626 108.146C133.264 108.896 133.681 110.968 133.757 112.371L127.262 108.468Z" fill="#00253D"/>
<path d="M202.81 56.0586L184.25 91.4264L228.316 61.7163L202.81 56.0586Z" fill="#ED2B41"/>
<path d="M225.12 73.7421C254.893 73.7421 279.029 57.2343 279.029 36.871C279.029 16.5077 254.893 0 225.12 0C195.347 0 171.211 16.5077 171.211 36.871C171.211 57.2343 195.347 73.7421 225.12 73.7421Z" fill="#ED2B41"/>
<ellipse cx="225.349" cy="37.1343" rx="20.1343" ry="20.1343" fill="white"/>
<rect x="222.832" y="27.0664" width="4.53022" height="15.8558" rx="2.26511" fill="#ED2B41"/>
<circle cx="225.097" cy="47.4526" r="2.26511" fill="#ED2B41"/>
</svg>
