<svg width="338" height="300" viewBox="0 0 338 300" fill="none" xmlns="http://www.w3.org/2000/svg">
<path d="M84.8326 284.546H270.344C272.351 271.744 257.964 263.296 248.014 255.222C235.718 245.246 227.125 227.86 233.344 213.155C235.718 207.503 240.015 202.919 244.707 199.055C263.165 183.86 288.407 178.411 305.197 161.341C317.634 148.713 323.937 131.038 327.188 113.45C329.195 102.551 330.156 91.1904 327.527 80.4067C324.898 69.652 318.199 59.4739 308.278 54.9471C294.569 48.6903 278.655 54.1974 264.832 60.2235C251.01 66.2497 235.916 72.9101 221.472 68.7005C205.473 64.0295 161.293 -10.1006 120.137 39.9538C107.672 55.1201 95.4607 55.7544 70.756 55.7544C53.033 55.7544 43.0833 83.1747 45.5142 97.9373C47.9451 112.7 57.9796 126.223 65.8942 138.823C71.6888 148.021 78.3031 157.824 77.6812 168.752C76.8332 183.889 62.9827 194.182 53.9375 206.235C43.592 220.017 39.126 238.903 44.6662 255.309C50.2064 271.715 67.9011 286.218 84.8326 284.546Z" fill="#D8E0E6"/>
<path d="M158.643 253.034C158.643 253.034 148.913 256.664 147.429 276.446C147.429 276.446 144.102 289.592 128.345 277.859C128.345 277.859 124.821 272.779 121.53 275.713C121.53 275.713 118.776 279.04 127.629 283.314C127.629 283.314 141.097 292.686 155.281 280.56L161.738 255.842L158.643 253.016V253.034Z" fill="#F7D547"/>
<path d="M146.445 278.963C146.445 278.963 138.933 282.54 135.499 269.198C135.499 269.198 134.265 256.696 129.525 267.159C129.525 267.159 126.467 281.288 143.977 281.503C143.977 281.503 145.461 281.485 146.445 278.963Z" fill="#D4AE2E"/>
<path d="M194.094 264.595L194.166 264.56C184.365 263.594 165.102 274.683 165.102 274.683C163.367 276.364 164.887 279.405 164.708 279.548L164.923 279.977C170.897 274.611 180.787 273.109 180.787 273.109C192.413 272.09 195.454 270.677 195.454 270.677C204.218 266.116 196.509 264.864 194.094 264.595Z" fill="#C39D2F"/>
<path d="M165.009 254.398C165.009 254.398 168.444 257.636 164.849 276.362C164.849 276.362 163.65 284.715 172.665 284.661C172.665 284.661 191.552 286.468 204.162 279.045C204.162 279.045 211.262 275.164 208.49 282.479C208.49 282.479 202.105 296.752 169.07 292.549C169.07 292.549 156.156 290.903 155.441 281.156L155.262 280.548L161.719 255.829L164.992 254.398H165.009Z" fill="#DFB224"/>
<path d="M158.641 253.027C158.641 253.027 162.915 249.485 165.008 254.422L161.735 255.853L158.641 253.027Z" fill="black"/>
<path d="M118.094 37.4373L126.985 54.6459L115.149 57.344L108.392 44.1789L118.094 37.4373Z" fill="#F8AFB8"/>
<path d="M111.439 79.9214L108.295 59.031L126.219 53.5622C126.219 53.5622 154.505 93.4572 141.108 107.592C128.738 120.649 110.776 111.252 110.776 111.252L111.439 79.9214Z" fill="#F8AFB8"/>
<path d="M186.656 225.385L196.047 244.963L170.568 255.151L162.511 235.032L186.656 225.385Z" fill="#FFA98F"/>
<path d="M216.007 152.417L235.679 161.638L222.289 185.861L203.329 175.353L216.007 152.417Z" fill="#FFA98F"/>
<path d="M280.856 118.79C281.005 118.824 281.156 118.875 281.255 118.934C290.71 125.744 289.379 134.875 289.356 134.968C289.337 135.097 289.076 135.168 288.763 135.12C288.45 135.072 288.231 134.921 288.249 134.792C288.273 134.699 289.574 125.752 280.36 119.127C280.179 118.989 280.213 118.84 280.459 118.789C280.565 118.775 280.707 118.755 280.838 118.792L280.856 118.79Z" fill="#7FC5FA"/>
<path d="M275.208 121.321C275.357 121.355 275.508 121.407 275.606 121.465C285.062 128.275 283.731 137.406 283.708 137.499C283.689 137.628 283.428 137.699 283.114 137.651C282.801 137.604 282.582 137.453 282.601 137.324C282.625 137.23 283.926 128.284 274.712 121.658C274.531 121.52 274.565 121.371 274.811 121.32C274.917 121.306 275.059 121.287 275.19 121.323L275.208 121.321Z" fill="#7FC5FA"/>
<path d="M176.717 173.139L198.265 227.028L154.719 244.437L116.878 173.327L150.018 155.572L176.717 173.139Z" fill="#00253D"/>
<path d="M225 141.854C225 141.854 172.757 113.946 148.686 115.858C124.616 117.771 59.0855 146.539 59.0855 146.539C59.0855 146.539 64.8369 180.198 85.8036 181.231C106.77 182.264 140.371 167.118 147.335 167.766C154.299 168.414 203.596 188.942 203.596 188.942L225.018 141.852L225 141.854Z" fill="#00253D"/>
<path d="M39.4512 127.159C39.4512 127.159 29.4576 92.5562 44.3306 81.8681C59.2036 71.18 72.0447 70.0427 82.8716 70.2962C93.3344 70.5267 111.439 79.905 111.439 79.905L116.983 114.441L107.121 116.385L112.104 128.436L63.9887 149.169L47.6689 126.267L39.4158 127.164L39.4512 127.159Z" fill="#0072C8"/>
<path d="M54.9282 65.5646L57.6604 76.5838C57.6604 76.5838 60.4398 79.2588 67.0248 78.1716C71.9331 77.3649 73.336 75.8581 73.336 75.8581L71.2862 70.4317L69.2734 65.1448L56.9928 65.4845L54.9258 65.5469L54.9282 65.5646Z" fill="#F8AFB8"/>
<path d="M57 65.5234C57.0938 65.8176 57.3012 66.1505 57.5842 66.5094C61.4213 71.4058 68.4646 70.9066 71.2934 70.4707L69.2805 65.1837L57 65.5234Z" fill="black"/>
<path d="M65.4758 39.4257C65.4758 39.4257 74.6906 51.808 74.3255 60.0688C73.9579 68.312 66.6167 68.7432 62.0525 68.2221C57.4884 67.701 54.9274 65.5741 54.9274 65.5741C54.9274 65.5741 51.2979 67.8325 47.7981 64.7675C44.3185 61.7178 44.9613 57.1192 46.9812 55.6375C49.0011 54.1557 52.059 55.1508 52.059 55.1508L49.0384 51.624C49.0384 51.624 53.1431 29.2147 65.4758 39.4257Z" fill="#F8AFB8"/>
<path d="M68.975 57.0815C68.975 57.0815 68.8533 57.116 68.78 57.1078C68.5424 57.0858 68.3518 56.8769 68.3715 56.6215C68.5823 53.904 66.0659 51.5726 66.0458 51.5573C65.8599 51.3838 65.8418 51.1156 66.0152 50.9297C66.1887 50.7439 66.4569 50.7257 66.6428 50.8992C66.7659 51.0089 69.5083 53.5445 69.2663 56.6993C69.2548 56.8814 69.1474 57.0222 68.9927 57.0791L68.975 57.0815Z" fill="black"/>
<path d="M53.0105 61.7365C52.8734 61.7911 52.7269 61.7748 52.5884 61.6852L47.9434 58.5581C47.7446 58.4225 47.6886 58.1413 47.8242 57.9425C47.9598 57.7438 48.241 57.6878 48.4398 57.8234L53.0849 60.9504C53.2836 61.086 53.3396 61.3672 53.204 61.566C53.1604 61.6441 53.0766 61.6915 52.9927 61.7389L53.0105 61.7365Z" fill="black"/>
<path d="M51.3095 60.5879L48.8054 61.5575C48.5822 61.6418 48.3149 61.5334 48.2306 61.3102C48.1464 61.087 48.2547 60.8197 48.4779 60.7354L50.982 59.7658C51.2053 59.6816 51.4725 59.7899 51.5568 60.0131C51.6411 60.2364 51.5328 60.5036 51.3095 60.5879Z" fill="black"/>
<path d="M60.2363 45.411C60.2363 45.411 60.3839 45.3009 60.4902 45.2865C60.7384 45.253 60.9596 45.4217 60.9931 45.6698C61.2481 47.6928 58.6787 49.2487 58.5772 49.2985C58.3587 49.4183 58.0986 49.3631 57.9612 49.1471C57.8414 48.9286 57.8966 48.6685 58.1126 48.531C58.7149 48.1791 60.2494 46.9794 60.1045 45.7717C60.0854 45.6299 60.1371 45.4786 60.2339 45.3933L60.2363 45.411Z" fill="black"/>
<path d="M65.3907 43.9884C65.5325 43.9692 65.6992 44.0009 65.8069 44.1307C65.8922 44.2275 66.6853 45.0228 67.8955 44.2279C68.0938 44.0928 68.374 44.1633 68.5091 44.3616C68.6441 44.56 68.5737 44.8402 68.3753 44.9752C66.8652 45.9551 65.5959 45.242 65.1295 44.7275C64.9613 44.5516 64.9762 44.2608 65.1698 44.0903C65.2335 44.0276 65.302 44.0003 65.3907 43.9884Z" fill="black"/>
<mask id="path-24-inside-1_6700_110638" fill="white">
<path d="M177.434 178.7C177.314 178.752 177.185 178.733 177.072 178.694C176.84 178.581 153.12 167.308 147.396 168.225C141.55 169.176 118.516 176.092 118.293 176.177C118.049 176.246 117.815 176.115 117.729 175.874C117.66 175.63 117.806 175.376 118.031 175.309C118.985 175.018 141.358 168.281 147.259 167.341C153.264 166.368 176.485 177.42 177.468 177.883C177.7 177.996 177.789 178.255 177.676 178.487C177.619 178.603 177.537 178.668 177.436 178.717L177.434 178.7Z"/>
</mask>
<path d="M177.434 178.7C177.314 178.752 177.185 178.733 177.072 178.694C176.84 178.581 153.12 167.308 147.396 168.225C141.55 169.176 118.516 176.092 118.293 176.177C118.049 176.246 117.815 176.115 117.729 175.874C117.66 175.63 117.806 175.376 118.031 175.309C118.985 175.018 141.358 168.281 147.259 167.341C153.264 166.368 176.485 177.42 177.468 177.883C177.7 177.996 177.789 178.255 177.676 178.487C177.619 178.603 177.537 178.668 177.436 178.717L177.434 178.7Z" fill="#F7B369"/>
<path d="M177.434 178.7L178.425 178.566L178.247 177.252L177.033 177.784L177.434 178.7ZM177.072 178.694L176.633 179.593L176.689 179.62L176.748 179.641L177.072 178.694ZM147.396 168.225L147.238 167.237L147.235 167.238L147.396 168.225ZM118.293 176.177L118.565 177.139L118.606 177.127L118.646 177.112L118.293 176.177ZM117.729 175.874L116.766 176.146L116.776 176.18L116.788 176.212L117.729 175.874ZM118.031 175.309L118.314 176.269L118.323 176.266L118.031 175.309ZM147.259 167.341L147.416 168.328L147.419 168.328L147.259 167.341ZM177.468 177.883L177.906 176.984L177.894 176.978L177.468 177.883ZM177.436 178.717L176.445 178.851L176.63 180.226L177.876 179.615L177.436 178.717ZM177.033 177.784C177.139 177.737 177.236 177.729 177.299 177.732C177.358 177.735 177.393 177.747 177.395 177.748L176.748 179.641C176.962 179.714 177.381 179.814 177.834 179.616L177.033 177.784ZM177.51 177.796C177.379 177.732 171.37 174.875 164.671 172.147C161.322 170.784 157.782 169.444 154.708 168.502C153.172 168.031 151.735 167.653 150.486 167.423C149.261 167.197 148.127 167.095 147.238 167.237L147.554 169.212C148.096 169.125 148.955 169.175 150.124 169.39C151.269 169.601 152.626 169.955 154.122 170.414C157.113 171.331 160.59 172.645 163.916 173.999C167.238 175.352 170.392 176.738 172.731 177.793C173.9 178.321 174.864 178.765 175.543 179.081C175.883 179.239 176.151 179.365 176.337 179.453C176.43 179.497 176.503 179.531 176.554 179.555C176.579 179.567 176.599 179.577 176.613 179.584C176.629 179.591 176.634 179.594 176.633 179.593L177.51 177.796ZM147.235 167.238C144.241 167.725 136.953 169.713 130.462 171.564C127.199 172.494 124.113 173.398 121.829 174.073C119.583 174.738 118.041 175.203 117.94 175.241L118.646 177.112C118.631 177.118 118.958 177.017 119.655 176.807C120.317 176.609 121.256 176.328 122.396 175.991C124.676 175.317 127.756 174.416 131.01 173.487C137.553 171.622 144.705 169.676 147.557 169.212L147.235 167.238ZM118.02 175.214C118.148 175.178 118.298 175.191 118.429 175.263C118.557 175.332 118.634 175.438 118.67 175.535L116.788 176.212C117.038 176.908 117.777 177.362 118.565 177.139L118.02 175.214ZM118.691 175.601C118.733 175.751 118.707 175.896 118.646 176.006C118.588 176.113 118.478 176.22 118.314 176.269L117.749 174.35C116.993 174.573 116.549 175.38 116.766 176.146L118.691 175.601ZM118.323 176.266C118.795 176.122 124.62 174.367 131.064 172.53C137.539 170.685 144.539 168.787 147.416 168.328L147.101 166.353C144.077 166.835 136.94 168.776 130.516 170.607C124.059 172.447 118.221 174.206 117.739 174.353L118.323 176.266ZM147.419 168.328C148.003 168.233 148.892 168.277 150.07 168.481C151.228 168.682 152.591 169.024 154.088 169.471C157.081 170.364 160.545 171.656 163.872 173.001C170.522 175.688 176.551 178.556 177.042 178.788L177.894 176.978C177.402 176.747 171.329 173.857 164.621 171.146C161.269 169.792 157.74 168.474 154.66 167.554C153.12 167.095 151.676 166.729 150.411 166.51C149.166 166.294 148.015 166.205 147.099 166.354L147.419 168.328ZM177.029 178.782C176.914 178.726 176.807 178.617 176.755 178.466C176.703 178.315 176.721 178.163 176.777 178.048L178.574 178.925C178.93 178.197 178.634 177.339 177.906 176.984L177.029 178.782ZM176.777 178.048C176.802 177.997 176.841 177.941 176.895 177.892C176.945 177.846 176.987 177.824 176.996 177.82L177.876 179.615C178.122 179.495 178.396 179.29 178.574 178.925L176.777 178.048ZM178.427 178.584L178.425 178.566L176.443 178.834L176.445 178.851L178.427 178.584Z" fill="white" mask="url(#path-24-inside-1_6700_110638)"/>
<path d="M147.536 166.066C147.437 166.718 147.343 167.234 147.286 167.533C147.169 167.203 146.999 166.716 146.805 166.126L147.536 166.066Z" fill="#F7B369" stroke="white"/>
<mask id="path-27-inside-2_6700_110638" fill="white">
<path d="M189.568 183.542C189.467 183.591 189.338 183.573 189.224 183.534C188.995 183.439 188.888 183.182 188.983 182.953L204.3 147.064C204.395 146.835 204.669 146.725 204.881 146.823C205.111 146.919 205.217 147.175 205.122 147.404L189.805 183.293C189.749 183.409 189.67 183.492 189.566 183.524L189.568 183.542Z"/>
</mask>
<path d="M189.568 183.542C189.467 183.591 189.338 183.573 189.224 183.534C188.995 183.439 188.888 183.182 188.983 182.953L204.3 147.064C204.395 146.835 204.669 146.725 204.881 146.823C205.111 146.919 205.217 147.175 205.122 147.404L189.805 183.293C189.749 183.409 189.67 183.492 189.566 183.524L189.568 183.542Z" fill="#F7B369"/>
<path d="M189.568 183.542L190.009 184.439L190.656 184.122L190.559 183.408L189.568 183.542ZM189.224 183.534L188.84 184.457L188.87 184.47L188.901 184.48L189.224 183.534ZM188.983 182.953L188.064 182.56L188.06 182.569L188.983 182.953ZM204.3 147.064L205.22 147.457L205.223 147.448L204.3 147.064ZM204.881 146.823L204.462 147.731L204.479 147.739L204.497 147.747L204.881 146.823ZM205.122 147.404L206.042 147.797L206.045 147.788L205.122 147.404ZM189.805 183.293L190.704 183.731L190.715 183.709L190.725 183.686L189.805 183.293ZM189.566 183.524L189.271 182.568L188.462 182.818L188.575 183.658L189.566 183.524ZM189.128 182.644C189.273 182.573 189.398 182.569 189.457 182.573C189.515 182.576 189.547 182.587 189.548 182.588L188.901 184.48C189.08 184.541 189.537 184.671 190.009 184.439L189.128 182.644ZM189.608 182.61C189.885 182.726 190.025 183.053 189.907 183.337L188.06 182.569C187.751 183.312 188.105 184.151 188.84 184.457L189.608 182.61ZM189.903 183.345L205.22 147.457L203.38 146.671L188.064 182.56L189.903 183.345ZM205.223 147.448C205.161 147.598 205.045 147.697 204.926 147.746C204.808 147.795 204.638 147.812 204.462 147.731L205.3 145.915C204.545 145.567 203.678 145.956 203.377 146.68L205.223 147.448ZM204.497 147.747C204.22 147.631 204.081 147.304 204.199 147.02L206.045 147.788C206.354 147.045 206.001 146.206 205.265 145.9L204.497 147.747ZM204.202 147.012L188.886 182.901L190.725 183.686L206.042 147.797L204.202 147.012ZM188.907 182.855C188.923 182.82 189.022 182.645 189.271 182.568L189.861 184.479C190.317 184.338 190.574 183.998 190.704 183.731L188.907 182.855ZM188.575 183.658L188.577 183.675L190.559 183.408L190.557 183.39L188.575 183.658Z" fill="white" mask="url(#path-27-inside-2_6700_110638)"/>
<mask id="path-29-inside-3_6700_110638" fill="white">
<path d="M181.513 221.911L150.622 234.255C150.398 234.34 150.131 234.231 150.047 234.008C149.963 233.785 150.071 233.518 150.294 233.433L181.186 221.089C181.409 221.005 181.676 221.113 181.761 221.336C181.845 221.56 181.737 221.827 181.513 221.911Z"/>
</mask>
<path d="M181.513 221.911L150.622 234.255C150.398 234.34 150.131 234.231 150.047 234.008C149.963 233.785 150.071 233.518 150.294 233.433L181.186 221.089C181.409 221.005 181.676 221.113 181.761 221.336C181.845 221.56 181.737 221.827 181.513 221.911Z" fill="#F7B369"/>
<path d="M150.622 234.255L150.975 235.191L150.984 235.188L150.993 235.184L150.622 234.255ZM150.294 233.433L150.647 234.369L150.656 234.366L150.665 234.362L150.294 233.433ZM181.186 221.089L180.833 220.154L180.824 220.157L180.815 220.161L181.186 221.089ZM181.513 221.911L181.16 220.976L181.151 220.979L181.142 220.983L181.513 221.911ZM181.142 220.983L150.251 233.327L150.993 235.184L181.884 222.84L181.142 220.983ZM150.268 233.32C150.412 233.266 150.556 233.277 150.671 233.326C150.789 233.376 150.917 233.482 150.982 233.655L149.111 234.361C149.407 235.145 150.279 235.454 150.975 235.191L150.268 233.32ZM150.982 233.655C151.037 233.799 151.025 233.942 150.976 234.058C150.927 234.175 150.82 234.304 150.647 234.369L149.941 232.498C149.158 232.793 148.849 233.666 149.111 234.361L150.982 233.655ZM150.665 234.362L181.557 222.018L180.815 220.161L149.923 232.505L150.665 234.362ZM181.539 222.025C181.395 222.079 181.252 222.067 181.136 222.019C181.019 221.969 180.89 221.862 180.825 221.69L182.696 220.983C182.401 220.2 181.528 219.891 180.833 220.154L181.539 222.025ZM180.825 221.69C180.771 221.546 180.782 221.402 180.831 221.287C180.881 221.169 180.987 221.041 181.16 220.976L181.867 222.847C182.65 222.551 182.959 221.679 182.696 220.983L180.825 221.69Z" fill="white" mask="url(#path-29-inside-3_6700_110638)"/>
<path d="M199.626 237.903C199.626 237.903 194.731 230.117 190.598 231.325C186.464 232.514 184.419 243.98 184.419 243.98C184.419 243.98 168.384 248.996 167.756 250.632C167.129 252.269 177.672 278.64 178.93 278.597C180.187 278.554 244.713 252.773 247.477 251.191C250.244 249.626 240.623 237.713 233.88 237.63C227.137 237.548 220.903 240.031 220.903 240.031L199.59 237.908L199.626 237.903Z" fill="#0072C8"/>
<path d="M232.659 153.553C232.659 153.553 224.056 150.382 221.571 153.768C219.086 157.153 224.61 167.327 224.61 167.327C224.61 167.327 215.252 180.772 215.781 182.415C216.31 184.058 240.825 198.419 241.767 197.642C242.727 196.863 276.947 138.426 278.128 135.542C279.311 132.675 264.461 129.084 259.161 133.011C253.862 136.939 250.562 142.582 250.562 142.582L232.679 153.568L232.659 153.553Z" fill="#0072C8"/>
<path d="M120.43 45.5017L128.73 27.0547L104.607 16.2009L96.3074 34.6479L120.43 45.5017Z" fill="#7594A8"/>
<path d="M101.489 25.8864C103.783 20.7879 105.168 16.4411 104.582 16.1777C103.997 15.9142 101.663 19.8339 99.3685 24.9324C97.0745 30.0309 95.6895 34.3776 96.275 34.6411C96.8605 34.9045 99.1949 30.9849 101.489 25.8864Z" fill="#496374"/>
<path d="M106.532 47.5489C101.614 45.343 99.0218 40.441 100.728 36.6373C102.435 32.8337 107.838 31.5451 112.738 33.7534C117.638 35.9617 120.248 40.8613 118.542 44.6649C116.835 48.4686 111.432 49.7572 106.532 47.5489ZM107.268 45.9155C111.284 47.7198 115.603 46.8301 116.926 43.9265C118.249 41.0228 116.017 37.1911 112.019 35.3844C108.022 33.5777 103.684 34.4698 102.362 37.3734C101.039 40.2771 103.271 44.1088 107.268 45.9155Z" fill="#7594A8"/>
<path d="M108.299 59.0227C108.299 59.0227 102.347 49.0156 102.334 46.653C102.314 43.4253 108.563 40.9216 108.563 40.9216L110.772 46.4529L111.424 48.0793C111.424 48.0793 116.481 50.9162 117.661 58.3189C118.856 65.7015 108.284 59.0429 108.284 59.0429L108.299 59.0227Z" fill="#F8AFB8"/>
<path d="M115.52 38.8575C115.796 37.8276 116.375 36.9013 117.097 36.1C119.531 33.4073 127.7 27.0712 131.013 29.0244C134.189 30.8879 129.754 34.5364 129.754 34.5364C129.754 34.5364 133.909 32.2972 134.453 35.6529C134.921 38.4592 132.299 40.0223 132.299 40.0223C132.299 40.0223 136.841 38.1099 136.039 42.4593C135.236 46.8088 126.272 52.6024 122.652 53.3256C119.032 54.0487 120.482 48.7456 120.482 48.7456C120.482 48.7456 116.476 49.0155 115.969 46.8641C115.445 44.5886 118.285 43.0323 118.285 43.0323C118.285 43.0323 114.545 42.5985 115.52 38.8575Z" fill="#F8AFB8"/>
<path d="M119.517 42.8993C119.329 42.9788 119.122 42.9165 118.992 42.7536C118.839 42.5576 118.874 42.2822 119.07 42.1294L129.474 34.1741C129.67 34.0214 129.946 34.0564 130.099 34.2523C130.251 34.4483 130.216 34.7237 130.02 34.8765L119.616 42.8318C119.616 42.8318 119.55 42.8768 119.514 42.8816L119.517 42.8993Z" fill="black"/>
<path d="M121.95 48.2736C121.763 48.353 121.556 48.2907 121.425 48.1278C121.273 47.9319 121.325 47.6541 121.521 47.5013L132.047 39.638C132.243 39.4852 132.52 39.538 132.673 39.7339C132.826 39.9299 132.773 40.2077 132.577 40.3605L122.052 48.2238C122.052 48.2238 121.986 48.2688 121.95 48.2736Z" fill="black"/>
<path d="M117.846 58.7297C117.846 58.7297 117.739 58.7441 117.686 58.7512C117.436 58.767 117.227 58.5605 117.232 58.3253C117.042 52.5036 111.247 48.4848 111.189 48.4566C110.991 48.321 110.935 48.0398 111.07 47.841C111.206 47.6422 111.487 47.5862 111.686 47.7218C111.943 47.8857 117.915 52.0247 118.114 58.3144C118.123 58.5118 118 58.6727 117.83 58.7498L117.846 58.7297Z" fill="black"/>
<path d="M72.6653 77.0208C71.2444 77.5916 69.079 78.2628 65.9206 78.7973C59.214 79.9189 56.0544 76.6997 55.9265 76.5545C55.7584 76.3787 55.7556 76.0903 55.9492 75.9198C56.125 75.7517 56.4134 75.7489 56.5815 75.9247C56.604 75.9578 59.5706 78.9503 65.7809 77.8957C72.0977 76.8267 74.3643 75.1673 74.3796 75.1472C74.5756 74.9944 74.851 75.0294 75.0038 75.2254C75.1565 75.4213 75.1215 75.6968 74.9256 75.8496C74.8772 75.8922 74.2208 76.3778 72.6806 77.0007L72.6653 77.0208Z" fill="white"/>
<path d="M61.5567 53.3312C61.3157 53.4179 61.0484 53.3096 60.9618 53.0686L60.0478 50.5751C60.0157 50.4711 60.0167 50.3446 60.0579 50.2488L60.7691 48.5647C60.8645 48.3352 61.1208 48.2285 61.3502 48.3238C61.5796 48.4192 61.6864 48.6755 61.591 48.905L60.9493 50.4353L61.7886 52.7765C61.8729 52.9998 61.7622 53.2493 61.5413 53.3513L61.5567 53.3312Z" fill="black"/>
<path d="M69.0663 51.006C68.8253 51.0927 68.5757 50.982 68.4915 50.7587L67.542 48.27C67.5099 48.166 67.5133 48.0573 67.5368 47.9639L68.0909 46.319C68.1685 46.0919 68.4224 45.9674 68.6672 46.0427C68.8942 46.1203 69.0187 46.3742 68.9435 46.619L68.4412 48.1125L69.3337 50.4465C69.4179 50.6698 69.3096 50.9371 69.0864 51.0213L69.0663 51.006Z" fill="black"/>
<path d="M51.8828 55.8692L54.4469 57.315L51.4443 52.2909C51.4443 52.2909 56.7686 47.9505 57.8943 44.7291C59.0201 41.5077 59.7445 40.2778 59.7445 40.2778L64.6461 38.8394C64.6461 38.8394 68.6985 26.7057 61.7595 27.2384C54.8206 27.7712 46.1968 40.0624 44.7684 44.3901C43.3399 48.7179 45.9255 51.6913 45.9255 51.6913C45.9255 51.6913 43.408 52.2793 43.2752 54.3416C43.1424 56.4039 45.551 58.7249 45.551 58.7249C45.551 58.7249 47.36 54.9416 51.8828 55.8692Z" fill="black"/>
<path d="M107.669 118.405C107.446 118.489 107.179 118.381 107.095 118.158L102.626 106.976C102.626 106.976 102.614 106.887 102.607 106.834C102.599 106.781 102.282 101.355 100.129 94.2277C98.0062 87.1868 89.7916 81.1483 89.7112 81.0869C89.51 80.9336 89.4741 80.6677 89.6274 80.4666C89.7808 80.2654 90.0467 80.2295 90.2478 80.3828C90.5898 80.6435 98.7665 86.669 100.981 93.9864C103.033 100.766 103.437 106.036 103.495 106.732L107.939 117.863C108.023 118.087 107.915 118.354 107.692 118.438L107.669 118.405Z" fill="white"/>
<path d="M36.5836 98.4314C36.5836 98.4314 31.2421 104.188 27.1174 115.483C22.1265 129.187 23.8623 151.278 23.8623 151.278L43.2444 151.803C43.2444 151.803 50.5952 122.151 56.6849 121.672C62.7746 121.193 36.586 98.4491 36.586 98.4491L36.5836 98.4314Z" fill="#F8AFB8"/>
<path d="M48.5799 162.965C48.6327 164.961 46.0677 169.223 46.0677 169.223C46.0677 169.223 45.7765 176.427 43.7271 177.155C41.6776 177.883 39.0172 174.885 39.0172 174.885C39.0172 174.885 34.9057 177.317 33.2248 177.165C31.5439 177.013 23.5972 177.237 21.2367 173.386C18.8763 169.536 23.8597 151.231 23.8597 151.231L41.0189 147.724C41.0189 147.724 48.5247 160.951 48.5775 162.947L48.5799 162.965Z" fill="#F8AFB8"/>
<path d="M39.0235 175.343C38.8061 175.336 38.6226 175.18 38.5915 174.95L38.0469 169.844C38.0158 169.613 38.1844 169.392 38.4326 169.359C38.663 169.327 38.8867 169.514 38.9178 169.744L39.4624 174.85C39.4935 175.081 39.3249 175.302 39.0767 175.336L39.0235 175.343Z" fill="black"/>
<path d="M46.0704 169.66C45.8529 169.654 45.6695 169.498 45.6384 169.267L44.7122 159.863C44.6811 159.633 44.8675 159.409 45.1003 159.396C45.313 159.367 45.5544 159.551 45.5678 159.784L46.4939 169.188C46.525 169.418 46.3387 169.642 46.1058 169.656L46.0704 169.66Z" fill="black"/>
<path d="M41.2667 84.847C41.2667 84.847 25.981 101.438 26.2251 118.226L54.435 126.927L60.9511 118.774L41.2667 84.847Z" fill="#0072C8"/>
<path d="M50.3555 129.977L59.4527 150.983L69.0058 147.15L50.3555 129.977Z" fill="#0072C8"/>
<path d="M67.0189 62.9968C67.8901 62.8792 68.5011 62.0777 68.3835 61.2064C68.2659 60.3352 67.4644 59.7242 66.5931 59.8418C65.7219 59.9594 65.1109 60.761 65.2285 61.6322C65.3461 62.5034 66.1476 63.1144 67.0189 62.9968Z" stroke="black" stroke-miterlimit="10"/>
<path d="M22.9227 186.7C22.7655 186.739 22.6237 186.758 22.4973 186.757C11.0027 184.898 8.08851 176.141 8.07655 176.052C8.03969 175.913 8.23325 175.742 8.54512 175.646C8.85699 175.55 9.11231 175.569 9.14917 175.709C9.16113 175.798 12.016 184.382 23.1972 186.194C23.4195 186.236 23.4564 186.375 23.2451 186.548C23.1636 186.613 23.029 186.686 22.9073 186.72L22.9227 186.7Z" fill="#7FC5FA"/>
<path d="M26.8602 181.919C26.703 181.958 26.5612 181.977 26.4348 181.976C14.9225 180.119 12.0437 171.357 12.014 171.271C11.9772 171.132 12.1707 170.961 12.4826 170.865C12.7945 170.769 13.0498 170.788 13.0867 170.928C13.0986 171.016 15.9535 179.601 27.1347 181.412C27.357 181.455 27.3939 181.594 27.1826 181.767C27.1011 181.832 26.9665 181.904 26.8448 181.939L26.8602 181.919Z" fill="#7FC5FA"/>
<path d="M103.135 19.0572C97.181 14.392 89.9983 11.3186 82.5244 10.2336C81.3292 10.07 79.583 10.5042 79.8496 11.6774C79.9674 12.1488 80.4076 12.4684 80.8229 12.7372L84.6514 15.1624C85.185 15.5055 85.7885 15.9655 85.7281 16.5873C85.656 17.3911 84.6294 17.674 83.8116 17.7663C80.6671 18.1365 77.5848 18.9676 74.6887 20.2428C73.3257 20.8418 71.9794 21.5649 71.0345 22.7211C70.0896 23.8774 69.6821 25.5386 70.332 26.8767L79.588 24.8516C80.1658 24.7195 80.8192 24.6133 81.2819 24.9659C81.9458 25.4719 81.7607 26.5076 81.5243 27.2975L79.1689 34.8526C78.9043 35.7005 78.6445 36.5838 78.7794 37.4499C78.9144 38.3161 79.6237 39.1588 80.5089 39.1657C80.8682 39.1533 81.2108 39.0169 81.5308 38.8473C84.1821 37.4969 85.8924 34.5228 88.7596 33.7028C91.6446 32.8803 94.9837 34.4872 97.6278 33.0836C98.7226 32.5027 99.507 31.4944 100.158 30.432C102.304 26.9479 103.255 22.7588 102.832 18.683" fill="#7FC5FA"/>
<path d="M91.8682 38.1074C91.8682 38.1074 84.1207 38.7378 88.1854 43.3148C88.1854 43.3148 92.1828 46.457 91.8682 38.1074Z" fill="#7FC5FA"/>
<path d="M77.8805 10.9816C77.8805 10.9816 74.5126 7.55585 73.9524 11.2951C73.9524 11.2951 74.0519 14.4399 77.8805 10.9816Z" fill="#7FC5FA"/>
<path d="M81.1 290.777H275.813C277.92 277.34 262.818 268.473 252.375 259.999C239.47 249.528 230.45 231.279 236.977 215.845C239.47 209.913 243.979 205.101 248.904 201.046C268.277 185.097 294.771 179.378 312.394 161.462C325.448 148.206 332.064 129.655 335.476 111.194C337.583 99.7548 338.591 87.8311 335.832 76.5126C333.073 65.2244 326.042 54.5414 315.628 49.7901C301.239 43.223 284.536 49.0033 270.028 55.3283C255.52 61.6533 239.677 68.6441 224.517 64.2257C207.724 59.323 161.353 -18.4839 118.156 34.0532C105.072 49.9717 92.2553 50.6375 66.3252 50.6375C47.7231 50.6375 37.2799 79.4179 39.8313 94.9127C42.3828 110.408 52.9151 124.601 61.2222 137.826C67.3042 147.48 74.2466 157.77 73.5939 169.239C72.7038 185.128 58.1664 195.932 48.6725 208.582C37.8139 223.048 33.1263 242.87 38.9413 260.09C44.7563 277.31 63.3287 292.532 81.1 290.777Z" fill="#D8E0E6"/>
<path d="M158.571 257.706C158.571 257.706 148.358 261.517 146.8 282.28C146.8 282.28 143.308 296.078 126.769 283.763C126.769 283.763 123.071 278.432 119.617 281.51C119.617 281.51 116.726 285.002 126.018 289.489C126.018 289.489 140.154 299.326 155.041 286.598L161.818 260.654L158.571 257.688V257.706Z" fill="#F7D547"/>
<path d="M145.767 284.928C145.767 284.928 137.882 288.682 134.278 274.678C134.278 274.678 132.983 261.556 128.008 272.538C128.008 272.538 124.798 287.368 143.176 287.593C143.176 287.593 144.734 287.575 145.767 284.928Z" fill="#D4AE2E"/>
<path d="M195.777 269.85L195.852 269.813C185.565 268.799 165.346 280.438 165.346 280.438C163.525 282.203 165.121 285.394 164.933 285.544L165.159 285.995C171.429 280.363 181.81 278.786 181.81 278.786C194.013 277.716 197.204 276.233 197.204 276.233C206.403 271.446 198.312 270.132 195.777 269.85Z" fill="#C39D2F"/>
<path d="M165.259 259.141C165.259 259.141 168.863 262.539 165.09 282.194C165.09 282.194 163.832 290.961 173.293 290.905C173.293 290.905 193.118 292.801 206.353 285.01C206.353 285.01 213.806 280.936 210.896 288.614C210.896 288.614 204.194 303.595 169.52 299.183C169.52 299.183 155.966 297.456 155.215 287.225L155.027 286.587L161.804 260.642L165.24 259.141H165.259Z" fill="#DFB224"/>
<path d="M158.57 257.705C158.57 257.705 163.057 253.988 165.253 259.169L161.818 260.671L158.57 257.705Z" fill="black"/>
<path d="M61.0426 33.8206C61.0426 33.8206 64.6862 34.7117 68.8709 41.156C70.9278 44.3261 72.6143 51.7705 72.6143 51.7705C72.6143 51.7705 87.5956 62.1376 89.3769 70.7058C91.1583 79.274 73.5794 80.6801 73.5794 80.6801L63.3381 70.2037L63.3527 56.6952L61.0401 33.802L61.0426 33.8206Z" fill="black"/>
<path d="M116.005 31.4145L125.338 49.4765L112.915 52.3084L105.822 38.4904L116.005 31.4145Z" fill="#F8AFB8"/>
<path d="M109.029 75.998L105.729 54.0715L124.541 48.3314C124.541 48.3314 154.231 90.2052 140.169 105.041C127.186 118.746 108.333 108.882 108.333 108.882L109.029 75.998Z" fill="#F8AFB8"/>
<path d="M37.5568 50.0593C37.5568 50.0593 32.4908 51.1218 29.3189 57.5169C26.147 63.912 29.8766 70.4935 29.8766 70.4935C29.8766 70.4935 22.4933 76.2824 23.2466 86.6374C23.9974 96.9737 32.6499 98.3445 32.6499 98.3445L56.7059 86.8201L52.2975 53.45L42.1204 46.6778L37.5407 50.0804L37.5568 50.0593Z" fill="black"/>
<path d="M187.977 228.671L197.835 249.22L171.091 259.913L162.635 238.797L187.977 228.671Z" fill="#FFA98F"/>
<path d="M218.784 152.079L239.431 161.758L225.377 187.181L205.476 176.152L218.784 152.079Z" fill="#FFA98F"/>
<path d="M286.852 116.804C287.009 116.839 287.167 116.894 287.271 116.956C297.195 124.103 295.798 133.687 295.774 133.785C295.754 133.92 295.48 133.995 295.151 133.944C294.822 133.894 294.593 133.736 294.612 133.6C294.637 133.502 296.003 124.112 286.332 117.158C286.142 117.013 286.177 116.857 286.435 116.803C286.547 116.788 286.696 116.768 286.834 116.806L286.852 116.804Z" fill="#7FC5FA"/>
<path d="M280.923 119.444C281.079 119.48 281.238 119.534 281.341 119.596C291.265 126.743 289.869 136.327 289.844 136.425C289.824 136.56 289.55 136.635 289.221 136.585C288.893 136.535 288.663 136.376 288.683 136.241C288.707 136.143 290.073 126.753 280.402 119.799C280.212 119.654 280.248 119.497 280.506 119.444C280.617 119.429 280.766 119.408 280.904 119.447L280.923 119.444Z" fill="#7FC5FA"/>
<path d="M177.546 173.823L200.163 230.386L154.456 248.658L114.738 174.021L149.523 155.385L177.546 173.823Z" fill="#00253D"/>
<path d="M228.223 141.007C228.223 141.007 173.389 111.714 148.124 113.722C122.86 115.729 54.0792 145.924 54.0792 145.924C54.0792 145.924 60.1159 181.253 82.1225 182.337C104.129 183.421 139.397 167.523 146.706 168.204C154.015 168.885 205.758 190.431 205.758 190.431L228.242 141.005L228.223 141.007Z" fill="#00253D"/>
<path d="M33.4627 125.58C33.4627 125.58 22.9733 89.2603 38.5841 78.042C54.1948 66.8238 67.6728 65.6301 79.0367 65.8962C90.0185 66.1381 109.021 75.9816 109.021 75.9816L114.841 112.23L104.489 114.271L109.719 126.92L59.2172 148.681L42.088 124.643L33.4255 125.585L33.4627 125.58Z" fill="#00A1E4"/>
<path d="M49.7095 60.9327L52.5773 72.4984C52.5773 72.4984 55.4945 75.3061 62.4061 74.165C67.5579 73.3183 69.0304 71.7368 69.0304 71.7368L66.879 66.0412L64.7663 60.492L51.8766 60.8486L49.707 60.9141L49.7095 60.9327Z" fill="#F8AFB8"/>
<path d="M51.8828 60.875C51.9813 61.1837 52.1989 61.5332 52.496 61.9099C56.5234 67.0492 63.9161 66.5251 66.8852 66.0676L64.7725 60.5184L51.8828 60.875Z" fill="black"/>
<path d="M60.7836 33.5018C60.7836 33.5018 70.4554 46.4983 70.0722 55.1689C69.6864 63.8209 61.981 64.2735 57.1905 63.7266C52.4 63.1796 49.712 60.9472 49.712 60.9472C49.712 60.9472 45.9024 63.3177 42.2291 60.1006C38.5769 56.8997 39.2515 52.073 41.3716 50.5178C43.4917 48.9625 46.7013 50.0069 46.7013 50.0069L43.5309 46.3053C43.5309 46.3053 47.8392 22.7844 60.7836 33.5018Z" fill="#F8AFB8"/>
<path d="M64.4586 52.0237C64.4586 52.0237 64.3309 52.0599 64.254 52.0514C64.0046 52.0282 63.8045 51.8089 63.8252 51.5409C64.0464 48.6886 61.4052 46.2416 61.3841 46.2255C61.1891 46.0434 61.17 45.7618 61.352 45.5668C61.5341 45.3717 61.8157 45.3527 62.0107 45.5347C62.1399 45.6499 65.0184 48.3112 64.7644 51.6226C64.7523 51.8136 64.6396 51.9614 64.4772 52.0212L64.4586 52.0237Z" fill="black"/>
<path d="M47.6921 56.9077C47.5483 56.965 47.3944 56.9479 47.2491 56.8538L42.3736 53.5717C42.165 53.4293 42.1062 53.1342 42.2486 52.9256C42.3909 52.7169 42.686 52.6582 42.8947 52.8005L47.7702 56.0826C47.9788 56.2249 48.0376 56.5201 47.8952 56.7287C47.8495 56.8107 47.7615 56.8604 47.6735 56.9102L47.6921 56.9077Z" fill="black"/>
<path d="M45.9198 55.6878L43.2915 56.7055C43.0572 56.7939 42.7766 56.6803 42.6882 56.4459C42.5997 56.2116 42.7134 55.9311 42.9478 55.8426L45.576 54.825C45.8104 54.7365 46.0909 54.8502 46.1793 55.0845C46.2678 55.3188 46.1541 55.5994 45.9198 55.6878Z" fill="black"/>
<path d="M55.288 39.7797C55.288 39.7797 55.4429 39.6641 55.5545 39.6491C55.815 39.6139 56.0472 39.7909 56.0824 40.0514C56.35 42.1747 53.6532 43.8078 53.5466 43.8601C53.3173 43.9857 53.0443 43.9279 52.9 43.7011C52.7744 43.4718 52.8322 43.1988 53.059 43.0545C53.6911 42.6851 55.3018 41.4259 55.1497 40.1583C55.1296 40.0095 55.1839 39.8506 55.2855 39.7611L55.288 39.7797Z" fill="black"/>
<path d="M60.6934 38.2823C60.8423 38.2622 61.0172 38.2955 61.1303 38.4317C61.2198 38.5333 62.0523 39.3681 63.3225 38.5337C63.5307 38.392 63.8248 38.4659 63.9665 38.6741C64.1083 38.8823 64.0343 39.1764 63.8261 39.3182C62.2411 40.3466 60.9089 39.5982 60.4193 39.0581C60.2428 38.8735 60.2585 38.5683 60.4616 38.3894C60.5285 38.3235 60.6004 38.2949 60.6934 38.2823Z" fill="black"/>
<mask id="path-83-inside-4_6700_110638" fill="white">
<path d="M178.296 179.655C178.171 179.71 178.036 179.69 177.917 179.65C177.673 179.531 152.776 167.698 146.769 168.661C140.633 169.659 116.456 176.919 116.222 177.007C115.967 177.079 115.721 176.942 115.63 176.689C115.557 176.434 115.711 176.167 115.948 176.097C116.948 175.791 140.431 168.72 146.625 167.733C152.927 166.712 177.3 178.312 178.332 178.798C178.575 178.917 178.669 179.188 178.55 179.432C178.491 179.553 178.405 179.622 178.299 179.674L178.296 179.655Z"/>
</mask>
<path d="M178.296 179.655C178.171 179.71 178.036 179.69 177.917 179.65C177.673 179.531 152.776 167.698 146.769 168.661C140.633 169.659 116.456 176.919 116.222 177.007C115.967 177.079 115.721 176.942 115.63 176.689C115.557 176.434 115.711 176.167 115.948 176.097C116.948 175.791 140.431 168.72 146.625 167.733C152.927 166.712 177.3 178.312 178.332 178.798C178.575 178.917 178.669 179.188 178.55 179.432C178.491 179.553 178.405 179.622 178.299 179.674L178.296 179.655Z" fill="#F7B369"/>
<path d="M178.296 179.655L179.287 179.522L179.11 178.208L177.895 178.739L178.296 179.655ZM177.917 179.65L177.478 180.548L177.534 180.576L177.593 180.596L177.917 179.65ZM146.769 168.661L146.61 167.673L146.608 167.674L146.769 168.661ZM116.222 177.007L116.495 177.969L116.535 177.958L116.575 177.943L116.222 177.007ZM115.63 176.689L114.668 176.962L114.677 176.995L114.689 177.028L115.63 176.689ZM115.948 176.097L116.231 177.056L116.24 177.053L115.948 176.097ZM146.625 167.733L146.782 168.72L146.784 168.72L146.625 167.733ZM178.332 178.798L178.77 177.899L178.758 177.893L178.332 178.798ZM178.55 179.432L179.449 179.87L178.55 179.432ZM178.299 179.674L177.308 179.808L177.493 181.183L178.739 180.572L178.299 179.674ZM177.895 178.739C177.999 178.694 178.092 178.687 178.153 178.69C178.182 178.691 178.204 178.695 178.218 178.698C178.231 178.7 178.239 178.703 178.24 178.703L177.593 180.596C177.812 180.671 178.238 180.772 178.697 180.571L177.895 178.739ZM178.355 178.751C178.218 178.684 171.912 175.686 164.881 172.824C161.367 171.393 157.653 169.987 154.429 168.999C152.818 168.505 151.311 168.109 150.003 167.868C148.718 167.631 147.535 167.525 146.61 167.673L146.927 169.648C147.504 169.555 148.413 169.609 149.641 169.835C150.845 170.057 152.271 170.429 153.843 170.911C156.984 171.874 160.636 173.254 164.127 174.676C167.615 176.096 170.926 177.551 173.381 178.659C174.608 179.212 175.62 179.679 176.333 180.011C176.689 180.176 176.971 180.308 177.166 180.401C177.264 180.447 177.34 180.483 177.394 180.508C177.421 180.521 177.442 180.531 177.456 180.538C177.473 180.546 177.479 180.549 177.478 180.548L178.355 178.751ZM146.608 167.674C143.469 168.184 135.823 170.27 129.008 172.213C125.584 173.19 122.345 174.138 119.947 174.847C117.588 175.545 115.973 176.032 115.869 176.071L116.575 177.943C116.562 177.948 116.907 177.841 117.638 177.622C118.332 177.413 119.318 177.119 120.515 176.765C122.908 176.057 126.14 175.111 129.557 174.137C136.423 172.179 143.933 170.135 146.929 169.648L146.608 167.674ZM115.949 176.045C116.072 176.01 116.215 176.023 116.342 176.091C116.464 176.158 116.538 176.259 116.571 176.351L114.689 177.028C114.943 177.735 115.694 178.196 116.495 177.969L115.949 176.045ZM116.592 176.417C116.633 176.56 116.607 176.699 116.55 176.804C116.494 176.906 116.389 177.009 116.231 177.056L115.665 175.138C114.898 175.364 114.447 176.183 114.668 176.962L116.592 176.417ZM116.24 177.053C116.735 176.902 122.85 175.06 129.613 173.132C136.408 171.196 143.758 169.202 146.782 168.72L146.467 166.745C143.297 167.251 135.809 169.287 129.065 171.209C122.288 173.14 116.161 174.986 115.656 175.14L116.24 177.053ZM146.784 168.72C147.406 168.619 148.345 168.666 149.583 168.881C150.802 169.092 152.234 169.451 153.807 169.921C156.951 170.859 160.588 172.216 164.08 173.627C171.062 176.449 177.39 179.46 177.906 179.703L178.758 177.893C178.242 177.65 171.868 174.618 164.83 171.773C161.312 170.352 157.61 168.969 154.379 168.004C152.764 167.522 151.25 167.139 149.925 166.91C148.62 166.684 147.418 166.591 146.465 166.746L146.784 168.72ZM177.894 179.697C177.784 179.644 177.681 179.539 177.631 179.394C177.581 179.248 177.598 179.102 177.651 178.993L179.449 179.87C179.81 179.13 179.51 178.26 178.77 177.899L177.894 179.697ZM177.651 178.993C177.675 178.945 177.713 178.891 177.764 178.844C177.812 178.799 177.852 178.779 177.858 178.776L178.739 180.572C178.989 180.449 179.268 180.241 179.449 179.87L177.651 178.993ZM179.29 179.54L179.287 179.522L177.305 179.789L177.308 179.808L179.29 179.54Z" fill="white" mask="url(#path-83-inside-4_6700_110638)"/>
<path d="M146.94 166.402C146.824 167.163 146.716 167.749 146.658 168.044C146.534 167.696 146.341 167.147 146.119 166.47L146.94 166.402Z" fill="#F7B369" stroke="white"/>
<mask id="path-86-inside-5_6700_110638" fill="white">
<path d="M191.031 184.752C190.925 184.805 190.789 184.785 190.67 184.744C190.429 184.644 190.317 184.375 190.417 184.134L206.494 146.465C206.594 146.225 206.881 146.11 207.104 146.213C207.344 146.313 207.456 146.582 207.356 146.823L191.28 184.491C191.221 184.613 191.138 184.7 191.029 184.734L191.031 184.752Z"/>
</mask>
<path d="M191.031 184.752C190.925 184.805 190.789 184.785 190.67 184.744C190.429 184.644 190.317 184.375 190.417 184.134L206.494 146.465C206.594 146.225 206.881 146.11 207.104 146.213C207.344 146.313 207.456 146.582 207.356 146.823L191.28 184.491C191.221 184.613 191.138 184.7 191.029 184.734L191.031 184.752Z" fill="#F7B369"/>
<path d="M191.031 184.752L191.471 185.65L192.119 185.333L192.022 184.619L191.031 184.752ZM190.67 184.744L190.286 185.668L190.316 185.68L190.347 185.69L190.67 184.744ZM190.417 184.134L189.498 183.742L189.494 183.75L190.417 184.134ZM206.494 146.465L207.413 146.858L207.417 146.849L206.494 146.465ZM207.104 146.213L206.684 147.121L206.702 147.129L206.72 147.136L207.104 146.213ZM207.356 146.823L208.276 147.215L208.28 147.206L207.356 146.823ZM191.28 184.491L192.179 184.93L192.19 184.907L192.2 184.884L191.28 184.491ZM191.029 184.734L190.734 183.778L189.924 184.028L190.038 184.867L191.029 184.734ZM190.591 183.854C190.734 183.785 190.856 183.782 190.911 183.785C190.941 183.786 190.962 183.79 190.974 183.793C190.986 183.795 190.993 183.798 190.994 183.798L190.347 185.69C190.531 185.754 190.995 185.884 191.471 185.65L190.591 183.854ZM191.054 183.821C191.32 183.931 191.454 184.245 191.341 184.518L189.494 183.75C189.18 184.505 189.539 185.357 190.286 185.668L191.054 183.821ZM191.337 184.527L207.413 146.858L205.574 146.073L189.498 183.742L191.337 184.527ZM207.417 146.849C207.357 146.994 207.246 147.089 207.132 147.136C207.019 147.182 206.855 147.199 206.684 147.121L207.523 145.305C206.757 144.951 205.876 145.346 205.57 146.082L207.417 146.849ZM206.72 147.136C206.454 147.026 206.32 146.711 206.433 146.439L208.28 147.206C208.593 146.452 208.235 145.6 207.487 145.289L206.72 147.136ZM206.437 146.43L190.36 184.099L192.2 184.884L208.276 147.215L206.437 146.43ZM190.381 184.053C190.395 184.024 190.49 183.853 190.734 183.778L191.323 185.689C191.785 185.547 192.046 185.202 192.179 184.93L190.381 184.053ZM190.038 184.867L190.04 184.886L192.022 184.619L192.02 184.6L190.038 184.867Z" fill="white" mask="url(#path-86-inside-5_6700_110638)"/>
<mask id="path-88-inside-6_6700_110638" fill="white">
<path d="M182.573 225.018L150.149 237.974C149.915 238.063 149.635 237.949 149.546 237.715C149.458 237.48 149.571 237.2 149.806 237.111L182.23 224.155C182.464 224.066 182.745 224.18 182.833 224.414C182.921 224.649 182.808 224.929 182.573 225.018Z"/>
</mask>
<path d="M182.573 225.018L150.149 237.974C149.915 238.063 149.635 237.949 149.546 237.715C149.458 237.48 149.571 237.2 149.806 237.111L182.23 224.155C182.464 224.066 182.745 224.18 182.833 224.414C182.921 224.649 182.808 224.929 182.573 225.018Z" fill="#F7B369"/>
<path d="M150.149 237.974L150.503 238.91L150.512 238.906L150.521 238.903L150.149 237.974ZM149.806 237.111L150.159 238.047L150.168 238.043L150.177 238.04L149.806 237.111ZM182.23 224.155L181.877 223.219L181.868 223.223L181.859 223.226L182.23 224.155ZM182.573 225.018L182.22 224.082L182.211 224.085L182.202 224.089L182.573 225.018ZM182.202 224.089L149.778 237.045L150.521 238.903L182.945 225.946L182.202 224.089ZM149.796 237.039C149.935 236.986 150.072 236.998 150.182 237.044C150.295 237.092 150.419 237.194 150.482 237.361L148.611 238.068C148.91 238.862 149.796 239.176 150.503 238.91L149.796 237.039ZM150.482 237.361C150.534 237.5 150.523 237.637 150.476 237.747C150.429 237.86 150.326 237.984 150.159 238.047L149.453 236.176C148.658 236.476 148.344 237.361 148.611 238.068L150.482 237.361ZM150.177 238.04L182.601 225.083L181.859 223.226L149.435 236.183L150.177 238.04ZM182.583 225.09C182.445 225.143 182.307 225.131 182.197 225.085C182.085 225.037 181.961 224.935 181.897 224.767L183.769 224.061C183.469 223.267 182.583 222.952 181.877 223.219L182.583 225.09ZM181.897 224.767C181.845 224.629 181.857 224.492 181.903 224.382C181.951 224.269 182.053 224.145 182.22 224.082L182.927 225.953C183.721 225.653 184.035 224.768 183.769 224.061L181.897 224.767Z" fill="white" mask="url(#path-88-inside-6_6700_110638)"/>
<path d="M201.59 241.814C201.59 241.814 196.453 233.642 192.115 234.909C187.775 236.157 185.63 248.192 185.63 248.192C185.63 248.192 168.799 253.456 168.14 255.174C167.482 256.892 178.548 284.571 179.868 284.526C181.187 284.48 248.914 257.421 251.815 255.76C254.719 254.118 244.621 241.614 237.544 241.527C230.466 241.44 223.923 244.047 223.923 244.047L201.553 241.819L201.59 241.814Z" fill="#0091CD"/>
<path d="M236.258 153.282C236.258 153.282 227.228 149.954 224.62 153.508C222.011 157.061 227.809 167.739 227.809 167.739C227.809 167.739 217.988 181.851 218.543 183.576C219.097 185.301 244.829 200.373 245.818 199.558C246.825 198.74 282.743 137.405 283.982 134.377C285.224 131.368 269.637 127.599 264.075 131.722C258.512 135.844 255.049 141.767 255.049 141.767L236.279 153.298L236.258 153.282Z" fill="#0091CD"/>
<path d="M118.464 39.8699L127.176 20.5078L101.856 9.11565L93.1445 28.4777L118.464 39.8699Z" fill="#7594A8"/>
<path d="M98.5813 19.2805C100.989 13.9291 102.443 9.36677 101.828 9.09025C101.214 8.81374 98.7636 12.9278 96.3558 18.2792C93.948 23.6306 92.4943 28.1929 93.1089 28.4694C93.7234 28.7459 96.1735 24.6319 98.5813 19.2805Z" fill="#496374"/>
<path d="M103.877 42.0161C98.7157 39.7008 95.9946 34.5557 97.7858 30.5634C99.577 26.571 105.248 25.2186 110.391 27.5364C115.534 29.8542 118.274 34.9968 116.483 38.9891C114.691 42.9815 109.021 44.3339 103.877 42.0161ZM104.65 40.3017C108.865 42.1955 113.399 41.2617 114.787 38.214C116.175 35.1663 113.833 31.1446 109.637 29.2483C105.441 27.3519 100.888 28.2883 99.5001 31.336C98.1119 34.3836 100.454 38.4054 104.65 40.3017Z" fill="#7594A8"/>
<path d="M105.729 54.0697C105.729 54.0697 99.4815 43.5662 99.4689 41.0865C99.4474 37.6986 106.007 35.0708 106.007 35.0708L108.325 40.8764L109.01 42.5835C109.01 42.5835 114.318 45.5611 115.556 53.331C116.81 61.0797 105.713 54.0909 105.713 54.0909L105.729 54.0697Z" fill="#F8AFB8"/>
<path d="M113.309 32.8854C113.599 31.8044 114.207 30.8321 114.965 29.9911C117.519 27.1649 126.093 20.5145 129.571 22.5646C132.904 24.5206 128.249 28.35 128.249 28.35C128.249 28.35 132.611 25.9997 133.181 29.5219C133.673 32.4673 130.921 34.1079 130.921 34.1079C130.921 34.1079 135.688 32.1007 134.846 36.6659C134.003 41.2311 124.595 47.3121 120.795 48.0711C116.995 48.8301 118.517 43.264 118.517 43.264C118.517 43.264 114.313 43.5473 113.781 41.2891C113.231 38.9008 116.212 37.2673 116.212 37.2673C116.212 37.2673 112.286 36.812 113.309 32.8854Z" fill="#F8AFB8"/>
<path d="M117.503 37.1332C117.306 37.2166 117.089 37.1512 116.952 36.9802C116.792 36.7745 116.829 36.4854 117.034 36.3251L127.955 27.9752C128.161 27.8149 128.45 27.8516 128.61 28.0573C128.77 28.263 128.734 28.5521 128.528 28.7124L117.607 37.0623C117.607 37.0623 117.538 37.1095 117.501 37.1146L117.503 37.1332Z" fill="black"/>
<path d="M120.061 42.7754C119.864 42.8588 119.647 42.7934 119.51 42.6225C119.35 42.4168 119.405 42.1252 119.611 41.9648L130.658 33.7115C130.864 33.5512 131.155 33.6065 131.316 33.8122C131.476 34.0179 131.421 34.3095 131.215 34.4698L120.168 42.7231C120.168 42.7231 120.098 42.7704 120.061 42.7754Z" fill="black"/>
<path d="M115.743 53.7606C115.743 53.7606 115.631 53.7757 115.575 53.7832C115.312 53.7998 115.094 53.583 115.098 53.3361C114.899 47.2257 108.817 43.0076 108.756 42.9779C108.548 42.8356 108.489 42.5404 108.631 42.3318C108.774 42.1232 109.069 42.0644 109.277 42.2067C109.547 42.3787 115.816 46.723 116.025 53.3247C116.034 53.5319 115.905 53.7008 115.727 53.7817L115.743 53.7606Z" fill="black"/>
<path d="M68.3287 72.9378C66.8373 73.5369 64.5645 74.2414 61.2495 74.8024C54.2102 75.9796 50.8939 72.6007 50.7597 72.4484C50.5832 72.2638 50.5803 71.9611 50.7834 71.7822C50.968 71.6057 51.2707 71.6028 51.4471 71.7873C51.4708 71.822 54.5845 74.963 61.1029 73.8561C67.7329 72.7341 70.112 70.9924 70.1281 70.9712C70.3337 70.8109 70.6228 70.8476 70.7832 71.0533C70.9435 71.259 70.9068 71.5481 70.7011 71.7084C70.6503 71.7532 69.9614 72.2629 68.3448 72.9167L68.3287 72.9378Z" fill="white"/>
<path d="M56.6693 48.0876C56.4164 48.1786 56.1359 48.0649 56.0449 47.812L55.0856 45.1948C55.0519 45.0857 55.0529 44.9529 55.0962 44.8524L55.8427 43.0847C55.9428 42.8439 56.2118 42.7318 56.4526 42.8319C56.6934 42.932 56.8055 43.201 56.7054 43.4418L56.0319 45.0481L56.9128 47.5054C57.0012 47.7398 56.8851 48.0017 56.6532 48.1087L56.6693 48.0876Z" fill="black"/>
<path d="M64.5468 45.6513C64.2939 45.7422 64.0319 45.626 63.9435 45.3917L62.9469 42.7795C62.9133 42.6704 62.9168 42.5563 62.9414 42.4582L63.523 40.7317C63.6045 40.4934 63.871 40.3627 64.1279 40.4417C64.3662 40.5232 64.4969 40.7897 64.4179 41.0466L63.8907 42.6143L64.8274 45.064C64.9159 45.2984 64.8022 45.5789 64.5679 45.6673L64.5468 45.6513Z" fill="black"/>
<path d="M47.5073 52.1677C47.5073 52.1677 51.1924 48.7343 52.0287 44.9655C52.8651 41.1967 51.569 38.1893 51.569 38.1893C51.569 38.1893 54.7353 39.3342 58.4482 37.7913C62.1611 36.2484 63.34 31.7894 61.8432 28.9795C61.1054 27.5826 58.5072 28.8235 58.5072 28.8235C58.5072 28.8235 54.7388 25.8845 50.0303 27.7701C45.3218 29.6557 44.8034 32.8322 44.8034 32.8322C44.8034 32.8322 40.8749 33.7602 38.4765 36.6221C36.0782 39.4841 37.188 43.9184 37.188 43.9184C37.188 43.9184 35.1775 45.7241 35.7035 48.0777C36.2295 50.4314 39.6457 54.2704 39.6457 54.2704C39.6457 54.2704 41.7877 48.5259 47.5073 52.1677Z" fill="black"/>
<path d="M105.068 116.379C104.834 116.467 104.553 116.353 104.465 116.119L99.774 104.382C99.774 104.382 99.7615 104.289 99.754 104.233C99.7464 104.177 99.4136 98.4826 97.1539 91.0019C94.9253 83.6117 86.3033 77.2737 86.2189 77.2094C86.0077 77.0484 85.9701 76.7694 86.131 76.5582C86.292 76.3471 86.571 76.3094 86.7822 76.4703C87.1411 76.7439 95.7234 83.0683 98.0479 90.7487C100.202 97.8648 100.626 103.396 100.687 104.126L105.351 115.81C105.44 116.044 105.326 116.325 105.091 116.413L105.068 116.379Z" fill="white"/>
<path d="M30.457 95.4103C30.457 95.4103 24.8505 101.452 20.5212 113.307C15.2828 127.691 17.1046 150.878 17.1046 150.878L37.4481 151.429C37.4481 151.429 45.1635 120.306 51.5553 119.803C57.947 119.301 30.4595 95.4289 30.4595 95.4289L30.457 95.4103Z" fill="#F8AFB8"/>
<path d="M43.0469 163.16C43.1023 165.255 40.41 169.729 40.41 169.729C40.41 169.729 40.1044 177.29 37.9533 178.054C35.8022 178.818 33.0098 175.671 33.0098 175.671C33.0098 175.671 28.6943 178.224 26.9301 178.064C25.1658 177.904 16.8249 178.139 14.3474 174.098C11.8699 170.057 17.1005 150.844 17.1005 150.844L35.1108 147.163C35.1108 147.163 42.9889 161.046 43.0444 163.141L43.0469 163.16Z" fill="#F8AFB8"/>
<path d="M33.0194 176.143C32.7911 176.136 32.5986 175.973 32.5659 175.731L31.9942 170.372C31.9616 170.13 32.1386 169.898 32.3991 169.862C32.6409 169.83 32.8757 170.025 32.9083 170.267L33.48 175.627C33.5127 175.869 33.3356 176.101 33.0752 176.136L33.0194 176.143Z" fill="black"/>
<path d="M40.4189 170.18C40.1906 170.173 39.9981 170.009 39.9655 169.768L38.9934 159.897C38.9608 159.655 39.1564 159.42 39.4008 159.406C39.624 159.376 39.8774 159.569 39.8914 159.814L40.8635 169.684C40.8961 169.926 40.7005 170.161 40.4561 170.175L40.4189 170.18Z" fill="black"/>
<path d="M35.3751 81.1639C35.3751 81.1639 19.3313 98.5781 19.5874 116.199L49.1965 125.331L56.0358 116.774L35.3751 81.1639Z" fill="#00A1E4"/>
<path d="M46.7052 124.433C46.4297 124.356 46.2879 124.148 46.3161 123.936C46.6683 119.948 47.5012 113.206 49.0313 112.753C49.2309 112.689 49.6452 112.671 50.0318 113.149C51.9037 115.51 47.6934 123.333 47.206 124.214C47.117 124.396 46.9199 124.48 46.7263 124.449L46.7052 124.433ZM49.2051 113.62C48.6821 113.956 47.9796 117.593 47.5193 121.482C48.9312 118.469 50.1833 114.833 49.2921 113.703C49.2448 113.634 49.2051 113.62 49.2051 113.62Z" fill="white"/>
<path d="M44.9141 128.539L54.4625 150.588L64.4895 146.564L44.9141 128.539Z" fill="#00A1E4"/>
<path d="M62.3995 58.2209C63.3139 58.0975 63.9552 57.2561 63.8318 56.3417C63.7084 55.4272 62.8671 54.786 61.9526 54.9094C61.0382 55.0328 60.3969 55.8741 60.5203 56.7886C60.6437 57.703 61.485 58.3443 62.3995 58.2209Z" stroke="black" stroke-miterlimit="10"/>
<path d="M16.1185 188.066C15.9536 188.107 15.8047 188.127 15.672 188.126C3.60736 186.174 0.548573 176.983 0.536021 176.89C0.497333 176.744 0.700494 176.565 1.02783 176.464C1.35517 176.363 1.62315 176.384 1.66184 176.53C1.67439 176.623 4.67087 185.633 16.4067 187.535C16.64 187.579 16.6787 187.725 16.4569 187.907C16.3714 187.975 16.2301 188.051 16.1024 188.087L16.1185 188.066Z" fill="#7FC5FA"/>
<path d="M20.2552 183.035C20.0903 183.076 19.9415 183.096 19.8087 183.095C7.72547 181.146 4.7039 171.949 4.67274 171.859C4.63405 171.713 4.83721 171.534 5.16455 171.433C5.49189 171.332 5.75987 171.352 5.79856 171.499C5.81111 171.592 8.80758 180.602 20.5434 182.504C20.7767 182.548 20.8154 182.694 20.5936 182.876C20.5081 182.944 20.3668 183.02 20.2391 183.056L20.2552 183.035Z" fill="#7FC5FA"/>
<path d="M100.31 12.1088C94.0613 7.21226 86.5223 3.98635 78.6777 2.84754C77.4232 2.67585 75.5904 3.13155 75.8702 4.36298C75.9938 4.85777 76.4559 5.19322 76.8918 5.47538L80.9102 8.02084C81.4703 8.38095 82.1037 8.86377 82.0402 9.5164C81.9647 10.3601 80.8871 10.6571 80.0288 10.7539C76.7283 11.1425 73.4931 12.0148 70.4533 13.3532C69.0227 13.9819 67.6097 14.7409 66.6179 15.9545C65.6262 17.1681 65.1985 18.9117 65.8805 20.3162L75.5957 18.1906C76.2021 18.052 76.8879 17.9405 77.3736 18.3106C78.0704 18.8417 77.8761 19.9288 77.628 20.7578L75.1558 28.6877C74.878 29.5776 74.6053 30.5047 74.747 31.4138C74.8886 32.3229 75.6331 33.2075 76.5623 33.2147C76.9394 33.2017 77.2989 33.0585 77.6348 32.8805C80.4176 31.4631 82.2127 28.3415 85.2222 27.4808C88.2502 26.6175 91.755 28.3041 94.5303 26.8309C95.6793 26.2212 96.5026 25.1629 97.1856 24.0478C99.4389 20.3908 100.437 15.994 99.9921 11.716" fill="#7FC5FA"/>
<path d="M88.484 32.1123C88.484 32.1123 80.3522 32.7739 84.6185 37.5779C84.6185 37.5779 88.8142 40.876 88.484 32.1123Z" fill="#7FC5FA"/>
<path d="M73.8008 3.6364C73.8008 3.6364 70.2658 0.0407693 69.6779 3.96546C69.6779 3.96546 69.7823 7.26632 73.8008 3.6364Z" fill="#7FC5FA"/>
</svg>
